SplineFontDB: 3.0
FontName: HeydingsCommonIconsRegular
FullName: HeydingsCommonIconsRegular
FamilyName: HeydingsCommonIconsRegular
Weight: Regular
ItalicAngle: 0
UnderlinePosition: 0
UnderlineWidth: 0
Ascent: 1638
Descent: 410
LayerCount: 2
Layer: 0 1 "Back"  1
Layer: 1 1 "Fore"  0
NeedsXUIDChange: 1
XUID: [1021 598 2114685235 202709]
OS2Version: 0
OS2_WeightWidthSlopeOnly: 0
OS2_UseTypoMetrics: 0
CreationTime: 1332506356
ModificationTime: 1342052267
PfmFamily: 17
TTFWeight: 400
TTFWidth: 5
LineGap: 184
VLineGap: 184
OS2TypoAscent: 0
OS2TypoAOffset: 1
OS2TypoDescent: 0
OS2TypoDOffset: 1
OS2TypoLinegap: 184
OS2WinAscent: 0
OS2WinAOffset: 1
OS2WinDescent: 0
OS2WinDOffset: 1
HheadAscent: 0
HheadAOffset: 1
HheadDescent: 0
HheadDOffset: 1
OS2Vendor: 'PfEd'
DEI: 91125
Encoding: Original
UnicodeInterp: none
NameList: Adobe Glyph List
DisplaySize: -48
AntiAlias: 1
FitToEm: 1
WinInfo: 0 27 12
BeginChars: 95 83

StartChar: exclam
Encoding: 1 33 0
Width: 2048
LayerCount: 2
Fore
SplineSet
122 88 m 0,0,1
 122 114 122 114 134 136 c 2,2,-1
 928 1692 l 2,3,4
 938 1710 938 1710 959 1724 c 128,-1,5
 980 1738 980 1738 1000 1738 c 128,-1,6
 1020 1738 1020 1738 1041 1724 c 128,-1,7
 1062 1710 1062 1710 1072 1692 c 2,8,-1
 1866 136 l 2,9,10
 1878 114 1878 114 1878 88 c 0,11,12
 1878 48 1878 48 1853 20 c 128,-1,13
 1828 -8 1828 -8 1794 -8 c 2,14,-1
 206 -8 l 2,15,16
 172 -8 172 -8 147 20 c 128,-1,17
 122 48 122 48 122 88 c 0,0,1
352 182 m 1,18,-1
 1000 1454 l 1,19,-1
 1648 182 l 5,20,-1
 352 182 l 1,18,-1
880 362 m 128,-1,22
 880 410 880 410 915 445 c 128,-1,23
 950 480 950 480 1000 480 c 128,-1,24
 1050 480 1050 480 1085 445 c 128,-1,25
 1120 410 1120 410 1120 362 c 128,-1,26
 1120 314 1120 314 1085 280 c 128,-1,27
 1050 246 1050 246 1000 246 c 128,-1,28
 950 246 950 246 915 280 c 128,-1,21
 880 314 880 314 880 362 c 128,-1,22
920 1076 m 1,29,-1
 948 570 l 2,30,31
 950 548 950 548 965 533 c 128,-1,32
 980 518 980 518 1004 518 c 1,33,34
 1028 520 1028 520 1044 534 c 128,-1,35
 1060 548 1060 548 1060 570 c 1,36,-1
 1088 1076 l 2,37,38
 1088 1080 1088 1080 1088 1083 c 0,39,40
 1092 1162 1092 1162 1004 1162 c 0,41,42
 960 1162 960 1162 937 1140 c 0,43,44
 918 1123 918 1123 918.759 1092.52 c 0,45,46
 918.964 1084.29 918.964 1084.29 920 1076 c 1,29,-1
EndSplineSet
Validated: 41
EndChar

StartChar: asterisk
Encoding: 2 42 1
Width: 2048
LayerCount: 2
Fore
SplineSet
130 728 m 1,0,-1
 336 620 l 1,1,-1
 244 406 l 1,2,-1
 476 384 l 1,3,-1
 472 150 l 1,4,-1
 696 220 l 1,5,-1
 782 2 l 1,6,-1
 962 152 l 1,7,-1
 1124 -16 l 1,8,-1
 1234 190 l 1,9,-1
 1448 98 l 1,10,-1
 1470 330 l 1,11,-1
 1702 326 l 1,12,-1
 1634 550 l 1,13,-1
 1852 636 l 1,14,-1
 1702 816 l 1,15,-1
 1870 978 l 1,16,-1
 1664 1086 l 1,17,-1
 1756 1300 l 1,18,-1
 1524 1322 l 1,19,-1
 1528 1556 l 1,20,-1
 1304 1488 l 1,21,-1
 1218 1704 l 1,22,-1
 1038 1556 l 1,23,-1
 876 1724 l 1,24,-1
 766 1516 l 1,25,-1
 552 1610 l 1,26,-1
 530 1376 l 1,27,-1
 298 1380 l 1,28,-1
 366 1158 l 1,29,-1
 148 1072 l 1,30,-1
 298 892 l 1,31,-1
 130 728 l 1,0,-1
EndSplineSet
Validated: 9
EndChar

StartChar: plus
Encoding: 3 43 2
Width: 2048
LayerCount: 2
Fore
SplineSet
120 871 m 0,0,1
 120 692 120 692 190 529 c 0,2,3
 260 366 260 366 378 248 c 0,4,5
 496 130 496 130 658 60 c 0,6,7
 820 -10 820 -10 1000 -10 c 0,8,9
 1180 -10 1180 -10 1342 60 c 0,10,11
 1504 130 1504 130 1622 248 c 0,12,13
 1740 366 1740 366 1810 529 c 0,14,15
 1880 692 1880 692 1880 871 c 0,16,17
 1880 1050 1880 1050 1810 1213 c 0,18,19
 1740 1376 1740 1376 1622 1494 c 0,20,21
 1504 1612 1504 1612 1342 1681 c 0,22,23
 1180 1750 1180 1750 1000 1750 c 0,24,25
 820 1750 820 1750 658 1681 c 0,26,27
 496 1612 496 1612 378 1494 c 0,28,29
 260 1376 260 1376 190 1213 c 0,30,31
 120 1050 120 1050 120 871 c 0,0,1
534 738 m 1,32,-1
 534 1004 l 1,33,-1
 866 1004 l 1,34,-1
 866 1338 l 1,35,-1
 1134 1338 l 1,36,-1
 1134 1004 l 1,37,-1
 1466 1004 l 1,38,-1
 1466 738 l 1,39,-1
 1134 738 l 1,40,-1
 1134 404 l 1,41,-1
 866 404 l 1,42,-1
 866 738 l 1,43,-1
 534 738 l 1,32,-1
EndSplineSet
Validated: 9
EndChar

StartChar: hyphen
Encoding: 4 45 3
Width: 2048
LayerCount: 2
Fore
SplineSet
120 868 m 0,0,1
 120 504 120 504 378 246 c 0,2,3
 636 -12 636 -12 1000 -12 c 0,4,5
 1364 -12 1364 -12 1622 246 c 0,6,7
 1880 504 1880 504 1880 868 c 0,8,9
 1880 1232 1880 1232 1622 1490 c 0,10,11
 1364 1748 1364 1748 1000 1748 c 0,12,13
 636 1748 636 1748 378 1490 c 0,14,15
 120 1232 120 1232 120 868 c 0,0,1
534 734 m 1,16,-1
 534 1002 l 1,17,-1
 1466 1002 l 1,18,-1
 1466 734 l 1,19,-1
 534 734 l 1,16,-1
EndSplineSet
Validated: 9
EndChar

StartChar: one
Encoding: 5 49 4
Width: 2048
LayerCount: 2
Fore
SplineSet
120 868 m 0,0,1
 120 658 120 658 214 474 c 1,2,-1
 904 844 l 1,3,-1
 352 1456 l 1,4,5
 352 1458 352 1458 350 1460 c 1,6,7
 240 1342 240 1342 180 1189 c 0,8,9
 120 1036 120 1036 120 868 c 0,0,1
274 370 m 1,10,11
 396 194 396 194 587 91 c 0,12,13
 778 -12 778 -12 1000 -12 c 0,14,15
 1364 -12 1364 -12 1622 246 c 0,16,17
 1880 504 1880 504 1880 868 c 0,18,19
 1880 1098 1880 1098 1771 1295 c 0,20,21
 1662 1492 1662 1492 1473 1612 c 0,22,23
 1284 1732 1284 1732 1058 1746 c 1,24,25
 1060 1634 1060 1634 1060 888 c 2,26,-1
 1060 798 l 1,27,28
 980 748 980 748 976 746 c 2,29,-1
 274 370 l 1,10,11
436 1544 m 1,30,31
 440 1540 440 1540 442 1536 c 1,32,-1
 940 984 l 1,33,34
 940 1528 940 1528 942 1746 c 1,35,36
 656 1728 656 1728 436 1544 c 1,30,31
EndSplineSet
Validated: 9
EndChar

StartChar: two
Encoding: 6 50 5
Width: 2048
LayerCount: 2
Fore
SplineSet
276 1044 m 0,0,1
 278 1028 278 1028 282 1014 c 0,2,3
 286 1000 286 1000 288 991 c 0,4,5
 290 982 290 982 298 969 c 0,6,7
 306 956 306 956 310 951 c 0,8,9
 314 946 314 946 324 934 c 0,10,11
 334 922 334 922 336 918 c 1,12,13
 302 848 302 848 302 826 c 1,14,15
 304 800 304 800 301 795 c 0,16,17
 298 790 298 790 303 772 c 0,18,19
 308 754 308 754 308 753 c 0,20,21
 308 752 308 752 315 734 c 0,22,23
 322 716 322 716 324 712 c 0,24,25
 332 692 332 692 369 677 c 0,26,27
 406 662 406 662 436 658 c 1,28,29
 514 644 514 644 600 666 c 1,30,31
 628 672 628 672 682 689 c 0,32,33
 736 706 736 706 760 712 c 0,34,35
 778 716 778 716 795 718 c 0,36,37
 812 720 812 720 831 719 c 0,38,39
 850 718 850 718 860 718 c 0,40,41
 870 718 870 718 892 715 c 0,42,43
 914 712 914 712 920 712 c 1,44,-1
 914 714 l 1,45,-1
 878 718 l 1,46,-1
 880 718 l 1,47,48
 920 712 920 712 953 674 c 0,49,50
 986 636 986 636 980 598 c 1,51,52
 962 558 962 558 948 392 c 1,53,54
 906 352 906 352 898 252 c 1,55,-1
 922 114 l 1,56,57
 958 -14 958 -14 1064 -12 c 0,58,59
 1108 -12 1108 -12 1114 2 c 1,60,-1
 1114 114 l 2,61,62
 1114 248 1114 248 1226 448 c 1,63,-1
 1338 560 l 1,64,65
 1362 592 1362 592 1381 635 c 0,66,67
 1400 678 1400 678 1407 700 c 0,68,69
 1414 722 1414 722 1428 782 c 0,70,71
 1442 842 1442 842 1444 854 c 1,72,73
 1458 868 1458 868 1470 886 c 1,74,75
 1472 908 1472 908 1518 914 c 0,76,77
 1564 920 1564 920 1619 917 c 0,78,79
 1674 914 1674 914 1724 918 c 1,80,-1
 1724 1560 l 1,81,82
 1482 1554 1482 1554 1440 1588 c 1,83,84
 1430 1604 1430 1604 1412 1619 c 0,85,86
 1394 1634 1394 1634 1383 1640 c 0,87,88
 1372 1646 1372 1646 1345 1659 c 0,89,90
 1318 1672 1318 1672 1312 1676 c 0,91,92
 1244 1710 1244 1710 1105 1724 c 0,93,94
 966 1738 966 1738 830 1736 c 0,95,96
 694 1734 694 1734 566 1722 c 1,97,98
 550 1722 550 1722 518 1705 c 0,99,100
 486 1688 486 1688 451 1659 c 0,101,102
 416 1630 416 1630 401 1590 c 0,103,104
 386 1550 386 1550 404 1504 c 1,105,106
 372 1486 372 1486 357 1476 c 0,107,108
 342 1466 342 1466 324 1435 c 0,109,110
 306 1404 306 1404 296 1358 c 1,111,112
 296 1302 296 1302 305 1273 c 0,113,114
 314 1244 314 1244 336 1216 c 1,115,116
 302 1184 302 1184 290 1159 c 0,117,118
 278 1134 278 1134 276 1078 c 1,119,120
 274 1060 274 1060 276 1044 c 0,0,1
EndSplineSet
Validated: 37
EndChar

StartChar: three
Encoding: 7 51 6
Width: 2048
LayerCount: 2
Fore
SplineSet
114 25 m 0,0,1
 114 16 114 16 117 6 c 0,2,3
 120 -4 120 -4 131 -7 c 0,4,5
 142 -10 142 -10 160 -10 c 2,6,-1
 890 -10 l 2,7,8
 956 -10 956 -10 914 78 c 1,9,10
 906 92 906 92 890 124 c 2,11,-1
 822 258 l 1,12,-1
 822 324 l 1,13,-1
 1182 324 l 1,14,-1
 1182 258 l 1,15,-1
 1116 124 l 2,16,17
 1114 120 1114 120 1108 110 c 0,18,19
 1098 90 1098 90 1093 79 c 0,20,21
 1088 68 1088 68 1081 51 c 0,22,23
 1074 34 1074 34 1074 25 c 0,24,25
 1074 16 1074 16 1077 6 c 0,26,27
 1080 -4 1080 -4 1091 -7 c 0,28,29
 1102 -10 1102 -10 1120 -10 c 2,30,-1
 1850 -10 l 2,31,32
 1916 -10 1916 -10 1874 78 c 1,33,34
 1866 92 1866 92 1850 124 c 2,35,-1
 1782 258 l 1,36,-1
 1782 624 l 2,37,38
 1782 638 1782 638 1773 648 c 0,39,40
 1764 658 1764 658 1750 658 c 2,41,-1
 1216 658 l 2,42,43
 1202 658 1202 658 1192 648 c 0,44,45
 1182 638 1182 638 1182 624 c 2,46,-1
 1182 444 l 1,47,-1
 1060 444 l 1,48,-1
 1060 846 l 1,49,-1
 1368 846 l 2,50,51
 1432 846 1432 846 1390 932 c 0,52,53
 1384 946 1384 946 1366 978 c 1,54,-1
 1300 1112 l 1,55,-1
 1300 1478 l 2,56,57
 1300 1492 1300 1492 1290 1502 c 0,58,59
 1280 1512 1280 1512 1266 1512 c 2,60,-1
 732 1512 l 2,61,62
 718 1512 718 1512 709 1502 c 0,63,64
 700 1492 700 1492 700 1478 c 2,65,-1
 700 1112 l 1,66,-1
 632 978 l 1,67,-1
 626 966 l 2,68,69
 616 944 616 944 611 934 c 0,70,71
 606 924 606 924 599 906 c 0,72,73
 592 888 592 888 592 879 c 0,74,75
 592 870 592 870 595 861 c 0,76,77
 598 852 598 852 609 848 c 0,78,79
 620 844 620 844 638 846 c 1,80,-1
 940 846 l 1,81,-1
 940 444 l 1,82,-1
 822 444 l 1,83,-1
 822 624 l 2,84,85
 822 638 822 638 813 648 c 0,86,87
 804 658 804 658 790 658 c 2,88,-1
 256 658 l 2,89,90
 242 658 242 658 232 648 c 0,91,92
 222 638 222 638 222 624 c 2,93,-1
 222 258 l 1,94,-1
 156 124 l 2,95,96
 154 120 154 120 148 110 c 0,97,98
 138 90 138 90 133 79 c 0,99,100
 128 68 128 68 121 51 c 0,101,102
 114 34 114 34 114 25 c 0,0,1
320 324 m 1,103,-1
 320 564 l 1,104,-1
 724 564 l 1,105,-1
 724 324 l 1,106,-1
 320 324 l 1,103,-1
796 1178 m 1,107,-1
 796 1418 l 1,108,-1
 1202 1418 l 1,109,-1
 1202 1178 l 1,110,-1
 796 1178 l 1,107,-1
1280 324 m 1,111,-1
 1280 564 l 1,112,-1
 1684 564 l 1,113,-1
 1684 324 l 1,114,-1
 1280 324 l 1,111,-1
EndSplineSet
Validated: 41
EndChar

StartChar: four
Encoding: 8 52 7
Width: 2048
LayerCount: 2
Fore
SplineSet
120 872 m 0,0,1
 120 508 120 508 378 250 c 0,2,3
 636 -8 636 -8 1000 -8 c 0,4,5
 1364 -8 1364 -8 1622 250 c 0,6,7
 1880 508 1880 508 1880 872 c 0,8,9
 1880 1236 1880 1236 1622 1494 c 0,10,11
 1364 1752 1364 1752 1000 1752 c 0,12,13
 636 1752 636 1752 378 1494 c 0,14,15
 120 1236 120 1236 120 872 c 0,0,1
300 872 m 0,16,17
 300 1162 300 1162 505 1367 c 0,18,19
 710 1572 710 1572 1000 1572 c 0,20,21
 1290 1572 1290 1572 1495 1367 c 0,22,23
 1700 1162 1700 1162 1700 872 c 0,24,25
 1700 738 1700 738 1650 612 c 1,26,27
 1368 810 1368 810 1100 832 c 1,28,-1
 1120 672 l 1,29,30
 1240 614 1240 614 1240 452 c 0,31,32
 1240 352 1240 352 1170 282 c 0,33,34
 1100 212 1100 212 1000 212 c 0,35,36
 900 212 900 212 830 282 c 0,37,38
 760 352 760 352 760 452 c 0,39,40
 760 614 760 614 880 672 c 1,41,-1
 900 832 l 1,42,43
 636 808 636 808 350 612 c 1,44,45
 300 736 300 736 300 872 c 0,16,17
851 504 m 0,46,47
 828 442 828 442 852 386 c 0,48,49
 876 328 876 328 937 302 c 0,50,51
 998 276 998 276 1056 298 c 1,52,53
 1116 318 1116 318 1145 381 c 0,54,55
 1174 444 1174 444 1150 504 c 1,56,57
 1128 564 1128 564 1070 592 c 1,58,-1
 1020 1182 l 1,59,60
 1020 1210 1020 1210 1010 1222 c 0,61,62
 1000 1234 1000 1234 990 1222 c 0,63,64
 980 1210 980 1210 980 1182 c 1,65,-1
 930 592 l 1,66,67
 874 566 874 566 851 504 c 0,46,47
EndSplineSet
Validated: 41
EndChar

StartChar: five
Encoding: 9 53 8
Width: 2048
LayerCount: 2
Fore
SplineSet
360 -14 m 1,0,-1
 1640 -14 l 1,1,-1
 1640 1624 l 1,2,-1
 1640 1636 l 1,3,-1
 1640 1670 l 1,4,-1
 1640 1704 l 1,5,-1
 360 1704 l 1,6,-1
 360 1670 l 1,7,-1
 360 1636 l 1,8,-1
 360 1624 l 1,9,-1
 360 -14 l 1,0,-1
462 120 m 1,10,-1
 462 726 l 1,11,-1
 1538 726 l 1,12,-1
 1538 120 l 1,13,-1
 462 120 l 1,10,-1
462 828 m 1,14,-1
 462 1434 l 1,15,-1
 1538 1434 l 1,16,-1
 1538 828 l 1,17,-1
 462 828 l 1,14,-1
528 188 m 1,18,-1
 1472 188 l 1,19,-1
 1472 658 l 1,20,-1
 528 658 l 1,21,-1
 528 188 l 1,18,-1
528 894 m 1,22,-1
 1472 894 l 1,23,-1
 1472 1366 l 1,24,-1
 528 1366 l 1,25,-1
 528 894 l 1,22,-1
832 390 m 2,26,-1
 832 524 l 2,27,28
 832 538 832 538 842 548 c 0,29,30
 852 558 852 558 866 558 c 2,31,-1
 1134 558 l 2,32,33
 1148 558 1148 558 1158 548 c 0,34,35
 1168 538 1168 538 1168 524 c 2,36,-1
 1168 390 l 2,37,38
 1168 376 1168 376 1158 366 c 0,39,40
 1148 356 1148 356 1134 356 c 2,41,-1
 866 356 l 2,42,43
 852 356 852 356 842 366 c 0,44,45
 832 376 832 376 832 390 c 2,26,-1
832 1096 m 2,46,-1
 832 1232 l 2,47,48
 832 1246 832 1246 842 1256 c 0,49,50
 852 1266 852 1266 866 1266 c 2,51,-1
 1134 1266 l 2,52,53
 1148 1266 1148 1266 1158 1256 c 0,54,55
 1168 1246 1168 1246 1168 1232 c 2,56,-1
 1168 1096 l 2,57,58
 1168 1082 1168 1082 1158 1072 c 0,59,60
 1148 1062 1148 1062 1134 1062 c 2,61,-1
 866 1062 l 2,62,63
 852 1062 852 1062 842 1072 c 0,64,65
 832 1082 832 1082 832 1096 c 2,46,-1
1438 1569 m 0,66,67
 1438 1590 1438 1590 1453 1604 c 0,68,69
 1468 1618 1468 1618 1489 1618 c 0,70,71
 1510 1618 1510 1618 1524 1604 c 0,72,73
 1538 1590 1538 1590 1538 1569 c 0,74,75
 1538 1548 1538 1548 1524 1533 c 0,76,77
 1510 1518 1510 1518 1489 1518 c 0,78,79
 1468 1518 1468 1518 1453 1533 c 0,80,81
 1438 1548 1438 1548 1438 1569 c 0,66,67
EndSplineSet
Validated: 9
EndChar

StartChar: eight
Encoding: 10 56 9
Width: 2048
LayerCount: 2
Fore
SplineSet
276 162 m 1,0,1
 518 170 518 170 560 136 c 1,2,3
 570 118 570 118 588 104 c 0,4,5
 606 90 606 90 617 83 c 0,6,7
 628 76 628 76 655 64 c 0,8,9
 682 52 682 52 688 48 c 0,10,11
 756 14 756 14 895 -1 c 0,12,13
 1034 -16 1034 -16 1170 -13 c 0,14,15
 1306 -10 1306 -10 1434 2 c 1,16,17
 1450 2 1450 2 1482 18 c 0,18,19
 1514 34 1514 34 1549 63 c 0,20,21
 1584 92 1584 92 1599 132 c 0,22,23
 1614 172 1614 172 1596 220 c 1,24,25
 1628 236 1628 236 1643 247 c 0,26,27
 1658 258 1658 258 1676 288 c 0,28,29
 1694 318 1694 318 1704 366 c 1,30,31
 1704 422 1704 422 1695 451 c 0,32,33
 1686 480 1686 480 1664 508 c 1,34,35
 1698 540 1698 540 1710 564 c 0,36,37
 1722 588 1722 588 1724 646 c 1,38,39
 1726 664 1726 664 1724 680 c 0,40,41
 1722 696 1722 696 1718 710 c 0,42,43
 1714 724 1714 724 1712 733 c 0,44,45
 1710 742 1710 742 1702 754 c 0,46,47
 1694 766 1694 766 1690 771 c 0,48,49
 1686 776 1686 776 1676 789 c 0,50,51
 1666 802 1666 802 1664 806 c 1,52,53
 1698 874 1698 874 1698 898 c 1,54,55
 1696 924 1696 924 1699 929 c 0,56,57
 1702 934 1702 934 1697 952 c 0,58,59
 1692 970 1692 970 1692 971 c 0,60,61
 1692 972 1692 972 1685 990 c 0,62,63
 1678 1008 1678 1008 1676 1012 c 0,64,65
 1668 1030 1668 1030 1631 1045 c 0,66,67
 1594 1060 1594 1060 1564 1066 c 1,68,69
 1486 1078 1486 1078 1400 1058 c 0,70,71
 1372 1052 1372 1052 1318 1035 c 0,72,73
 1264 1018 1264 1018 1240 1012 c 0,74,75
 1222 1008 1222 1008 1205 1006 c 0,76,77
 1188 1004 1188 1004 1169 1004 c 0,78,79
 1150 1004 1150 1004 1140 1005 c 0,80,81
 1130 1006 1130 1006 1108 1008 c 0,82,83
 1086 1010 1086 1010 1080 1012 c 2,84,-1
 1086 1010 l 1,85,-1
 1122 1004 l 1,86,-1
 1120 1006 l 1,87,88
 1080 1012 1080 1012 1047 1050 c 0,89,90
 1014 1088 1014 1088 1020 1126 c 1,91,92
 1038 1166 1038 1166 1052 1330 c 1,93,94
 1094 1370 1094 1370 1102 1472 c 1,95,-1
 1078 1610 l 1,96,97
 1042 1738 1042 1738 936 1736 c 1,98,99
 892 1734 892 1734 886 1720 c 1,100,-1
 886 1610 l 2,101,102
 886 1474 886 1474 774 1274 c 1,103,-1
 662 1164 l 1,104,105
 638 1130 638 1130 619 1088 c 0,106,107
 600 1046 600 1046 593 1023 c 0,108,109
 586 1000 586 1000 572 940 c 0,110,111
 558 880 558 880 556 870 c 1,112,113
 542 854 542 854 530 838 c 1,114,115
 528 816 528 816 482 809 c 0,116,117
 436 802 436 802 381 806 c 0,118,119
 326 810 326 810 276 806 c 1,120,-1
 276 162 l 1,0,1
EndSplineSet
Validated: 37
EndChar

StartChar: at
Encoding: 11 64 10
Width: 2048
LayerCount: 2
Fore
SplineSet
80 808 m 1,0,-1
 246 808 l 1,1,2
 280 552 280 552 463 370 c 0,3,4
 646 188 646 188 900 154 c 1,5,-1
 900 -12 l 1,6,-1
 1100 -12 l 1,7,-1
 1100 154 l 1,8,9
 1354 188 1354 188 1537 370 c 0,10,11
 1720 552 1720 552 1754 808 c 1,12,-1
 1920 808 l 1,13,-1
 1920 1008 l 1,14,-1
 1754 1008 l 1,15,16
 1720 1262 1720 1262 1537 1445 c 0,17,18
 1354 1628 1354 1628 1100 1662 c 1,19,-1
 1100 1828 l 1,20,-1
 900 1828 l 1,21,-1
 900 1662 l 1,22,23
 646 1628 646 1628 463 1445 c 0,24,25
 280 1262 280 1262 246 1008 c 1,26,-1
 80 1008 l 1,27,-1
 80 808 l 1,0,-1
448 808 m 1,28,-1
 782 808 l 1,29,30
 760 856 760 856 760 908 c 0,31,32
 760 960 760 960 782 1008 c 1,33,-1
 448 1008 l 1,34,35
 480 1180 480 1180 604 1304 c 0,36,37
 728 1428 728 1428 900 1460 c 1,38,-1
 900 1126 l 1,39,40
 948 1148 948 1148 1000 1148 c 0,41,42
 1052 1148 1052 1148 1100 1126 c 1,43,-1
 1100 1460 l 1,44,45
 1272 1428 1272 1428 1396 1304 c 0,46,47
 1520 1180 1520 1180 1552 1008 c 1,48,-1
 1480 1008 l 1,49,-1
 1218 1008 l 1,50,51
 1240 960 1240 960 1240 908 c 0,52,53
 1240 856 1240 856 1218 808 c 1,54,-1
 1480 808 l 1,55,-1
 1552 808 l 1,56,57
 1520 636 1520 636 1396 512 c 0,58,59
 1272 388 1272 388 1100 356 c 1,60,-1
 1100 468 l 1,61,-1
 1100 690 l 1,62,63
 1052 668 1052 668 1000 668 c 0,64,65
 948 668 948 668 900 690 c 1,66,-1
 900 356 l 1,67,68
 728 388 728 388 604 512 c 0,69,70
 480 636 480 636 448 808 c 1,28,-1
EndSplineSet
Validated: 9
EndChar

StartChar: A
Encoding: 12 65 11
Width: 2048
LayerCount: 2
Fore
SplineSet
334 -48 m 1,0,-1
 1694 -48 l 1,1,-1
 1694 638 l 2,2,3
 1694 678 1694 678 1682 714 c 0,4,5
 1670 750 1670 750 1653 777 c 0,6,7
 1636 804 1636 804 1599 834 c 0,8,9
 1562 864 1562 864 1534 883 c 0,10,11
 1506 902 1506 902 1454 928 c 0,12,13
 1402 954 1402 954 1371 968 c 0,14,15
 1340 982 1340 982 1280 1008 c 1,16,17
 1162 912 1162 912 1014 912 c 0,18,19
 858 912 858 912 738 1016 c 1,20,21
 666 988 666 988 621 967 c 0,22,23
 576 946 576 946 518 912 c 0,24,25
 460 878 460 878 426 842 c 0,26,27
 392 806 392 806 366 754 c 0,28,29
 340 702 340 702 334 638 c 1,30,-1
 334 -48 l 1,0,-1
658 1380 m 0,31,32
 658 1528 658 1528 762 1632 c 0,33,34
 866 1736 866 1736 1013 1736 c 0,35,36
 1160 1736 1160 1736 1265 1632 c 0,37,38
 1370 1528 1370 1528 1370 1380 c 0,39,40
 1370 1232 1370 1232 1265 1128 c 0,41,42
 1160 1024 1160 1024 1013 1024 c 0,43,44
 866 1024 866 1024 762 1128 c 0,45,46
 658 1232 658 1232 658 1380 c 0,31,32
EndSplineSet
Validated: 9
EndChar

StartChar: B
Encoding: 13 66 12
Width: 2048
LayerCount: 2
Fore
SplineSet
578 -24 m 1,0,-1
 978 536 l 1,1,-1
 1378 -24 l 1,2,-1
 1378 1376 l 1,3,-1
 1378 1536 l 1,4,-1
 1452 1376 l 1,5,-1
 1618 1376 l 2,6,7
 1685 1376 1685 1376 1685 1397 c 0,8,9
 1685 1412 1685 1412 1658 1436 c 2,10,-1
 1418 1656 l 1,11,12
 1370 1702 1370 1702 1327 1719 c 0,13,14
 1284 1736 1284 1736 1218 1736 c 2,15,-1
 738 1736 l 2,16,17
 672 1736 672 1736 625 1689 c 0,18,19
 578 1642 578 1642 578 1576 c 2,20,-1
 578 1416 l 1,21,-1
 578 -24 l 1,0,-1
EndSplineSet
Validated: 9
EndChar

StartChar: C
Encoding: 14 67 13
Width: 2048
LayerCount: 2
Fore
SplineSet
128 828 m 1,0,1
 130 756 130 756 144 686 c 1,2,-1
 302 610 l 1,3,-1
 226 454 l 1,4,5
 258 390 258 390 304 330 c 1,6,-1
 478 332 l 1,7,-1
 476 158 l 1,8,9
 534 114 534 114 598 80 c 1,10,-1
 756 156 l 1,11,-1
 830 -2 l 1,12,13
 902 -16 902 -16 974 -18 c 1,14,-1
 1082 120 l 1,15,-1
 1218 10 l 1,16,17
 1290 28 1290 28 1356 58 c 1,18,-1
 1394 228 l 1,19,-1
 1564 188 l 1,20,21
 1618 236 1618 236 1666 292 c 1,22,-1
 1626 462 l 1,23,-1
 1796 500 l 1,24,25
 1826 564 1826 564 1844 636 c 1,26,-1
 1734 772 l 1,27,-1
 1872 880 l 1,28,29
 1870 954 1870 954 1856 1024 c 1,30,-1
 1698 1098 l 1,31,-1
 1774 1256 l 1,32,33
 1742 1318 1742 1318 1696 1378 c 1,34,-1
 1522 1376 l 1,35,-1
 1524 1552 l 1,36,37
 1464 1596 1464 1596 1402 1628 c 1,38,-1
 1244 1552 l 1,39,-1
 1170 1710 l 1,40,41
 1098 1724 1098 1724 1026 1726 c 1,42,-1
 918 1588 l 1,43,-1
 782 1698 l 1,44,45
 710 1680 710 1680 644 1650 c 1,46,-1
 606 1480 l 1,47,-1
 436 1520 l 1,48,49
 382 1472 382 1472 334 1418 c 1,50,-1
 374 1248 l 1,51,-1
 204 1210 l 1,52,53
 174 1144 174 1144 156 1072 c 1,54,-1
 266 936 l 1,55,-1
 128 828 l 1,0,1
520 854 m 0,56,57
 520 1052 520 1052 661 1193 c 0,58,59
 802 1334 802 1334 1000 1334 c 0,60,61
 1198 1334 1198 1334 1339 1193 c 0,62,63
 1480 1052 1480 1052 1480 854 c 0,64,65
 1480 656 1480 656 1339 515 c 0,66,67
 1198 374 1198 374 1000 374 c 0,68,69
 802 374 802 374 661 515 c 0,70,71
 520 656 520 656 520 854 c 0,56,57
EndSplineSet
Validated: 9
EndChar

StartChar: D
Encoding: 15 68 14
Width: 2048
LayerCount: 2
Fore
SplineSet
308 54 m 2,0,1
 308 28 308 28 326 10 c 0,2,3
 344 -8 344 -8 370 -8 c 2,4,-1
 1630 -8 l 2,5,6
 1656 -8 1656 -8 1674 10 c 0,7,8
 1692 28 1692 28 1692 54 c 2,9,-1
 1692 1290 l 2,10,11
 1692 1316 1692 1316 1676 1334 c 1,12,-1
 1324 1696 l 1,13,14
 1306 1716 1306 1716 1280 1716 c 2,15,-1
 370 1716 l 2,16,17
 344 1716 344 1716 326 1698 c 0,18,19
 308 1680 308 1680 308 1654 c 2,20,-1
 308 54 l 2,0,1
432 116 m 1,21,-1
 432 1592 l 1,22,-1
 1220 1592 l 1,23,-1
 1220 1270 l 1,24,-1
 1220 1230 l 1,25,-1
 1260 1230 l 1,26,-1
 1568 1230 l 1,27,-1
 1568 116 l 1,28,-1
 432 116 l 1,21,-1
560 294 m 1,29,-1
 1040 294 l 1,30,-1
 1040 414 l 1,31,-1
 560 414 l 1,32,-1
 560 294 l 1,29,-1
560 494 m 1,33,-1
 1360 494 l 1,34,-1
 1360 614 l 1,35,-1
 560 614 l 1,36,-1
 560 494 l 1,33,-1
560 694 m 1,37,-1
 1240 694 l 1,38,-1
 1240 814 l 1,39,-1
 560 814 l 1,40,-1
 560 694 l 1,37,-1
560 894 m 1,41,-1
 1440 894 l 1,42,-1
 1440 1014 l 1,43,-1
 560 1014 l 1,44,-1
 560 894 l 1,41,-1
1300 1310 m 1,45,-1
 1300 1542 l 1,46,-1
 1524 1310 l 1,47,-1
 1300 1310 l 1,45,-1
EndSplineSet
Validated: 9
EndChar

StartChar: E
Encoding: 16 69 15
Width: 2048
LayerCount: 2
Fore
SplineSet
122 58 m 2,0,1
 122 28 122 28 144 7 c 0,2,3
 166 -14 166 -14 196 -14 c 2,4,-1
 1804 -14 l 2,5,6
 1834 -14 1834 -14 1856 7 c 0,7,8
 1878 28 1878 28 1878 58 c 2,9,-1
 1878 1010 l 2,10,11
 1878 1042 1878 1042 1854 1064 c 1,12,13
 1832 1082 1832 1082 1776 1133 c 0,14,15
 1720 1184 1720 1184 1698 1203 c 0,16,17
 1676 1222 1676 1222 1631 1262 c 0,18,19
 1586 1302 1586 1302 1561 1323 c 0,20,21
 1536 1344 1536 1344 1501 1374 c 0,22,23
 1466 1404 1466 1404 1438 1426 c 2,24,-1
 1382 1470 l 1,25,26
 1170 1628 1170 1628 1008 1638 c 1,27,-1
 984 1638 l 1,28,-1
 979 1638 l 2,29,30
 815 1638 815 1638 622 1502 c 1,31,32
 452 1380 452 1380 142 1060 c 0,33,34
 122 1038 122 1038 122 1010 c 2,35,-1
 122 58 l 2,0,1
162 88 m 1,36,-1
 230 28 l 1,37,-1
 802 670 l 1,38,-1
 1198 670 l 1,39,-1
 1770 28 l 1,40,-1
 1838 88 l 1,41,-1
 1388 596 l 1,42,-1
 1834 974 l 1,43,-1
 1776 1044 l 1,44,-1
 1326 664 l 1,45,-1
 1254 748 l 1,46,-1
 1240 762 l 1,47,-1
 1220 762 l 1,48,-1
 780 762 l 1,49,-1
 760 762 l 1,50,-1
 746 748 l 1,51,-1
 674 664 l 1,52,-1
 224 1044 l 1,53,-1
 166 974 l 1,54,-1
 612 596 l 1,55,-1
 162 88 l 1,36,-1
268 132 m 1,56,-1
 268 980 l 1,57,58
 554 1272 554 1272 708 1382 c 1,59,60
 854 1488 854 1488 966 1492 c 0,61,62
 974 1493 974 1493 982 1493 c 2,63,-1
 998 1492 l 2,64,65
 1118 1484 1118 1484 1296 1352 c 1,66,67
 1402 1272 1402 1272 1732 976 c 1,68,-1
 1732 132 l 1,69,-1
 268 132 l 1,56,-1
EndSplineSet
Validated: 5
EndChar

StartChar: F
Encoding: 17 70 16
Width: 2048
LayerCount: 2
Fore
SplineSet
118 -16 m 1,0,-1
 1882 -16 l 1,1,-1
 1882 1092 l 2,2,3
 1882 1144 1882 1144 1846 1180 c 0,4,5
 1810 1216 1810 1216 1760 1216 c 2,6,-1
 240 1216 l 2,7,8
 190 1216 190 1216 154 1180 c 0,9,10
 118 1144 118 1144 118 1092 c 2,11,-1
 118 -16 l 1,0,-1
240 1330 m 2,12,13
 240 1316 240 1316 244 1306 c 1,14,-1
 1756 1306 l 1,15,16
 1760 1316 1760 1316 1760 1330 c 2,17,-1
 1760 1378 l 2,18,19
 1760 1418 1760 1418 1736 1446 c 0,20,21
 1712 1474 1712 1474 1678 1474 c 2,22,-1
 852 1474 l 1,23,-1
 760 1608 l 1,24,-1
 520 1608 l 1,25,-1
 418 1474 l 1,26,-1
 322 1474 l 2,27,28
 288 1474 288 1474 264 1446 c 0,29,30
 240 1418 240 1418 240 1378 c 2,31,-1
 240 1330 l 2,12,13
EndSplineSet
Validated: 9
EndChar

StartChar: G
Encoding: 18 71 17
Width: 2048
LayerCount: 2
Fore
SplineSet
147 434 m 0,0,1
 137 391 137 391 137 350 c 0,2,3
 137 293 137 293 156 240 c 1,4,-1
 362 446 l 1,5,-1
 510 438 l 1,6,-1
 588 360 l 1,7,-1
 596 212 l 1,8,-1
 390 6 l 1,9,10
 444 -13 444 -13 500 -13 c 0,11,12
 541 -13 541 -13 584 -3 c 0,13,14
 686 20 686 20 760 94 c 0,15,16
 832 166 832 166 856 265 c 0,17,18
 867 309 867 309 867 352 c 0,19,20
 867 405 867 405 850 456 c 1,21,22
 1080 772 1080 772 1408 1002 c 1,23,24
 1453 990 1453 990 1498 990 c 0,25,26
 1545 990 1545 990 1593 1003 c 0,27,28
 1686 1028 1686 1028 1756 1098 c 1,29,30
 1830 1170 1830 1170 1853 1272 c 0,31,32
 1863 1315 1863 1315 1863 1356 c 0,33,34
 1863 1413 1863 1413 1844 1466 c 1,35,-1
 1638 1260 l 1,36,-1
 1490 1268 l 1,37,-1
 1412 1346 l 1,38,-1
 1404 1496 l 1,39,-1
 1610 1702 l 1,40,41
 1558 1719 1558 1719 1503 1719 c 0,42,43
 1461 1719 1461 1719 1416 1709 c 0,44,45
 1314 1686 1314 1686 1240 1612 c 1,46,47
 1162 1532 1162 1532 1141 1423 c 0,48,49
 1134 1387 1134 1387 1134 1352 c 0,50,51
 1134 1282 1134 1282 1162 1216 c 1,52,53
 936 896 936 896 646 686 c 1,54,55
 579 716 579 716 505 716 c 0,56,57
 471 716 471 716 436 710 c 0,58,59
 324 690 324 690 244 610 c 0,60,61
 170 536 170 536 147 434 c 0,0,1
EndSplineSet
Validated: 9
EndChar

StartChar: H
Encoding: 19 72 18
Width: 2048
LayerCount: 2
Fore
SplineSet
160 828 m 1,0,-1
 312 828 l 1,1,-1
 1000 1516 l 1,2,-1
 1688 828 l 1,3,-1
 1840 828 l 1,4,-1
 1458 1234 l 1,5,-1
 1458 1360 l 1,6,-1
 1458 1662 l 2,7,8
 1458 1680 1458 1680 1430 1691 c 0,9,10
 1402 1702 1402 1702 1363 1702 c 0,11,12
 1324 1702 1324 1702 1296 1691 c 0,13,14
 1268 1680 1268 1680 1268 1662 c 2,15,-1
 1268 1428 l 1,16,-1
 1000 1702 l 1,17,-1
 160 828 l 1,0,-1
466 -12 m 1,18,-1
 812 -12 l 1,19,20
 810 6 810 6 810 24 c 2,21,-1
 810 296 l 2,22,23
 810 390 810 390 865 456 c 0,24,25
 920 522 920 522 1000 522 c 0,26,27
 1080 522 1080 522 1135 456 c 0,28,29
 1190 390 1190 390 1190 296 c 2,30,-1
 1190 24 l 2,31,32
 1190 6 1190 6 1188 -12 c 1,33,-1
 1534 -12 l 1,34,-1
 1534 638 l 1,35,-1
 1534 850 l 1,36,-1
 1000 1400 l 1,37,-1
 466 850 l 1,38,-1
 466 598 l 1,39,-1
 466 -12 l 1,18,-1
EndSplineSet
Validated: 9
EndChar

StartChar: I
Encoding: 20 73 19
Width: 2048
LayerCount: 2
Fore
SplineSet
120 70 m 2,0,1
 120 34 120 34 145 9 c 0,2,3
 170 -16 170 -16 206 -16 c 2,4,-1
 1794 -16 l 2,5,6
 1830 -16 1830 -16 1855 9 c 0,7,8
 1880 34 1880 34 1880 70 c 2,9,-1
 1880 938 l 2,10,11
 1880 974 1880 974 1855 999 c 0,12,13
 1830 1024 1830 1024 1794 1024 c 2,14,-1
 1680 1024 l 1,15,-1
 1680 1064 l 2,16,17
 1680 1080 1680 1080 1668 1092 c 0,18,19
 1656 1104 1656 1104 1640 1104 c 2,20,-1
 1600 1104 l 1,21,-1
 1460 1104 l 2,22,23
 1450 1104 1450 1104 1440 1108 c 1,24,-1
 1440 1104 l 1,25,-1
 1400 1104 l 2,26,27
 1384 1104 1384 1104 1372 1092 c 0,28,29
 1360 1080 1360 1080 1360 1064 c 2,30,-1
 1360 1024 l 1,31,-1
 934 1024 l 1,32,-1
 840 1304 l 1,33,-1
 440 1304 l 1,34,-1
 346 1024 l 1,35,-1
 206 1024 l 2,36,37
 170 1024 170 1024 145 999 c 0,38,39
 120 974 120 974 120 938 c 2,40,-1
 120 70 l 2,0,1
240 504 m 0,41,42
 240 670 240 670 357 787 c 0,43,44
 474 904 474 904 640 904 c 0,45,46
 806 904 806 904 923 787 c 0,47,48
 1040 670 1040 670 1040 504 c 0,49,50
 1040 338 1040 338 923 221 c 0,51,52
 806 104 806 104 640 104 c 0,53,54
 474 104 474 104 357 221 c 0,55,56
 240 338 240 338 240 504 c 0,41,42
320 504 m 0,57,58
 320 372 320 372 414 278 c 0,59,60
 508 184 508 184 640 184 c 0,61,62
 772 184 772 184 866 278 c 0,63,64
 960 372 960 372 960 504 c 0,65,66
 960 636 960 636 866 730 c 0,67,68
 772 824 772 824 640 824 c 0,69,70
 508 824 508 824 414 730 c 0,71,72
 320 636 320 636 320 504 c 0,57,58
400 504 m 0,73,74
 400 604 400 604 470 674 c 0,75,76
 540 744 540 744 640 744 c 0,77,78
 740 744 740 744 810 674 c 0,79,80
 880 604 880 604 880 504 c 0,81,82
 880 404 880 404 810 334 c 0,83,84
 740 264 740 264 640 264 c 0,85,86
 540 264 540 264 470 334 c 0,87,88
 400 404 400 404 400 504 c 0,73,74
1320 744 m 2,89,-1
 1320 864 l 2,90,91
 1320 880 1320 880 1332 892 c 0,92,93
 1344 904 1344 904 1360 904 c 2,94,-1
 1680 904 l 2,95,96
 1696 904 1696 904 1708 892 c 0,97,98
 1720 880 1720 880 1720 864 c 2,99,-1
 1720 744 l 2,100,101
 1720 728 1720 728 1708 716 c 0,102,103
 1696 704 1696 704 1680 704 c 2,104,-1
 1360 704 l 2,105,106
 1344 704 1344 704 1332 716 c 0,107,108
 1320 728 1320 728 1320 744 c 2,89,-1
EndSplineSet
Validated: 9
EndChar

StartChar: J
Encoding: 21 74 20
Width: 2048
LayerCount: 2
Fore
SplineSet
198 64 m 2,0,1
 198 30 198 30 221 7 c 0,2,3
 244 -16 244 -16 278 -16 c 2,4,-1
 1718 -16 l 2,5,6
 1750 -16 1750 -16 1774 7 c 0,7,8
 1798 30 1798 30 1798 64 c 2,9,-1
 1800 384 l 1,10,-1
 1800 424 l 1,11,-1
 1800 1544 l 2,12,13
 1800 1578 1800 1578 1777 1601 c 0,14,15
 1754 1624 1754 1624 1720 1624 c 2,16,-1
 1520 1624 l 1,17,-1
 1520 1706 l 2,18,19
 1520 1722 1520 1722 1509 1733 c 0,20,21
 1498 1744 1498 1744 1482 1744 c 2,22,-1
 1398 1744 l 2,23,24
 1382 1744 1382 1744 1371 1733 c 0,25,26
 1360 1722 1360 1722 1360 1706 c 2,27,-1
 1360 1624 l 1,28,-1
 1224 1624 l 1,29,-1
 1224 1698 l 2,30,31
 1224 1716 1224 1716 1210 1730 c 0,32,33
 1196 1744 1196 1744 1178 1744 c 2,34,-1
 1110 1744 l 2,35,36
 1092 1744 1092 1744 1078 1730 c 0,37,38
 1064 1716 1064 1716 1064 1698 c 2,39,-1
 1064 1624 l 1,40,-1
 944 1624 l 1,41,-1
 944 1698 l 2,42,43
 944 1716 944 1716 930 1730 c 0,44,45
 916 1744 916 1744 898 1744 c 2,46,-1
 830 1744 l 2,47,48
 812 1744 812 1744 798 1730 c 0,49,50
 784 1716 784 1716 784 1698 c 2,51,-1
 784 1624 l 1,52,-1
 640 1624 l 1,53,-1
 640 1706 l 2,54,55
 640 1722 640 1722 629 1733 c 0,56,57
 618 1744 618 1744 602 1744 c 2,58,-1
 518 1744 l 2,59,60
 502 1744 502 1744 491 1733 c 0,61,62
 480 1722 480 1722 480 1706 c 2,63,-1
 480 1624 l 1,64,-1
 280 1624 l 2,65,66
 246 1624 246 1624 223 1601 c 0,67,68
 200 1578 200 1578 200 1544 c 2,69,-1
 200 424 l 1,70,-1
 198 64 l 2,0,1
358 182 m 2,71,-1
 360 384 l 1,72,-1
 360 424 l 1,73,-1
 360 1426 l 2,74,75
 360 1442 360 1442 371 1453 c 0,76,77
 382 1464 382 1464 398 1464 c 2,78,-1
 480 1464 l 1,79,-1
 480 1382 l 2,80,81
 480 1366 480 1366 491 1355 c 0,82,83
 502 1344 502 1344 518 1344 c 2,84,-1
 602 1344 l 2,85,86
 618 1344 618 1344 629 1355 c 0,87,88
 640 1366 640 1366 640 1382 c 2,89,-1
 640 1464 l 1,90,-1
 784 1464 l 1,91,-1
 784 1390 l 2,92,93
 784 1372 784 1372 798 1358 c 0,94,95
 812 1344 812 1344 830 1344 c 2,96,-1
 898 1344 l 2,97,98
 916 1344 916 1344 930 1358 c 0,99,100
 944 1372 944 1372 944 1390 c 2,101,-1
 944 1464 l 1,102,-1
 1064 1464 l 1,103,-1
 1064 1390 l 2,104,105
 1064 1372 1064 1372 1078 1358 c 0,106,107
 1092 1344 1092 1344 1110 1344 c 2,108,-1
 1178 1344 l 2,109,110
 1196 1344 1196 1344 1210 1358 c 0,111,112
 1224 1372 1224 1372 1224 1390 c 2,113,-1
 1224 1464 l 1,114,-1
 1360 1464 l 1,115,-1
 1360 1382 l 2,116,117
 1360 1366 1360 1366 1371 1355 c 0,118,119
 1382 1344 1382 1344 1398 1344 c 2,120,-1
 1482 1344 l 2,121,122
 1498 1344 1498 1344 1509 1355 c 0,123,124
 1520 1366 1520 1366 1520 1382 c 2,125,-1
 1520 1464 l 1,126,-1
 1602 1464 l 2,127,128
 1618 1464 1618 1464 1629 1453 c 0,129,130
 1640 1442 1640 1442 1640 1426 c 2,131,-1
 1640 424 l 1,132,-1
 1638 182 l 2,133,134
 1638 166 1638 166 1627 155 c 0,135,136
 1616 144 1616 144 1600 144 c 2,137,-1
 396 144 l 2,138,139
 380 144 380 144 369 155 c 0,140,141
 358 166 358 166 358 182 c 2,71,-1
480 304 m 1,142,-1
 1080 304 l 1,143,-1
 1080 424 l 1,144,-1
 480 424 l 1,145,-1
 480 304 l 1,142,-1
480 504 m 1,146,-1
 1440 504 l 1,147,-1
 1440 624 l 1,148,-1
 480 624 l 1,149,-1
 480 504 l 1,146,-1
480 704 m 1,150,-1
 1320 704 l 1,151,-1
 1320 824 l 1,152,-1
 480 824 l 1,153,-1
 480 704 l 1,150,-1
480 904 m 1,154,-1
 1200 904 l 1,155,-1
 1200 1024 l 1,156,-1
 480 1024 l 1,157,-1
 480 904 l 1,154,-1
480 1104 m 1,158,-1
 1520 1104 l 1,159,-1
 1520 1224 l 1,160,-1
 480 1224 l 1,161,-1
 480 1104 l 1,158,-1
EndSplineSet
Validated: 9
EndChar

StartChar: K
Encoding: 22 75 21
Width: 2048
LayerCount: 2
Fore
SplineSet
546 444 m 0,0,1
 546 256 546 256 679 122 c 0,2,3
 812 -12 812 -12 1000 -12 c 0,4,5
 1188 -12 1188 -12 1321 122 c 0,6,7
 1454 256 1454 256 1454 444 c 0,8,9
 1454 590 1454 590 1370 707 c 0,10,11
 1286 824 1286 824 1152 872 c 1,12,-1
 1152 1542 l 1,13,-1
 1114 1604 l 1,14,-1
 1044 1720 l 1,15,-1
 1044 1718 l 1,16,-1
 1044 1720 l 1,17,-1
 1038 1732 l 1,18,-1
 886 1542 l 1,19,-1
 888 1540 l 1,20,-1
 864 1514 l 1,21,-1
 928 1428 l 1,22,-1
 928 1342 l 1,23,-1
 868 1300 l 1,24,-1
 868 1114 l 1,25,-1
 772 1024 l 1,26,-1
 772 838 l 1,27,28
 670 778 670 778 608 673 c 0,29,30
 546 568 546 568 546 444 c 0,0,1
868 254 m 0,31,32
 868 308 868 308 907 347 c 0,33,34
 946 386 946 386 1000 386 c 0,35,36
 1054 386 1054 386 1093 347 c 0,37,38
 1132 308 1132 308 1132 254 c 0,39,40
 1132 200 1132 200 1093 161 c 0,41,42
 1054 122 1054 122 1000 122 c 0,43,44
 946 122 946 122 907 161 c 0,45,46
 868 200 868 200 868 254 c 0,31,32
1310 640 m 1,47,-1
 1312 642 l 1,48,-1
 1312 640 l 1,49,-1
 1310 640 l 1,47,-1
EndSplineSet
Validated: 5
EndChar

StartChar: L
Encoding: 23 76 22
Width: 2048
LayerCount: 2
Fore
SplineSet
240 6 m 1,0,1
 244 -10 244 -10 259 -13 c 0,2,3
 268 -15 268 -15 280 -15 c 0,4,5
 288 -15 288 -15 297 -14 c 0,6,7
 320 -12 320 -12 330 -14 c 1,8,-1
 1740 -14 l 1,9,10
 1756 -8 1756 -8 1759 7 c 0,11,12
 1761 16 1761 16 1761 28 c 0,13,14
 1761 36 1761 36 1760 44 c 0,15,16
 1758 66 1758 66 1760 76 c 1,17,-1
 1760 508 l 1,18,-1
 1760 940 l 1,19,-1
 1760 950 l 2,20,21
 1760 969 1760 969 1754 974 c 0,22,23
 1746 980 1746 980 1722 980 c 2,24,-1
 1710 980 l 1,25,-1
 1658 980 l 1,26,-1
 1600 980 l 1,27,-1
 1600 1051 l 1,28,-1
 1600 1129 l 2,29,30
 1600 1154 1600 1154 1597 1201 c 0,31,32
 1594 1248 1594 1248 1588 1279 c 0,33,34
 1582 1310 1582 1310 1571 1348 c 0,35,36
 1560 1386 1560 1386 1542 1418 c 1,37,38
 1472 1566 1472 1566 1327 1656 c 0,39,40
 1182 1746 1182 1746 1016 1746 c 0,41,42
 1000 1746 1000 1746 984 1744 c 1,43,-1
 973 1744 l 2,44,45
 776 1744 776 1744 614 1609 c 0,46,47
 448 1470 448 1470 416 1270 c 0,48,49
 410 1228 410 1228 409 1179 c 0,50,51
 409 1155 409 1155 408.5 1127.5 c 0,52,53
 408 1100 408 1100 409 1070 c 0,54,55
 410 1010 410 1010 410 980 c 1,56,-1
 361 980 l 1,57,-1
 306 980 l 1,58,-1
 260 980 l 2,59,60
 246 980 246 980 242 973 c 0,61,62
 239 968 239 968 239 960 c 0,63,64
 239 950 239 950 239.5 926.5 c 0,65,66
 240 903 240 903 240 892 c 2,67,-1
 240 6 l 1,0,1
599 1077 m 0,68,69
 599 1109 599 1109 598.5 1133.5 c 0,70,71
 598 1158 598 1158 599 1176 c 0,72,73
 600 1212 600 1212 612 1262 c 0,74,75
 624 1312 624 1312 646 1352 c 1,76,77
 694 1444 694 1444 787 1499 c 0,78,79
 877 1552 877 1552 977 1552 c 2,80,-1
 984 1552 l 1,81,82
 998 1554 998 1554 1014 1554 c 0,83,84
 1124 1554 1124 1554 1221 1498 c 0,85,86
 1318 1442 1318 1442 1366 1344 c 0,87,88
 1386 1304 1386 1304 1396 1255 c 0,89,90
 1406 1206 1406 1206 1407 1170 c 0,91,92
 1407 1152 1407 1152 1407.5 1128 c 0,93,94
 1408 1104 1408 1104 1407 1075 c 1,95,-1
 1407 1039 l 2,96,97
 1407 1006 1407 1006 1408 986 c 1,98,-1
 600 986 l 1,99,100
 600 1014 600 1014 599 1077 c 0,68,69
840 568 m 0,101,102
 840 612 840 612 864 650 c 1,103,104
 878 678 878 678 904 696 c 1,105,106
 946 730 946 730 1000 730 c 2,107,-1
 1010 730 l 2,108,109
 1070 730 1070 730 1108 682 c 1,110,111
 1160 636 1160 636 1160 568 c 0,112,113
 1160 522 1160 522 1134 483 c 0,114,115
 1108 444 1108 444 1068 426 c 1,116,117
 1068 418 1068 418 1070 410 c 2,118,-1
 1110 214 l 1,119,-1
 880 214 l 1,120,-1
 920 400 l 2,121,122
 924 416 924 416 924 430 c 1,123,124
 886 450 886 450 863 487 c 0,125,126
 840 524 840 524 840 568 c 0,101,102
EndSplineSet
Validated: 9
EndChar

StartChar: M
Encoding: 24 77 23
Width: 2048
LayerCount: 2
Fore
SplineSet
132 166 m 0,0,1
 131 155 131 155 131 145 c 0,2,3
 131 79 131 79 176 35 c 0,4,5
 222 -10 222 -10 289 -10 c 0,6,7
 298 -10 298 -10 308 -9 c 0,8,9
 388 -2 388 -2 450 60 c 2,10,-1
 812 422 l 2,11,12
 882 492 882 492 882 580 c 1,13,14
 886 604 886 604 882 630 c 1,15,-1
 966 714 l 1,16,17
 1115 600 1115 600 1303 600 c 0,18,19
 1322 600 1322 600 1342 601 c 0,20,21
 1554 614 1554 614 1704 764 c 1,22,23
 1868 930 1868 930 1868 1163 c 0,24,25
 1868 1396 1868 1396 1704 1560 c 0,26,27
 1540 1724 1540 1724 1307 1724 c 0,28,29
 1074 1724 1074 1724 908 1560 c 1,30,31
 760 1410 760 1410 745 1200 c 0,32,33
 743 1178 743 1178 743 1156 c 0,34,35
 743 973 743 973 856 824 c 1,36,-1
 768 738 l 1,37,38
 758 740 758 740 746 740 c 1,39,40
 733 742 733 742 720 742 c 0,41,42
 633 742 633 742 564 670 c 1,43,-1
 202 310 l 1,44,45
 140 246 140 246 132 166 c 0,0,1
908 1163 m 0,46,47
 908 1328 908 1328 1025 1444 c 0,48,49
 1142 1560 1142 1560 1307 1560 c 0,50,51
 1472 1560 1472 1560 1588 1444 c 0,52,53
 1704 1328 1704 1328 1704 1163 c 0,54,55
 1704 998 1704 998 1588 881 c 0,56,57
 1472 764 1472 764 1307 764 c 0,58,59
 1142 764 1142 764 1025 881 c 0,60,61
 908 998 908 998 908 1163 c 0,46,47
EndSplineSet
Validated: 9
EndChar

StartChar: N
Encoding: 25 78 24
Width: 2048
LayerCount: 2
Fore
SplineSet
120 872 m 0,0,1
 120 692 120 692 190 530 c 0,2,3
 260 368 260 368 378 250 c 0,4,5
 496 132 496 132 658 62 c 0,6,7
 820 -8 820 -8 1000 -8 c 0,8,9
 1364 -8 1364 -8 1622 250 c 0,10,11
 1880 508 1880 508 1880 872 c 0,12,13
 1880 1052 1880 1052 1810 1214 c 0,14,15
 1740 1376 1740 1376 1622 1494 c 0,16,17
 1504 1612 1504 1612 1342 1682 c 0,18,19
 1180 1752 1180 1752 1000 1752 c 0,20,21
 820 1752 820 1752 658 1682 c 0,22,23
 496 1612 496 1612 378 1494 c 0,24,25
 260 1376 260 1376 190 1214 c 0,26,27
 120 1052 120 1052 120 872 c 0,0,1
300 872 m 0,28,29
 300 1062 300 1062 394 1223 c 0,30,31
 488 1384 488 1384 649 1478 c 0,32,33
 810 1572 810 1572 1000 1572 c 0,34,35
 1190 1572 1190 1572 1351 1478 c 0,36,37
 1512 1384 1512 1384 1606 1223 c 0,38,39
 1700 1062 1700 1062 1700 872 c 0,40,41
 1700 582 1700 582 1495 377 c 0,42,43
 1290 172 1290 172 1000 172 c 0,44,45
 810 172 810 172 649 266 c 0,46,47
 488 360 488 360 394 521 c 0,48,49
 300 682 300 682 300 872 c 0,28,29
480 872 m 1,50,-1
 580 812 l 1,51,-1
 780 812 l 1,52,-1
 780 932 l 1,53,-1
 580 932 l 1,54,-1
 480 872 l 1,50,-1
542 872 m 1,55,-1
 762 822 l 1,56,57
 774 764 774 764 812 718 c 0,58,59
 850 672 850 672 904 650 c 1,60,-1
 1000 232 l 1,61,-1
 1096 650 l 1,62,63
 1150 672 1150 672 1188 719 c 0,64,65
 1226 766 1226 766 1238 824 c 1,66,-1
 1458 872 l 1,67,-1
 1238 920 l 1,68,69
 1226 980 1226 980 1186 1028 c 0,70,71
 1146 1076 1146 1076 1088 1098 c 1,72,-1
 1026 1392 l 1,73,-1
 1000 1512 l 1,74,-1
 974 1392 l 1,75,-1
 912 1098 l 1,76,77
 854 1076 854 1076 815 1029 c 0,78,79
 776 982 776 982 762 922 c 1,80,-1
 542 872 l 1,55,-1
826 1329 m 0,81,82
 825 1326 825 1326 825 1324 c 0,83,84
 825 1319 825 1319 831 1316 c 0,85,86
 840 1312 840 1312 860 1312 c 2,87,-1
 1140 1312 l 2,88,89
 1162 1312 1162 1312 1170 1317 c 0,90,91
 1178 1322 1178 1322 1173 1332 c 0,92,93
 1168 1342 1168 1342 1161 1350 c 0,94,95
 1154 1358 1154 1358 1140 1372 c 2,96,-1
 1000 1512 l 1,97,-1
 860 1372 l 1,98,99
 844 1354 844 1354 837 1346 c 0,100,101
 830 1338 830 1338 826 1329 c 0,81,82
833 423 m 0,102,103
 829 419 829 419 829 414 c 0,104,105
 829 407 829 407 837 397 c 0,106,107
 850 380 850 380 872 358 c 1,108,109
 878 354 878 354 880 352 c 2,110,-1
 1002 232 l 1,111,-1
 1120 352 l 1,112,113
 1170 408 1170 408 1170 418 c 0,114,115
 1170 432 1170 432 1120 432 c 2,116,-1
 880 432 l 2,117,118
 842 432 842 432 833 423 c 0,102,103
890 872 m 0,119,120
 890 918 890 918 922 950 c 0,121,122
 954 982 954 982 1000 982 c 0,123,124
 1046 982 1046 982 1078 950 c 0,125,126
 1110 918 1110 918 1110 872 c 0,127,128
 1110 826 1110 826 1078 794 c 0,129,130
 1046 762 1046 762 1000 762 c 0,131,132
 954 762 954 762 922 794 c 0,133,134
 890 826 890 826 890 872 c 0,119,120
1220 812 m 1,135,-1
 1420 812 l 1,136,-1
 1520 872 l 1,137,-1
 1420 932 l 1,138,-1
 1220 932 l 1,139,-1
 1220 812 l 1,135,-1
EndSplineSet
Validated: 5
EndChar

StartChar: O
Encoding: 26 79 25
Width: 2048
LayerCount: 2
Fore
SplineSet
120 188 m 2,0,1
 120 104 120 104 178 46 c 0,2,3
 236 -12 236 -12 320 -12 c 2,4,-1
 1680 -12 l 2,5,6
 1764 -12 1764 -12 1822 46 c 0,7,8
 1880 104 1880 104 1880 188 c 2,9,-1
 1880 1548 l 2,10,11
 1880 1632 1880 1632 1822 1690 c 0,12,13
 1764 1748 1764 1748 1680 1748 c 2,14,-1
 320 1748 l 2,15,16
 236 1748 236 1748 178 1690 c 0,17,18
 120 1632 120 1632 120 1548 c 2,19,-1
 120 188 l 2,0,1
378 778 m 1,20,-1
 508 1000 l 1,21,22
 534 978 534 978 607 913 c 0,23,24
 680 848 680 848 738 796 c 0,25,26
 796 744 796 744 844 700 c 1,27,28
 952 910 952 910 1119 1099 c 0,29,30
 1286 1288 1286 1288 1520 1506 c 1,31,-1
 1640 1306 l 1,32,33
 1412 1096 1412 1096 1258 889 c 0,34,35
 1104 682 1104 682 1006 430 c 1,36,-1
 924 222 l 1,37,-1
 780 398 l 2,38,39
 736 452 736 452 683 504 c 0,40,41
 630 556 630 556 592 590 c 0,42,43
 554 624 554 624 485 683 c 0,44,45
 416 742 416 742 378 778 c 1,20,-1
EndSplineSet
Validated: 9
EndChar

StartChar: P
Encoding: 27 80 26
Width: 2048
LayerCount: 2
Fore
SplineSet
500 1250 m 0,0,1
 500 1136 500 1136 549 1035 c 0,2,3
 598 934 598 934 682 864 c 1,4,-1
 1000 -10 l 1,5,-1
 1318 864 l 1,6,7
 1402 934 1402 934 1451 1035 c 0,8,9
 1500 1136 1500 1136 1500 1250 c 0,10,11
 1500 1458 1500 1458 1354 1604 c 0,12,13
 1208 1750 1208 1750 1000 1750 c 0,14,15
 792 1750 792 1750 646 1604 c 0,16,17
 500 1458 500 1458 500 1250 c 0,0,1
860 1250 m 0,18,19
 860 1308 860 1308 901 1349 c 0,20,21
 942 1390 942 1390 1000 1390 c 0,22,23
 1058 1390 1058 1390 1099 1349 c 0,24,25
 1140 1308 1140 1308 1140 1250 c 0,26,27
 1140 1192 1140 1192 1099 1151 c 0,28,29
 1058 1110 1058 1110 1000 1110 c 0,30,31
 942 1110 942 1110 901 1151 c 0,32,33
 860 1192 860 1192 860 1250 c 0,18,19
EndSplineSet
Validated: 9
EndChar

StartChar: Q
Encoding: 28 81 27
Width: 2048
LayerCount: 2
Fore
SplineSet
120 188 m 2,0,1
 120 104 120 104 178 46 c 0,2,3
 236 -12 236 -12 320 -12 c 2,4,-1
 1680 -12 l 2,5,6
 1764 -12 1764 -12 1822 46 c 0,7,8
 1880 104 1880 104 1880 188 c 2,9,-1
 1880 1548 l 2,10,11
 1880 1632 1880 1632 1822 1690 c 0,12,13
 1764 1748 1764 1748 1680 1748 c 2,14,-1
 320 1748 l 2,15,16
 236 1748 236 1748 178 1690 c 0,17,18
 120 1632 120 1632 120 1548 c 2,19,-1
 120 188 l 2,0,1
570 1210 m 1,20,21
 594 1394 594 1394 706 1492 c 0,22,23
 820 1592 820 1592 1004 1592 c 0,24,25
 1198 1592 1198 1592 1316 1486 c 1,26,27
 1434 1378 1434 1378 1434 1224 c 0,28,29
 1434 1134 1434 1134 1392 1058 c 1,30,31
 1350 986 1350 986 1236 884 c 0,32,33
 1164 820 1164 820 1142 790 c 0,34,35
 1122 764 1122 764 1114 728 c 1,36,37
 1104 692 1104 692 1102 604 c 1,38,-1
 1102 602 l 1,39,40
 1100 550 1100 550 1066 522 c 1,41,42
 1040 499 1040 499 1005 499 c 0,43,44
 1000 499 1000 499 994 500 c 0,45,46
 954 504 954 504 924 530 c 1,47,48
 894 560 894 560 894 602 c 2,49,-1
 894 650 l 2,50,51
 894 744 894 744 922 816 c 0,52,53
 942 870 942 870 986 924 c 0,54,55
 1018 962 1018 962 1100 1034 c 0,56,57
 1176 1100 1176 1100 1196 1138 c 1,58,59
 1216 1172 1216 1172 1216 1214 c 0,60,61
 1216 1290 1216 1290 1156 1349 c 0,62,63
 1096 1408 1096 1408 1006 1408 c 0,64,65
 920 1408 920 1408 864 1354 c 1,66,67
 806 1300 806 1300 786 1180 c 1,68,69
 780 1130 780 1130 743 1099 c 0,70,71
 710 1072 710 1072 670 1072 c 2,72,-1
 660 1072 l 1,73,74
 612 1074 612 1074 586 1110 c 0,75,76
 566 1138 566 1138 566 1176 c 0,77,78
 566 1192 566 1192 570 1210 c 1,20,21
860 279 m 0,79,80
 860 338 860 338 902 380 c 0,81,82
 944 422 944 422 1003 422 c 0,83,84
 1062 422 1062 422 1104 380 c 0,85,86
 1146 338 1146 338 1146 279 c 0,87,88
 1146 220 1146 220 1104 178 c 0,89,90
 1062 136 1062 136 1003 136 c 0,91,92
 944 136 944 136 902 178 c 0,93,94
 860 220 860 220 860 279 c 0,79,80
EndSplineSet
Validated: 9
EndChar

StartChar: R
Encoding: 29 82 28
Width: 2048
LayerCount: 2
Fore
SplineSet
120 168 m 2,0,1
 120 84 120 84 178 26 c 0,2,3
 236 -32 236 -32 320 -32 c 2,4,-1
 1680 -32 l 2,5,6
 1764 -32 1764 -32 1822 26 c 0,7,8
 1880 84 1880 84 1880 168 c 2,9,-1
 1880 1528 l 2,10,11
 1880 1612 1880 1612 1822 1670 c 0,12,13
 1764 1728 1764 1728 1680 1728 c 2,14,-1
 320 1728 l 2,15,16
 236 1728 236 1728 178 1670 c 0,17,18
 120 1612 120 1612 120 1528 c 2,19,-1
 120 168 l 2,0,1
400 404 m 0,20,21
 400 470 400 470 447 517 c 0,22,23
 494 564 494 564 560 564 c 0,24,25
 626 564 626 564 673 517 c 0,26,27
 720 470 720 470 720 404 c 0,28,29
 720 338 720 338 673 291 c 0,30,31
 626 244 626 244 560 244 c 0,32,33
 494 244 494 244 447 291 c 0,34,35
 400 338 400 338 400 404 c 0,20,21
456 1216 m 1,36,-1
 464 1476 l 1,37,38
 700 1468 700 1468 914 1370 c 0,39,40
 1128 1272 1128 1272 1283 1112 c 0,41,42
 1438 952 1438 952 1529 734 c 0,43,44
 1620 516 1620 516 1620 276 c 2,45,-1
 1620 240 l 1,46,-1
 1362 248 l 1,47,-1
 1362 276 l 2,48,49
 1362 528 1362 528 1241 742 c 0,50,51
 1120 956 1120 956 912 1083 c 0,52,53
 704 1210 704 1210 456 1216 c 1,36,-1
458 762 m 1,54,-1
 470 1022 l 1,55,56
 664 1012 664 1012 825 910 c 0,57,58
 986 808 986 808 1080 640 c 0,59,60
 1174 472 1174 472 1174 276 c 0,61,62
 1174 256 1174 256 1172 238 c 1,63,-1
 914 252 l 1,64,-1
 914 276 l 2,65,66
 914 472 914 472 782 612 c 0,67,68
 650 752 650 752 458 762 c 1,54,-1
EndSplineSet
Validated: 9
EndChar

StartChar: S
Encoding: 30 83 29
Width: 2048
LayerCount: 2
Fore
SplineSet
154 726 m 0,0,1
 154 714 154 714 158 704 c 2,2,-1
 432 24 l 2,3,4
 438 8 438 8 454 -3 c 0,5,6
 470 -14 470 -14 488 -14 c 2,7,-1
 1512 -14 l 2,8,9
 1530 -14 1530 -14 1546 -3 c 0,10,11
 1562 8 1562 8 1568 24 c 2,12,-1
 1842 704 l 2,13,14
 1846 714 1846 714 1846 726 c 0,15,16
 1846 750 1846 750 1828 768 c 0,17,18
 1810 786 1810 786 1786 786 c 2,19,-1
 214 786 l 2,20,21
 190 786 190 786 172 768 c 0,22,23
 154 750 154 750 154 726 c 0,0,1
302 666 m 1,24,-1
 1698 666 l 1,25,-1
 1472 106 l 1,26,-1
 528 106 l 1,27,-1
 302 666 l 1,24,-1
350 454 m 1,28,-1
 1650 454 l 1,29,-1
 1650 522 l 1,30,-1
 350 522 l 1,31,-1
 350 454 l 1,28,-1
372 748 m 1,32,-1
 466 704 l 1,33,-1
 656 1118 l 1,34,-1
 1344 1118 l 1,35,-1
 1534 704 l 1,36,-1
 1628 748 l 1,37,-1
 1422 1190 l 2,38,39
 1408 1220 1408 1220 1376 1220 c 2,40,-1
 624 1220 l 2,41,42
 592 1220 592 1220 578 1190 c 2,43,-1
 372 748 l 1,32,-1
416 290 m 1,44,-1
 484 290 l 1,45,-1
 484 700 l 1,46,-1
 416 700 l 1,47,-1
 416 290 l 1,44,-1
420 250 m 1,48,-1
 1580 250 l 1,49,-1
 1580 318 l 1,50,-1
 420 318 l 1,51,-1
 420 250 l 1,48,-1
658 46 m 1,52,-1
 726 46 l 1,53,-1
 726 726 l 1,54,-1
 658 726 l 1,55,-1
 658 46 l 1,52,-1
770 1100 m 2,56,57
 770 1088 770 1088 778 1080 c 0,58,59
 786 1072 786 1072 798 1072 c 2,60,-1
 1208 1072 l 2,61,62
 1220 1072 1220 1072 1228 1080 c 0,63,64
 1236 1088 1236 1088 1236 1100 c 2,65,-1
 1236 1236 l 2,66,67
 1236 1248 1236 1248 1228 1256 c 0,68,69
 1220 1264 1220 1264 1208 1264 c 2,70,-1
 798 1264 l 2,71,72
 786 1264 786 1264 778 1256 c 0,73,74
 770 1248 770 1248 770 1236 c 2,75,-1
 770 1100 l 2,56,57
826 1128 m 1,76,-1
 826 1208 l 1,77,-1
 1180 1208 l 1,78,-1
 1180 1128 l 1,79,-1
 826 1128 l 1,76,-1
966 46 m 1,80,-1
 1034 46 l 1,81,-1
 1034 726 l 1,82,-1
 966 726 l 1,83,-1
 966 46 l 1,80,-1
1240 46 m 1,84,-1
 1308 46 l 1,85,-1
 1308 726 l 1,86,-1
 1240 726 l 1,87,-1
 1240 46 l 1,84,-1
1512 114 m 1,88,-1
 1580 114 l 1,89,-1
 1580 726 l 1,90,-1
 1512 726 l 1,91,-1
 1512 114 l 1,88,-1
EndSplineSet
Validated: 5
EndChar

StartChar: T
Encoding: 31 84 30
Width: 2048
LayerCount: 2
Fore
SplineSet
280 716 m 0,0,1
 280 520 280 520 376 354 c 0,2,3
 472 188 472 188 638 92 c 0,4,5
 804 -4 804 -4 1000 -4 c 0,6,7
 1196 -4 1196 -4 1362 92 c 0,8,9
 1528 188 1528 188 1624 354 c 0,10,11
 1720 520 1720 520 1720 716 c 0,12,13
 1720 980 1720 980 1549 1181 c 0,14,15
 1378 1382 1378 1382 1120 1426 c 1,16,-1
 1120 1548 l 1,17,-1
 1130 1548 l 2,18,19
 1160 1548 1160 1548 1180 1568 c 0,20,21
 1200 1588 1200 1588 1200 1618 c 0,22,23
 1200 1648 1200 1648 1180 1668 c 0,24,25
 1160 1688 1160 1688 1130 1688 c 2,26,-1
 870 1688 l 2,27,28
 840 1688 840 1688 820 1668 c 0,29,30
 800 1648 800 1648 800 1618 c 0,31,32
 800 1588 800 1588 820 1568 c 0,33,34
 840 1548 840 1548 870 1548 c 2,35,-1
 880 1548 l 1,36,-1
 880 1426 l 1,37,38
 622 1382 622 1382 451 1181 c 0,39,40
 280 980 280 980 280 716 c 0,0,1
428 715 m 0,41,42
 428 952 428 952 595 1120 c 0,43,44
 762 1288 762 1288 1000 1288 c 0,45,46
 1238 1288 1238 1288 1405 1120 c 0,47,48
 1572 952 1572 952 1572 715 c 0,49,50
 1572 478 1572 478 1405 310 c 0,51,52
 1238 142 1238 142 1000 142 c 0,53,54
 762 142 762 142 595 310 c 0,55,56
 428 478 428 478 428 715 c 0,41,42
934 674 m 2,57,58
 934 658 934 658 946 646 c 0,59,60
 958 634 958 634 976 634 c 2,61,-1
 984 634 l 1,62,-1
 1000 634 l 1,63,-1
 1040 634 l 1,64,-1
 1302 860 l 1,65,-1
 1332 972 l 1,66,-1
 1216 958 l 1,67,-1
 1066 826 l 1,68,-1
 1066 1126 l 1,69,-1
 1000 1222 l 1,70,-1
 934 1126 l 1,71,-1
 934 698 l 1,72,-1
 934 682 l 1,73,-1
 934 674 l 2,57,58
EndSplineSet
Validated: 9
EndChar

StartChar: U
Encoding: 32 85 31
Width: 2048
LayerCount: 2
Fore
SplineSet
320 52 m 2,0,1
 320 26 320 26 339 7 c 0,2,3
 358 -12 358 -12 384 -12 c 2,4,-1
 1616 -12 l 2,5,6
 1642 -12 1642 -12 1661 7 c 0,7,8
 1680 26 1680 26 1680 52 c 2,9,-1
 1680 1604 l 2,10,11
 1680 1630 1680 1630 1661 1649 c 0,12,13
 1642 1668 1642 1668 1616 1668 c 2,14,-1
 384 1668 l 2,15,16
 358 1668 358 1668 339 1649 c 0,17,18
 320 1630 320 1630 320 1604 c 2,19,-1
 320 52 l 2,0,1
480 1268 m 1,20,-1
 480 1508 l 1,21,-1
 1520 1508 l 1,22,-1
 1520 1268 l 1,23,-1
 480 1268 l 1,20,-1
560 148 m 1,24,-1
 560 308 l 1,25,-1
 720 308 l 1,26,-1
 720 148 l 1,27,-1
 560 148 l 1,24,-1
560 388 m 1,28,-1
 560 548 l 1,29,-1
 720 548 l 1,30,-1
 720 388 l 1,31,-1
 560 388 l 1,28,-1
560 628 m 1,32,-1
 560 788 l 1,33,-1
 720 788 l 1,34,-1
 720 628 l 1,35,-1
 560 628 l 1,32,-1
560 868 m 1,36,-1
 560 1028 l 1,37,-1
 720 1028 l 1,38,-1
 720 868 l 1,39,-1
 560 868 l 1,36,-1
800 148 m 1,40,-1
 800 308 l 1,41,-1
 960 308 l 1,42,-1
 960 148 l 1,43,-1
 800 148 l 1,40,-1
800 388 m 1,44,-1
 800 548 l 1,45,-1
 960 548 l 1,46,-1
 960 388 l 1,47,-1
 800 388 l 1,44,-1
800 628 m 1,48,-1
 800 788 l 1,49,-1
 960 788 l 1,50,-1
 960 628 l 1,51,-1
 800 628 l 1,48,-1
800 868 m 1,52,-1
 800 1028 l 1,53,-1
 960 1028 l 1,54,-1
 960 868 l 1,55,-1
 800 868 l 1,52,-1
1040 148 m 1,56,-1
 1040 308 l 1,57,-1
 1200 308 l 1,58,-1
 1200 148 l 1,59,-1
 1040 148 l 1,56,-1
1040 388 m 1,60,-1
 1040 548 l 1,61,-1
 1200 548 l 1,62,-1
 1200 388 l 1,63,-1
 1040 388 l 1,60,-1
1040 628 m 1,64,-1
 1040 788 l 1,65,-1
 1200 788 l 1,66,-1
 1200 628 l 1,67,-1
 1040 628 l 1,64,-1
1040 868 m 1,68,-1
 1040 1028 l 1,69,-1
 1200 1028 l 1,70,-1
 1200 868 l 1,71,-1
 1040 868 l 1,68,-1
1280 148 m 1,72,-1
 1280 548 l 1,73,-1
 1440 548 l 1,74,-1
 1440 148 l 1,75,-1
 1280 148 l 1,72,-1
1280 628 m 1,76,-1
 1280 788 l 1,77,-1
 1440 788 l 1,78,-1
 1440 628 l 1,79,-1
 1280 628 l 1,76,-1
1280 868 m 1,80,-1
 1280 1028 l 1,81,-1
 1440 1028 l 1,82,-1
 1440 868 l 1,83,-1
 1280 868 l 1,80,-1
EndSplineSet
Validated: 9
EndChar

StartChar: V
Encoding: 33 86 32
Width: 2048
LayerCount: 2
Fore
SplineSet
212 1426 m 1,0,-1
 270 1112 l 1,1,-1
 1764 1390 l 1,2,-1
 1706 1704 l 1,3,-1
 212 1426 l 1,0,-1
268 -8 m 1,4,-1
 1788 -8 l 1,5,-1
 1788 772 l 1,6,-1
 268 772 l 1,7,-1
 268 -8 l 1,4,-1
268 752 m 1,8,-1
 1788 752 l 1,9,-1
 1788 1072 l 1,10,-1
 268 1072 l 1,11,-1
 268 752 l 1,8,-1
342 1166 m 1,12,-1
 416 1424 l 1,13,-1
 534 1446 l 1,14,-1
 460 1188 l 1,15,-1
 342 1166 l 1,12,-1
348 632 m 1,16,-1
 348 692 l 1,17,-1
 1708 692 l 1,18,-1
 1708 632 l 1,19,-1
 1058 632 l 1,20,-1
 1058 72 l 1,21,-1
 998 72 l 1,22,-1
 998 632 l 1,23,-1
 348 632 l 1,16,-1
348 792 m 1,24,-1
 468 1032 l 1,25,-1
 588 1032 l 1,26,-1
 468 792 l 1,27,-1
 348 792 l 1,24,-1
616 1218 m 1,28,-1
 690 1476 l 1,29,-1
 808 1498 l 1,30,-1
 734 1240 l 1,31,-1
 616 1218 l 1,28,-1
628 792 m 1,32,-1
 748 1032 l 1,33,-1
 868 1032 l 1,34,-1
 748 792 l 1,35,-1
 628 792 l 1,32,-1
892 1268 m 1,36,-1
 966 1526 l 1,37,-1
 1084 1548 l 1,38,-1
 1010 1290 l 1,39,-1
 892 1268 l 1,36,-1
908 792 m 1,40,-1
 1028 1032 l 1,41,-1
 1148 1032 l 1,42,-1
 1028 792 l 1,43,-1
 908 792 l 1,40,-1
1168 1320 m 1,44,-1
 1242 1578 l 1,45,-1
 1360 1600 l 1,46,-1
 1286 1342 l 1,47,-1
 1168 1320 l 1,44,-1
1188 792 m 1,48,-1
 1308 1032 l 1,49,-1
 1428 1032 l 1,50,-1
 1308 792 l 1,51,-1
 1188 792 l 1,48,-1
1442 1372 m 1,52,-1
 1516 1628 l 1,53,-1
 1634 1650 l 1,54,-1
 1560 1394 l 1,55,-1
 1442 1372 l 1,52,-1
1468 792 m 1,56,-1
 1588 1032 l 1,57,-1
 1708 1032 l 1,58,-1
 1588 792 l 1,59,-1
 1468 792 l 1,56,-1
EndSplineSet
Validated: 5
EndChar

StartChar: W
Encoding: 34 87 33
Width: 2048
LayerCount: 2
Fore
SplineSet
160 -12 m 1,0,-1
 1840 -12 l 1,1,-1
 1520 1028 l 1,2,-1
 1060 1028 l 1,3,-1
 1060 1094 l 1,4,5
 1156 1116 1156 1116 1218 1192 c 0,6,7
 1280 1268 1280 1268 1280 1368 c 0,8,9
 1280 1484 1280 1484 1198 1566 c 0,10,11
 1116 1648 1116 1648 1000 1648 c 0,12,13
 884 1648 884 1648 802 1566 c 0,14,15
 720 1484 720 1484 720 1368 c 0,16,17
 720 1268 720 1268 782 1192 c 0,18,19
 844 1116 844 1116 940 1094 c 1,20,-1
 940 1028 l 1,21,-1
 480 1028 l 1,22,-1
 160 -12 l 1,0,-1
856 1368 m 0,23,24
 856 1428 856 1428 898 1470 c 0,25,26
 940 1512 940 1512 1000 1512 c 0,27,28
 1060 1512 1060 1512 1102 1470 c 0,29,30
 1144 1428 1144 1428 1144 1368 c 0,31,32
 1144 1324 1144 1324 1121 1289 c 0,33,34
 1098 1254 1098 1254 1060 1236 c 1,35,-1
 1060 1240 l 2,36,37
 1060 1268 1060 1268 1042 1288 c 0,38,39
 1024 1308 1024 1308 1000 1308 c 0,40,41
 976 1308 976 1308 958 1288 c 0,42,43
 940 1268 940 1268 940 1240 c 2,44,-1
 940 1236 l 1,45,46
 902 1254 902 1254 879 1289 c 0,47,48
 856 1324 856 1324 856 1368 c 0,23,24
EndSplineSet
Validated: 9
EndChar

StartChar: X
Encoding: 35 88 34
Width: 2048
LayerCount: 2
Fore
SplineSet
122 188 m 2,0,1
 122 104 122 104 180 46 c 0,2,3
 238 -12 238 -12 322 -12 c 2,4,-1
 1682 -12 l 2,5,6
 1766 -12 1766 -12 1824 46 c 0,7,8
 1882 104 1882 104 1882 188 c 2,9,-1
 1882 1548 l 2,10,11
 1882 1632 1882 1632 1824 1690 c 0,12,13
 1766 1748 1766 1748 1682 1748 c 2,14,-1
 322 1748 l 2,15,16
 238 1748 238 1748 180 1690 c 0,17,18
 122 1632 122 1632 122 1548 c 2,19,-1
 122 188 l 2,0,1
366 430 m 1,20,-1
 804 868 l 1,21,-1
 366 1306 l 1,22,-1
 564 1504 l 1,23,-1
 1002 1066 l 1,24,-1
 1440 1504 l 1,25,-1
 1638 1306 l 1,26,-1
 1200 868 l 1,27,-1
 1638 430 l 1,28,-1
 1440 232 l 1,29,-1
 1002 670 l 1,30,-1
 564 232 l 1,31,-1
 366 430 l 1,20,-1
EndSplineSet
Validated: 9
EndChar

StartChar: Y
Encoding: 36 89 35
Width: 2048
LayerCount: 2
Fore
SplineSet
136 72 m 2,0,1
 136 36 136 36 160 12 c 0,2,3
 184 -12 184 -12 220 -12 c 2,4,-1
 1780 -12 l 2,5,6
 1816 -12 1816 -12 1840 12 c 0,7,8
 1864 36 1864 36 1864 72 c 2,9,-1
 1864 740 l 2,10,11
 1864 776 1864 776 1840 801 c 0,12,13
 1816 826 1816 826 1781 826 c 0,14,15
 1746 826 1746 826 1721 801 c 0,16,17
 1696 776 1696 776 1696 740 c 2,18,-1
 1696 156 l 1,19,-1
 304 156 l 1,20,-1
 304 740 l 2,21,22
 304 776 304 776 279 801 c 0,23,24
 254 826 254 826 218 826 c 1,25,26
 184 824 184 824 160 800 c 0,27,28
 136 776 136 776 136 740 c 2,29,-1
 136 72 l 2,0,1
400 1008 m 1,30,-1
 1590 1008 l 1,31,-1
 1600 1408 l 1,32,33
 1370 1264 1370 1264 1058 1194 c 0,34,35
 746 1124 746 1124 400 1120 c 1,36,-1
 400 1008 l 1,30,-1
406 258 m 1,37,-1
 1594 258 l 1,38,-1
 1594 368 l 1,39,-1
 406 368 l 1,40,-1
 406 258 l 1,37,-1
406 444 m 1,41,-1
 1594 444 l 1,42,-1
 1594 554 l 1,43,-1
 406 554 l 1,44,-1
 406 444 l 1,41,-1
406 630 m 1,45,-1
 1594 630 l 1,46,-1
 1594 740 l 1,47,-1
 406 740 l 1,48,-1
 406 630 l 1,45,-1
406 814 m 1,49,-1
 1594 814 l 1,50,-1
 1594 926 l 1,51,-1
 406 926 l 1,52,-1
 406 814 l 1,49,-1
EndSplineSet
Validated: 9
EndChar

StartChar: Z
Encoding: 37 90 36
Width: 2048
LayerCount: 2
Fore
SplineSet
116 -16 m 1,0,-1
 1882 -16 l 1,1,-1
 1882 1092 l 2,2,3
 1882 1144 1882 1144 1846 1180 c 0,4,5
 1810 1216 1810 1216 1758 1216 c 2,6,-1
 240 1216 l 2,7,8
 188 1216 188 1216 152 1180 c 0,9,10
 116 1144 116 1144 116 1092 c 2,11,-1
 116 -16 l 1,0,-1
240 1330 m 2,12,13
 240 1318 240 1318 242 1306 c 1,14,-1
 1756 1306 l 1,15,16
 1758 1318 1758 1318 1758 1330 c 2,17,-1
 1758 1378 l 2,18,19
 1758 1418 1758 1418 1734 1446 c 0,20,21
 1710 1474 1710 1474 1676 1474 c 2,22,-1
 852 1474 l 1,23,-1
 760 1608 l 1,24,-1
 520 1608 l 1,25,-1
 416 1474 l 1,26,-1
 322 1474 l 2,27,28
 288 1474 288 1474 264 1446 c 0,29,30
 240 1418 240 1418 240 1378 c 2,31,-1
 240 1330 l 2,12,13
1240 144 m 1,32,-1
 1240 264 l 1,33,-1
 1560 264 l 1,34,-1
 1560 144 l 1,35,-1
 1240 144 l 1,32,-1
1240 544 m 1,36,-1
 1240 664 l 1,37,-1
 1560 664 l 1,38,-1
 1560 544 l 1,39,-1
 1240 544 l 1,36,-1
1240 944 m 1,40,-1
 1240 1064 l 1,41,-1
 1560 1064 l 1,42,-1
 1560 944 l 1,43,-1
 1240 944 l 1,40,-1
1360 344 m 1,44,-1
 1360 464 l 1,45,-1
 1680 464 l 1,46,-1
 1680 344 l 1,47,-1
 1360 344 l 1,44,-1
1360 744 m 1,48,-1
 1360 864 l 1,49,-1
 1680 864 l 1,50,-1
 1680 744 l 1,51,-1
 1360 744 l 1,48,-1
EndSplineSet
Validated: 9
EndChar

StartChar: a
Encoding: 38 97 37
Width: 2048
LayerCount: 2
Fore
SplineSet
152 298 m 0,0,1
 152 168 152 168 242 77 c 0,2,3
 332 -14 332 -14 462 -14 c 0,4,5
 592 -14 592 -14 684 78 c 2,6,-1
 966 360 l 2,7,8
 1036 430 1036 430 1052 526 c 0,9,10
 1057 554 1057 554 1057 582 c 0,11,12
 1057 647 1057 647 1030 708 c 1,13,-1
 1128 804 l 1,14,15
 1187 778 1187 778 1252 778 c 0,16,17
 1281 778 1281 778 1310 783 c 0,18,19
 1406 800 1406 800 1476 870 c 2,20,-1
 1758 1152 l 2,21,22
 1848 1242 1848 1242 1848 1372 c 0,23,24
 1848 1502 1848 1502 1758 1593 c 0,25,26
 1668 1684 1668 1684 1538 1684 c 0,27,28
 1408 1684 1408 1684 1316 1594 c 1,29,-1
 1034 1310 l 1,30,31
 964 1242 964 1242 948 1145 c 0,32,33
 943 1116 943 1116 943 1089 c 0,34,35
 943 1023 943 1023 970 964 c 1,36,-1
 872 866 l 1,37,38
 813 892 813 892 748 892 c 0,39,40
 719 892 719 892 690 887 c 0,41,42
 594 870 594 870 524 802 c 1,43,-1
 242 518 l 2,44,45
 152 428 152 428 152 298 c 0,0,1
294 297 m 0,46,47
 294 366 294 366 344 416 c 2,48,-1
 626 700 l 2,49,50
 676 750 676 750 746 750 c 0,51,52
 748 750 748 750 756 748 c 1,53,-1
 624 618 l 2,54,55
 592 586 592 586 592 539 c 0,56,57
 592 492 592 492 624 459 c 0,58,59
 656 426 656 426 703 426 c 0,60,61
 750 426 750 426 782 460 c 1,62,-1
 914 590 l 1,63,-1
 914 580 l 2,64,65
 914 512 914 512 864 462 c 2,66,-1
 582 178 l 2,67,68
 532 128 532 128 463 128 c 0,69,70
 394 128 394 128 344 178 c 0,71,72
 294 228 294 228 294 297 c 0,46,47
1086 1080 m 1,73,-1
 1086 1090 l 2,74,75
 1086 1158 1086 1158 1136 1208 c 2,76,-1
 1418 1492 l 2,77,78
 1468 1542 1468 1542 1537 1542 c 0,79,80
 1606 1542 1606 1542 1656 1492 c 0,81,82
 1706 1442 1706 1442 1706 1373 c 0,83,84
 1706 1304 1706 1304 1656 1254 c 2,85,-1
 1374 970 l 2,86,87
 1325 921 1325 921 1259 921 c 0,88,89
 1252 921 1252 921 1244 922 c 1,90,-1
 1376 1052 l 1,91,92
 1408 1086 1408 1086 1408 1133 c 0,93,94
 1408 1180 1408 1180 1376 1212 c 0,95,96
 1344 1244 1344 1244 1297 1244 c 0,97,98
 1250 1244 1250 1244 1218 1212 c 2,99,-1
 1086 1080 l 1,73,-1
EndSplineSet
Validated: 9
EndChar

StartChar: b
Encoding: 39 98 38
Width: 2048
LayerCount: 2
Fore
SplineSet
120 728 m 2,0,1
 120 640 120 640 184 575 c 0,2,3
 248 510 248 510 338 510 c 2,4,-1
 736 510 l 1,5,-1
 930 30 l 2,6,7
 938 12 938 12 957 -1 c 0,8,9
 976 -14 976 -14 994 -14 c 0,10,11
 1014 -14 1014 -14 1032 -2 c 0,12,13
 1050 10 1050 10 1058 28 c 2,14,-1
 1272 510 l 1,15,-1
 1672 510 l 2,16,17
 1760 510 1760 510 1825 575 c 0,18,19
 1890 640 1890 640 1890 728 c 2,20,-1
 1890 1508 l 2,21,22
 1890 1598 1890 1598 1825 1662 c 0,23,24
 1760 1726 1760 1726 1672 1726 c 2,25,-1
 338 1726 l 2,26,27
 248 1726 248 1726 184 1662 c 0,28,29
 120 1598 120 1598 120 1508 c 2,30,-1
 120 728 l 2,0,1
260 728 m 2,31,-1
 260 1508 l 2,32,33
 260 1542 260 1542 282 1564 c 0,34,35
 304 1586 304 1586 338 1586 c 2,36,-1
 1672 1586 l 2,37,38
 1704 1586 1704 1586 1727 1564 c 0,39,40
 1750 1542 1750 1542 1750 1508 c 2,41,-1
 1750 728 l 2,42,43
 1750 696 1750 696 1727 673 c 0,44,45
 1704 650 1704 650 1672 650 c 2,46,-1
 1226 650 l 2,47,48
 1208 650 1208 650 1189 638 c 0,49,50
 1170 626 1170 626 1164 610 c 2,51,-1
 998 234 l 1,52,-1
 846 608 l 1,53,54
 840 626 840 626 821 638 c 0,55,56
 802 650 802 650 782 650 c 2,57,-1
 338 650 l 2,58,59
 304 650 304 650 282 673 c 0,60,61
 260 696 260 696 260 728 c 2,31,-1
EndSplineSet
Validated: 9
EndChar

StartChar: c
Encoding: 40 99 39
Width: 2048
LayerCount: 2
Fore
SplineSet
200 72 m 2,0,1
 200 38 200 38 223 15 c 0,2,3
 246 -8 246 -8 280 -8 c 2,4,-1
 1720 -8 l 2,5,6
 1754 -8 1754 -8 1777 15 c 0,7,8
 1800 38 1800 38 1800 72 c 2,9,-1
 1800 1432 l 2,10,11
 1800 1466 1800 1466 1777 1489 c 0,12,13
 1754 1512 1754 1512 1720 1512 c 2,14,-1
 1520 1512 l 1,15,-1
 1520 1594 l 2,16,17
 1520 1610 1520 1610 1509 1621 c 0,18,19
 1498 1632 1498 1632 1482 1632 c 2,20,-1
 1398 1632 l 2,21,22
 1382 1632 1382 1632 1371 1621 c 0,23,24
 1360 1610 1360 1610 1360 1594 c 2,25,-1
 1360 1512 l 1,26,-1
 1224 1512 l 1,27,-1
 1224 1586 l 2,28,29
 1224 1604 1224 1604 1210 1618 c 0,30,31
 1196 1632 1196 1632 1178 1632 c 2,32,-1
 1110 1632 l 2,33,34
 1092 1632 1092 1632 1078 1618 c 0,35,36
 1064 1604 1064 1604 1064 1586 c 2,37,-1
 1064 1512 l 1,38,-1
 944 1512 l 1,39,-1
 944 1586 l 2,40,41
 944 1604 944 1604 930 1618 c 0,42,43
 916 1632 916 1632 898 1632 c 2,44,-1
 830 1632 l 2,45,46
 812 1632 812 1632 798 1618 c 0,47,48
 784 1604 784 1604 784 1586 c 2,49,-1
 784 1512 l 1,50,-1
 640 1512 l 1,51,-1
 640 1594 l 2,52,53
 640 1610 640 1610 629 1621 c 0,54,55
 618 1632 618 1632 602 1632 c 2,56,-1
 518 1632 l 2,57,58
 502 1632 502 1632 491 1621 c 0,59,60
 480 1610 480 1610 480 1594 c 2,61,-1
 480 1512 l 1,62,-1
 280 1512 l 2,63,64
 246 1512 246 1512 223 1489 c 0,65,66
 200 1466 200 1466 200 1432 c 2,67,-1
 200 72 l 2,0,1
360 190 m 2,68,-1
 360 1314 l 2,69,70
 360 1330 360 1330 371 1341 c 0,71,72
 382 1352 382 1352 398 1352 c 2,73,-1
 480 1352 l 1,74,-1
 480 1270 l 2,75,76
 480 1254 480 1254 491 1243 c 0,77,78
 502 1232 502 1232 518 1232 c 2,79,-1
 602 1232 l 2,80,81
 618 1232 618 1232 629 1243 c 0,82,83
 640 1254 640 1254 640 1270 c 2,84,-1
 640 1352 l 1,85,-1
 784 1352 l 1,86,-1
 784 1278 l 2,87,88
 784 1260 784 1260 798 1246 c 0,89,90
 812 1232 812 1232 830 1232 c 2,91,-1
 898 1232 l 2,92,93
 916 1232 916 1232 930 1246 c 0,94,95
 944 1260 944 1260 944 1278 c 2,96,-1
 944 1352 l 1,97,-1
 1064 1352 l 1,98,-1
 1064 1278 l 2,99,100
 1064 1260 1064 1260 1078 1246 c 0,101,102
 1092 1232 1092 1232 1110 1232 c 2,103,-1
 1178 1232 l 2,104,105
 1196 1232 1196 1232 1210 1246 c 0,106,107
 1224 1260 1224 1260 1224 1278 c 2,108,-1
 1224 1352 l 1,109,-1
 1360 1352 l 1,110,-1
 1360 1270 l 2,111,112
 1360 1254 1360 1254 1371 1243 c 0,113,114
 1382 1232 1382 1232 1398 1232 c 2,115,-1
 1482 1232 l 2,116,117
 1498 1232 1498 1232 1509 1243 c 0,118,119
 1520 1254 1520 1254 1520 1270 c 2,120,-1
 1520 1352 l 1,121,-1
 1602 1352 l 2,122,123
 1618 1352 1618 1352 1629 1341 c 0,124,125
 1640 1330 1640 1330 1640 1314 c 2,126,-1
 1640 190 l 2,127,128
 1640 174 1640 174 1629 163 c 0,129,130
 1618 152 1618 152 1602 152 c 2,131,-1
 398 152 l 2,132,133
 382 152 382 152 371 163 c 0,134,135
 360 174 360 174 360 190 c 2,68,-1
486 272 m 1,136,-1
 486 1112 l 1,137,-1
 1526 1112 l 1,138,-1
 1526 272 l 1,139,-1
 486 272 l 1,136,-1
EndSplineSet
Validated: 9
EndChar

StartChar: d
Encoding: 41 100 40
Width: 2048
LayerCount: 2
Fore
SplineSet
600 624 m 1,0,-1
 1000 -16 l 1,1,-1
 1400 624 l 1,2,-1
 1160 624 l 1,3,-1
 1160 1744 l 1,4,-1
 840 1744 l 1,5,-1
 840 624 l 1,6,-1
 600 624 l 1,0,-1
EndSplineSet
Validated: 9
EndChar

StartChar: e
Encoding: 42 101 41
Width: 2048
LayerCount: 2
Fore
SplineSet
132 78 m 2,0,1
 132 40 132 40 159 14 c 0,2,3
 186 -12 186 -12 222 -12 c 2,4,-1
 1512 -12 l 2,5,6
 1548 -12 1548 -12 1575 14 c 0,7,8
 1602 40 1602 40 1602 78 c 2,9,-1
 1602 932 l 1,10,-1
 1422 754 l 1,11,-1
 1422 168 l 1,12,-1
 312 168 l 1,13,-1
 312 1212 l 1,14,-1
 956 1212 l 1,15,-1
 1136 1392 l 1,16,-1
 222 1392 l 2,17,18
 186 1392 186 1392 159 1366 c 0,19,20
 132 1340 132 1340 132 1302 c 2,21,-1
 132 78 l 2,0,1
780 902 m 1,22,-1
 1106 576 l 1,23,-1
 1648 1118 l 1,24,-1
 1816 946 l 1,25,-1
 1868 1680 l 1,26,-1
 1160 1600 l 1,27,-1
 1322 1444 l 1,28,-1
 780 902 l 1,22,-1
EndSplineSet
Validated: 9
EndChar

StartChar: f
Encoding: 43 102 42
Width: 2048
LayerCount: 2
Fore
SplineSet
338 1667 m 0,0,1
 338 1712 338 1712 370 1744 c 0,2,3
 402 1776 402 1776 446 1776 c 0,4,5
 490 1776 490 1776 522 1744 c 0,6,7
 554 1712 554 1712 554 1667 c 0,8,9
 554 1622 554 1622 522 1590 c 0,10,11
 490 1558 490 1558 446 1558 c 0,12,13
 402 1558 402 1558 370 1590 c 0,14,15
 338 1622 338 1622 338 1667 c 0,0,1
384 50 m 2,16,-1
 384 1420 l 2,17,18
 384 1448 384 1448 402 1466 c 0,19,20
 420 1484 420 1484 446 1484 c 0,21,22
 472 1484 472 1484 491 1466 c 0,23,24
 510 1448 510 1448 510 1420 c 2,25,-1
 510 50 l 2,26,27
 510 24 510 24 491 5 c 0,28,29
 472 -14 472 -14 446 -14 c 0,30,31
 420 -14 420 -14 402 5 c 0,32,33
 384 24 384 24 384 50 c 2,16,-1
610 714 m 1,34,-1
 610 1442 l 1,35,36
 720 1536 720 1536 856 1539 c 1,37,-1
 864 1539 l 2,38,39
 997 1539 997 1539 1156 1442 c 1,40,41
 1226 1406 1226 1406 1284 1386 c 0,42,43
 1342 1366 1342 1366 1407 1358 c 0,44,45
 1425 1356 1425 1356 1443 1356 c 0,46,47
 1490 1356 1490 1356 1536 1371 c 0,48,49
 1600 1392 1600 1392 1662 1442 c 1,50,-1
 1662 714 l 1,51,52
 1559 638 1559 638 1432.5 638 c 0,53,54
 1306 638 1306 638 1156 714 c 0,55,56
 1146 718 1146 718 1103 734 c 0,57,58
 1060 750 1060 750 1045 755 c 0,59,60
 1030 760 1030 760 990 773 c 0,61,62
 950 786 950 786 929 788 c 0,63,64
 908 790 908 790 870 795 c 0,65,66
 853 797 853 797 838 797 c 0,67,68
 820 797 820 797 805 794 c 0,69,70
 778 788 778 788 743 781 c 0,71,72
 708 774 708 774 676 756 c 0,73,74
 644 738 644 738 610 714 c 1,34,-1
EndSplineSet
Validated: 1
EndChar

StartChar: g
Encoding: 44 103 43
Width: 2048
LayerCount: 2
Fore
SplineSet
124 28 m 2,0,1
 124 12 124 12 134 0 c 0,2,3
 144 -12 144 -12 158 -12 c 2,4,-1
 860 -12 l 2,5,6
 874 -12 874 -12 884 0 c 0,7,8
 894 12 894 12 894 28 c 2,9,-1
 894 268 l 2,10,11
 894 284 894 284 884 296 c 0,12,13
 874 308 874 308 860 308 c 2,14,-1
 722 308 l 1,15,-1
 902 548 l 1,16,-1
 1098 548 l 1,17,-1
 1278 308 l 1,18,-1
 1140 308 l 2,19,20
 1126 308 1126 308 1116 296 c 0,21,22
 1106 284 1106 284 1106 268 c 2,23,-1
 1106 28 l 2,24,25
 1106 12 1106 12 1116 0 c 0,26,27
 1126 -12 1126 -12 1140 -12 c 2,28,-1
 1842 -12 l 2,29,30
 1856 -12 1856 -12 1866 0 c 0,31,32
 1876 12 1876 12 1876 28 c 2,33,-1
 1876 268 l 2,34,35
 1876 284 1876 284 1866 296 c 0,36,37
 1856 308 1856 308 1842 308 c 2,38,-1
 1420 308 l 1,39,-1
 1228 548 l 1,40,-1
 1350 548 l 2,41,42
 1366 548 1366 548 1376 560 c 0,43,44
 1386 572 1386 572 1386 588 c 2,45,-1
 1386 828 l 2,46,47
 1386 844 1386 844 1376 856 c 0,48,49
 1366 868 1366 868 1350 868 c 2,50,-1
 1060 868 l 1,51,-1
 1060 1108 l 1,52,-1
 1350 1108 l 2,53,54
 1366 1108 1366 1108 1376 1120 c 0,55,56
 1386 1132 1386 1132 1386 1148 c 2,57,-1
 1386 1388 l 2,58,59
 1386 1404 1386 1404 1376 1416 c 0,60,61
 1366 1428 1366 1428 1350 1428 c 2,62,-1
 650 1428 l 2,63,64
 634 1428 634 1428 624 1416 c 0,65,66
 614 1404 614 1404 614 1388 c 2,67,-1
 614 1148 l 2,68,69
 614 1132 614 1132 624 1120 c 0,70,71
 634 1108 634 1108 650 1108 c 2,72,-1
 940 1108 l 1,73,-1
 940 868 l 1,74,-1
 650 868 l 2,75,76
 634 868 634 868 624 856 c 0,77,78
 614 844 614 844 614 828 c 2,79,-1
 614 588 l 2,80,81
 614 572 614 572 624 560 c 0,82,83
 634 548 634 548 650 548 c 2,84,-1
 772 548 l 1,85,-1
 580 308 l 1,86,-1
 158 308 l 2,87,88
 144 308 144 308 134 296 c 0,89,90
 124 284 124 284 124 268 c 2,91,-1
 124 28 l 2,0,1
EndSplineSet
Validated: 9
EndChar

StartChar: h
Encoding: 45 104 44
Width: 2048
LayerCount: 2
Fore
SplineSet
146 1020 m 2,0,-1
 146 1002 l 2,1,2
 146 915 146 915 181 826 c 0,3,4
 220 728 220 728 282 648 c 128,-1,5
 344 568 344 568 441 476 c 128,-1,6
 538 384 538 384 623 316 c 128,-1,7
 708 248 708 248 822 156 c 128,-1,8
 936 64 936 64 1004 2 c 1,9,10
 1066 52 1066 52 1160 127 c 128,-1,11
 1254 202 1254 202 1315 251 c 128,-1,12
 1376 300 1376 300 1456 370 c 128,-1,13
 1536 440 1536 440 1587 492 c 128,-1,14
 1638 544 1638 544 1694 613 c 128,-1,15
 1750 682 1750 682 1781 742 c 128,-1,16
 1812 802 1812 802 1833 874 c 128,-1,17
 1854 946 1854 946 1854 1020 c 0,18,19
 1854 1200 1854 1200 1733 1325 c 128,-1,20
 1612 1450 1612 1450 1434 1450 c 0,21,22
 1368 1450 1368 1450 1299 1414 c 128,-1,23
 1230 1378 1230 1378 1179 1326 c 128,-1,24
 1128 1274 1128 1274 1086 1223 c 128,-1,25
 1044 1172 1044 1172 1024 1136 c 1,26,-1
 1002 1100 l 1,27,28
 994 1114 994 1114 980 1138 c 128,-1,29
 966 1162 966 1162 920 1222 c 128,-1,30
 874 1282 874 1282 827 1328 c 128,-1,31
 780 1374 780 1374 711 1412 c 128,-1,32
 642 1450 642 1450 576 1450 c 0,33,34
 398 1450 398 1450 272 1324 c 128,-1,35
 146 1198 146 1198 146 1020 c 2,0,-1
EndSplineSet
Validated: 9
EndChar

StartChar: i
Encoding: 46 105 45
Width: 2048
LayerCount: 2
Fore
SplineSet
120 188 m 2,0,1
 120 104 120 104 178 46 c 0,2,3
 236 -12 236 -12 320 -12 c 2,4,-1
 1680 -12 l 2,5,6
 1764 -12 1764 -12 1822 46 c 0,7,8
 1880 104 1880 104 1880 188 c 2,9,-1
 1880 1548 l 2,10,11
 1880 1632 1880 1632 1822 1690 c 0,12,13
 1764 1748 1764 1748 1680 1748 c 2,14,-1
 320 1748 l 2,15,16
 236 1748 236 1748 178 1690 c 0,17,18
 120 1632 120 1632 120 1548 c 2,19,-1
 120 188 l 2,0,1
720 188 m 1,20,-1
 720 308 l 1,21,-1
 880 308 l 1,22,-1
 880 988 l 1,23,-1
 760 988 l 1,24,-1
 760 1068 l 1,25,-1
 1080 1068 l 1,26,-1
 1120 1068 l 1,27,-1
 1120 308 l 1,28,-1
 1280 308 l 1,29,-1
 1280 188 l 1,30,-1
 720 188 l 1,20,-1
820 1344 m 0,31,32
 820 1418 820 1418 873 1471 c 0,33,34
 926 1524 926 1524 1000 1524 c 0,35,36
 1074 1524 1074 1524 1127 1471 c 0,37,38
 1180 1418 1180 1418 1180 1344 c 0,39,40
 1180 1270 1180 1270 1127 1217 c 0,41,42
 1074 1164 1074 1164 1000 1164 c 0,43,44
 926 1164 926 1164 873 1217 c 0,45,46
 820 1270 820 1270 820 1344 c 0,31,32
EndSplineSet
Validated: 9
EndChar

StartChar: k
Encoding: 47 107 46
Width: 2048
LayerCount: 2
Fore
SplineSet
120 -12 m 1,0,-1
 940 -12 l 1,1,-1
 940 428 l 1,2,-1
 120 428 l 1,3,-1
 120 -12 l 1,0,-1
120 548 m 1,4,-1
 440 548 l 1,5,-1
 440 988 l 1,6,-1
 120 988 l 1,7,-1
 120 548 l 1,4,-1
120 1108 m 1,8,-1
 940 1108 l 1,9,-1
 940 1548 l 1,10,-1
 120 1548 l 1,11,-1
 120 1108 l 1,8,-1
560 548 m 1,12,-1
 1440 548 l 1,13,-1
 1440 988 l 1,14,-1
 560 988 l 1,15,-1
 560 548 l 1,12,-1
1060 -12 m 1,16,-1
 1880 -12 l 1,17,-1
 1880 428 l 1,18,-1
 1060 428 l 1,19,-1
 1060 -12 l 1,16,-1
1060 1108 m 1,20,-1
 1880 1108 l 1,21,-1
 1880 1548 l 1,22,-1
 1060 1548 l 1,23,-1
 1060 1108 l 1,20,-1
1560 548 m 1,24,-1
 1880 548 l 1,25,-1
 1880 988 l 1,26,-1
 1560 988 l 1,27,-1
 1560 548 l 1,24,-1
EndSplineSet
Validated: 9
EndChar

StartChar: l
Encoding: 48 108 47
Width: 2048
LayerCount: 2
Fore
SplineSet
440 1184 m 0,0,1
 440 970 440 970 584 812 c 1,2,-1
 584 810 l 1,3,4
 588 804 588 804 590 800 c 0,5,6
 600 786 600 786 612 766 c 0,7,8
 640 716 640 716 662 668 c 1,9,10
 684 616 684 616 700 564 c 0,11,12
 704 550 704 550 708 534 c 0,13,14
 712 518 712 518 713 511 c 2,15,-1
 714 504 l 1,16,-1
 714 452 l 1,17,-1
 714 388 l 1,18,-1
 778 388 l 1,19,-1
 830 388 l 1,20,-1
 1170 388 l 1,21,-1
 1222 388 l 1,22,-1
 1286 388 l 1,23,-1
 1286 452 l 1,24,-1
 1286 504 l 1,25,-1
 1286 507 l 2,26,27
 1286 510 1286 510 1287 516 c 0,28,29
 1288 522 1288 522 1290 529 c 0,30,31
 1292 536 1292 536 1294 546 c 0,32,33
 1296 556 1296 556 1300 564 c 1,34,35
 1316 616 1316 616 1338 668 c 0,36,37
 1360 720 1360 720 1384 762 c 0,38,39
 1394 780 1394 780 1404 796 c 0,40,41
 1410 804 1410 804 1412 806 c 0,42,43
 1560 966 1560 966 1560 1184 c 0,44,45
 1560 1414 1560 1414 1395 1577 c 0,46,47
 1230 1740 1230 1740 1000 1740 c 0,48,49
 770 1740 770 1740 605 1577 c 0,50,51
 440 1414 440 1414 440 1184 c 0,0,1
568 1184 m 0,52,53
 568 1362 568 1362 695 1487 c 0,54,55
 822 1612 822 1612 1000 1612 c 0,56,57
 1178 1612 1178 1612 1305 1487 c 0,58,59
 1432 1362 1432 1362 1432 1184 c 0,60,61
 1432 1016 1432 1016 1318 894 c 0,62,63
 1310 886 1310 886 1298 866 c 1,64,65
 1284 846 1284 846 1272 826 c 1,66,67
 1246 778 1246 778 1220 720 c 0,68,69
 1194 662 1194 662 1176 602 c 0,70,71
 1160 546 1160 546 1158 516 c 1,72,-1
 842 516 l 1,73,74
 840 546 840 546 824 602 c 1,75,76
 804 662 804 662 778 720 c 0,77,78
 754 774 754 774 722 830 c 0,79,80
 710 852 710 852 700 870 c 1,81,82
 686 888 686 888 678 898 c 0,83,84
 568 1020 568 1020 568 1184 c 0,52,53
752 1096 m 1,85,-1
 854 894 l 1,86,-1
 898 802 l 1,87,-1
 944 894 l 1,88,-1
 1000 1006 l 1,89,-1
 1056 894 l 1,90,-1
 1102 802 l 1,91,-1
 1146 894 l 1,92,-1
 1248 1096 l 1,93,-1
 1158 1142 l 1,94,-1
 1102 1030 l 1,95,-1
 1046 1142 l 1,96,-1
 1000 1232 l 1,97,-1
 954 1142 l 1,98,-1
 898 1030 l 1,99,-1
 842 1142 l 1,100,-1
 752 1096 l 1,85,-1
778 332 m 1,101,-1
 798 184 l 1,102,-1
 1202 184 l 1,103,-1
 1220 332 l 1,104,-1
 778 332 l 1,101,-1
864 130 m 1,105,106
 872 70 872 70 910 30 c 0,107,108
 948 -10 948 -10 1000 -10 c 0,109,110
 1052 -10 1052 -10 1090 30 c 0,111,112
 1128 70 1128 70 1136 130 c 1,113,-1
 864 130 l 1,105,106
EndSplineSet
Validated: 9
EndChar

StartChar: m
Encoding: 49 109 48
Width: 2048
LayerCount: 2
Fore
SplineSet
122 466 m 1,0,-1
 602 466 l 1,1,-1
 1202 -14 l 1,2,-1
 1202 1586 l 1,3,-1
 602 1106 l 1,4,-1
 122 1106 l 1,5,-1
 122 466 l 1,0,-1
1302 498 m 1,6,-1
 1388 366 l 1,7,8
 1492 434 1492 434 1554 545 c 0,9,10
 1616 656 1616 656 1616 785 c 0,11,12
 1616 914 1616 914 1554 1025 c 0,13,14
 1492 1136 1492 1136 1388 1204 c 1,15,-1
 1302 1072 l 1,16,17
 1374 1026 1374 1026 1416 950 c 0,18,19
 1458 874 1458 874 1458 785 c 0,20,21
 1458 696 1458 696 1416 620 c 0,22,23
 1374 544 1374 544 1302 498 c 1,6,-1
1444 278 m 1,24,-1
 1530 146 l 1,25,26
 1690 250 1690 250 1784 419 c 0,27,28
 1878 588 1878 588 1878 785 c 0,29,30
 1878 982 1878 982 1784 1152 c 0,31,32
 1690 1322 1690 1322 1530 1426 c 1,33,-1
 1444 1294 l 1,34,35
 1572 1212 1572 1212 1647 1077 c 0,36,37
 1722 942 1722 942 1722 785 c 0,38,39
 1722 628 1722 628 1647 494 c 0,40,41
 1572 360 1572 360 1444 278 c 1,24,-1
EndSplineSet
Validated: 9
EndChar

StartChar: n
Encoding: 50 110 49
Width: 2048
LayerCount: 2
Fore
SplineSet
440 72 m 2,0,1
 440 38 440 38 463 15 c 0,2,3
 486 -8 486 -8 520 -8 c 2,4,-1
 1480 -8 l 2,5,6
 1514 -8 1514 -8 1537 15 c 0,7,8
 1560 38 1560 38 1560 72 c 2,9,-1
 1560 1592 l 2,10,11
 1560 1626 1560 1626 1537 1649 c 0,12,13
 1514 1672 1514 1672 1480 1672 c 2,14,-1
 520 1672 l 2,15,16
 486 1672 486 1672 463 1649 c 0,17,18
 440 1626 440 1626 440 1592 c 2,19,-1
 440 72 l 2,0,1
600 472 m 1,20,-1
 600 1512 l 1,21,-1
 1400 1512 l 1,22,-1
 1400 472 l 1,23,-1
 600 472 l 1,20,-1
880 232 m 0,24,25
 880 282 880 282 915 317 c 0,26,27
 950 352 950 352 1000 352 c 0,28,29
 1050 352 1050 352 1085 317 c 0,30,31
 1120 282 1120 282 1120 232 c 0,32,33
 1120 182 1120 182 1085 147 c 0,34,35
 1050 112 1050 112 1000 112 c 0,36,37
 950 112 950 112 915 147 c 0,38,39
 880 182 880 182 880 232 c 0,24,25
EndSplineSet
Validated: 9
EndChar

StartChar: o
Encoding: 51 111 50
Width: 2048
LayerCount: 2
Fore
SplineSet
322 -10 m 1,0,-1
 382 -10 l 1,1,-1
 1618 -10 l 1,2,-1
 1678 -10 l 1,3,-1
 1678 50 l 1,4,-1
 1678 1354 l 1,5,-1
 1678 1414 l 1,6,-1
 1618 1414 l 1,7,-1
 1302 1414 l 1,8,9
 1292 1424 1292 1424 1280 1434 c 0,10,11
 1230 1478 1230 1478 1160 1502 c 1,12,13
 1178 1542 1178 1542 1178 1586 c 0,14,15
 1178 1666 1178 1666 1125 1722 c 0,16,17
 1072 1778 1072 1778 997 1778 c 0,18,19
 922 1778 922 1778 869 1722 c 0,20,21
 816 1666 816 1666 816 1586 c 0,22,23
 816 1542 816 1542 834 1502 c 1,24,25
 764 1478 764 1478 714 1434 c 0,26,27
 704 1426 704 1426 694 1414 c 1,28,-1
 382 1414 l 1,29,-1
 322 1414 l 1,30,-1
 322 1354 l 1,31,-1
 322 50 l 1,32,-1
 322 -10 l 1,0,-1
486 1294 m 1,33,-1
 664 1294 l 1,34,35
 662 1286 662 1286 662 1276 c 0,36,37
 662 1258 662 1258 666 1242 c 1,38,-1
 672 1208 l 1,39,-1
 704 1208 l 1,40,-1
 1288 1208 l 1,41,-1
 1320 1208 l 1,42,-1
 1326 1242 l 1,43,44
 1330 1258 1330 1258 1330 1276 c 0,45,46
 1330 1286 1330 1286 1328 1294 c 1,47,-1
 1510 1294 l 1,48,-1
 1510 170 l 1,49,-1
 720 170 l 1,50,51
 480 529 480 529 480 1100 c 0,52,53
 480 1194 480 1194 486 1294 c 1,33,-1
752 1304 m 1,54,55
 760 1338 760 1338 794 1368 c 1,56,57
 874 1444 874 1444 1000 1444 c 0,58,59
 1122 1444 1122 1444 1196 1368 c 1,60,61
 1232 1338 1232 1338 1238 1304 c 1,62,-1
 1240 1304 l 1,63,-1
 1240 1302 l 1,64,-1
 754 1302 l 1,65,-1
 754 1304 l 1,66,-1
 752 1304 l 1,54,55
913 1597 m 0,67,68
 913 1626 913 1626 936 1648 c 0,69,70
 962 1674 962 1674 998 1674 c 0,71,72
 1032 1674 1032 1674 1056 1649 c 0,73,74
 1080 1624 1080 1624 1080 1588 c 1,75,76
 1074 1540 1074 1540 1036 1521 c 0,77,78
 1017 1511 1017 1511 997.5 1511.5 c 0,79,80
 978 1512 978 1512 959 1521 c 0,81,82
 913 1543 913 1543 913 1597 c 0,67,68
EndSplineSet
Validated: 9
EndChar

StartChar: p
Encoding: 52 112 51
Width: 2048
LayerCount: 2
Fore
SplineSet
134 278 m 2,0,1
 134 242 134 242 159 216 c 0,2,3
 184 190 184 190 216 196 c 0,4,5
 223 198 223 198 230 198 c 0,6,7
 258 198 258 198 284 172 c 0,8,9
 316 140 316 140 333 99 c 0,10,11
 350 58 350 58 372 34 c 0,12,13
 394 10 394 10 414 30 c 1,14,-1
 414 196 l 1,15,-1
 506 196 l 1,16,-1
 506 30 l 2,17,18
 506 14 506 14 518 1 c 0,19,20
 530 -12 530 -12 546 -12 c 2,21,-1
 1454 -12 l 2,22,23
 1470 -12 1470 -12 1482 1 c 0,24,25
 1494 14 1494 14 1494 30 c 2,26,-1
 1494 196 l 1,27,-1
 1590 196 l 1,28,-1
 1590 30 l 1,29,30
 1626 34 1626 34 1650 62 c 0,31,32
 1674 90 1674 90 1684 121 c 0,33,34
 1694 152 1694 152 1719 175 c 0,35,36
 1742 196 1742 196 1778 196 c 2,37,-1
 1784 196 l 1,38,39
 1816 192 1816 192 1841 217 c 0,40,41
 1866 242 1866 242 1866 278 c 2,42,-1
 1866 936 l 2,43,44
 1866 972 1866 972 1842 996 c 0,45,46
 1818 1020 1818 1020 1784 1020 c 2,47,-1
 1494 1020 l 1,48,-1
 1494 1678 l 2,49,50
 1494 1696 1494 1696 1482 1708 c 0,51,52
 1470 1720 1470 1720 1454 1720 c 2,53,-1
 546 1720 l 2,54,55
 530 1720 530 1720 518 1708 c 0,56,57
 506 1696 506 1696 506 1678 c 2,58,-1
 506 1020 l 1,59,-1
 216 1020 l 2,60,61
 182 1020 182 1020 158 996 c 0,62,63
 134 972 134 972 134 936 c 2,64,-1
 134 278 l 2,0,1
600 88 m 1,65,-1
 600 368 l 1,66,-1
 1400 368 l 1,67,-1
 1400 88 l 1,68,-1
 600 88 l 1,65,-1
600 808 m 1,69,-1
 600 1608 l 1,70,-1
 1400 1608 l 1,71,-1
 1400 808 l 1,72,-1
 600 808 l 1,69,-1
1590 762 m 0,73,74
 1590 792 1590 792 1611 813 c 0,75,76
 1632 834 1632 834 1662 834 c 0,77,78
 1692 834 1692 834 1713 813 c 0,79,80
 1734 792 1734 792 1734 762 c 0,81,82
 1734 732 1734 732 1713 711 c 0,83,84
 1692 690 1692 690 1662 690 c 0,85,86
 1632 690 1632 690 1611 711 c 0,87,88
 1590 732 1590 732 1590 762 c 0,73,74
EndSplineSet
Validated: 9
EndChar

StartChar: q
Encoding: 53 113 52
Width: 2048
LayerCount: 2
Fore
SplineSet
252 979 m 0,0,1
 264 842 264 842 316 704 c 0,2,3
 350 612 350 612 402 520 c 0,4,5
 456 426 456 426 532 328 c 0,6,7
 652 174 652 174 809 85 c 0,8,9
 966 -4 966 -4 1139 -12 c 0,10,11
 1153 -13 1153 -13 1166 -13 c 0,12,13
 1325 -13 1325 -13 1482 74 c 1,14,15
 1584 122 1584 122 1620 180 c 1,16,-1
 1290 666 l 1,17,18
 1182 622 1182 622 1118 564 c 0,19,20
 1054 506 1054 506 996 396 c 1,21,22
 603 609 603 609 603 1034 c 0,23,24
 603 1053 603 1053 604 1072 c 1,25,26
 632 1070 632 1070 657 1070 c 0,27,28
 750 1070 750 1070 817 1093 c 0,29,30
 902 1122 902 1122 986 1192 c 1,31,32
 878 1430 878 1430 730 1722 c 1,33,34
 664 1708 664 1708 570 1654 c 1,35,36
 448 1582 448 1582 371 1475 c 0,37,38
 294 1368 294 1368 267 1242 c 0,39,40
 248 1155 248 1155 248 1062 c 0,41,42
 248 1021 248 1021 252 979 c 0,0,1
824 1748 m 1,43,-1
 1068 1238 l 1,44,-1
 1132 1300 l 1,45,-1
 920 1754 l 1,46,-1
 824 1748 l 1,43,-1
1378 696 m 1,47,-1
 1698 230 l 1,48,-1
 1752 310 l 1,49,-1
 1464 722 l 1,50,-1
 1378 696 l 1,47,-1
EndSplineSet
Validated: 9
EndChar

StartChar: r
Encoding: 54 114 53
Width: 2048
LayerCount: 2
Fore
SplineSet
374 8 m 1,0,-1
 1560 928 l 1,1,-1
 1200 1008 l 1,2,-1
 1626 1688 l 1,3,-1
 440 808 l 1,4,-1
 800 728 l 1,5,-1
 374 8 l 1,0,-1
EndSplineSet
Validated: 9
EndChar

StartChar: s
Encoding: 55 115 54
Width: 2048
LayerCount: 2
Fore
SplineSet
136 1006 m 1,0,-1
 654 612 l 1,1,-1
 466 -10 l 1,2,-1
 1000 362 l 1,3,-1
 1532 -10 l 1,4,-1
 1346 612 l 1,5,-1
 1864 1004 l 1,6,-1
 1214 1018 l 1,7,-1
 1000 1632 l 1,8,-1
 786 1018 l 1,9,-1
 136 1006 l 1,0,-1
EndSplineSet
Validated: 9
EndChar

StartChar: t
Encoding: 56 116 55
Width: 2048
LayerCount: 2
Fore
SplineSet
140 864 m 1,0,-1
 644 -8 l 1,1,-1
 1674 586 l 1,2,-1
 1854 1064 l 1,3,-1
 1674 1376 l 1,4,-1
 1170 1458 l 1,5,-1
 140 864 l 1,0,-1
1422 1112 m 0,6,7
 1434 1156 1434 1156 1473 1179 c 0,8,9
 1499 1194 1499 1194 1526 1194 c 0,10,11
 1540 1194 1540 1194 1556 1190 c 0,12,13
 1600 1178 1600 1178 1623 1139 c 0,14,15
 1638 1113 1638 1113 1638 1086 c 0,16,17
 1638 1072 1638 1072 1634 1056 c 0,18,19
 1622 1012 1622 1012 1583 989 c 0,20,21
 1557 974 1557 974 1530 974 c 0,22,23
 1516 974 1516 974 1500 978 c 0,24,25
 1456 990 1456 990 1433 1029 c 0,26,27
 1418 1055 1418 1055 1418 1082 c 0,28,29
 1418 1097 1418 1097 1422 1112 c 0,6,7
EndSplineSet
Validated: 9
EndChar

StartChar: u
Encoding: 57 117 56
Width: 2048
LayerCount: 2
Fore
SplineSet
600 1108 m 1,0,-1
 840 1108 l 1,1,-1
 840 -12 l 1,2,-1
 1160 -12 l 1,3,-1
 1160 1108 l 1,4,-1
 1400 1108 l 1,5,-1
 1000 1748 l 1,6,-1
 600 1108 l 1,0,-1
EndSplineSet
Validated: 9
EndChar

StartChar: v
Encoding: 58 118 57
Width: 2048
LayerCount: 2
Fore
SplineSet
160 -16 m 1,0,-1
 160 104 l 1,1,-1
 1840 104 l 1,2,-1
 1840 -16 l 1,3,-1
 160 -16 l 1,0,-1
160 24 m 1,4,-1
 160 1624 l 1,5,-1
 280 1624 l 1,6,-1
 280 24 l 1,7,-1
 160 24 l 1,4,-1
400 104 m 1,8,-1
 400 824 l 1,9,-1
 800 824 l 1,10,-1
 800 104 l 1,11,-1
 400 104 l 1,8,-1
920 104 m 1,12,-1
 920 1384 l 1,13,-1
 1320 1384 l 1,14,-1
 1320 104 l 1,15,-1
 920 104 l 1,12,-1
1440 104 m 1,16,-1
 1440 504 l 1,17,-1
 1840 504 l 1,18,-1
 1840 104 l 1,19,-1
 1440 104 l 1,16,-1
EndSplineSet
Validated: 5
EndChar

StartChar: w
Encoding: 59 119 58
Width: 2048
LayerCount: 2
Fore
SplineSet
172 12 m 1,0,-1
 542 382 l 1,1,2
 538 395 538 395 538 407 c 0,3,4
 538 434 538 434 560 456 c 0,5,6
 580 476 580 476 610 476 c 0,7,8
 640 476 640 476 661 455 c 0,9,10
 682 434 682 434 682 404 c 0,11,12
 682 374 682 374 662 354 c 1,13,14
 648 338 648 338 623 334 c 0,15,16
 598 330 598 330 580 336 c 1,17,-1
 220 -34 l 1,18,-1
 618 2 l 1,19,20
 656 226 656 226 806 416 c 1,21,22
 820 406 820 406 833 406 c 0,23,24
 850 406 850 406 866 422 c 0,25,26
 880 436 880 436 880 456 c 0,27,28
 880 476 880 476 866 490 c 2,29,-1
 696 660 l 2,30,31
 682 674 682 674 662 674 c 0,32,33
 642 674 642 674 628 660 c 0,34,35
 612 644 612 644 612 626 c 0,36,37
 612 613 612 613 620 600 c 1,38,39
 566 560 566 560 489 523 c 0,40,41
 412 486 412 486 362 467 c 0,42,43
 312 448 312 448 210 412 c 1,44,-1
 172 12 l 1,0,-1
774 700 m 2,45,-1
 910 564 l 2,46,47
 935 538 935 538 969 538 c 0,48,49
 1003 538 1003 538 1046 564 c 1,50,51
 1136 616 1136 616 1218 681 c 0,52,53
 1300 746 1300 746 1358 800 c 0,54,55
 1416 854 1416 854 1490 942 c 0,56,57
 1564 1030 1564 1030 1605 1083 c 0,58,59
 1646 1136 1646 1136 1728 1244 c 1,60,61
 1736 1258 1736 1258 1760 1296 c 1,62,63
 1884 1513 1884 1513 1884 1606 c 0,64,65
 1884 1674 1884 1674 1816 1674 c 0,66,67
 1724 1674 1724 1674 1506 1550 c 1,68,69
 1468 1526 1468 1526 1454 1516 c 0,70,71
 1208 1332 1208 1332 1057 1188 c 0,72,73
 906 1044 906 1044 774 836 c 0,74,75
 748 794 748 794 748 760 c 0,76,77
 748 726 748 726 774 700 c 2,45,-1
EndSplineSet
Validated: 9
EndChar

StartChar: y
Encoding: 60 121 59
Width: 2048
LayerCount: 2
Fore
SplineSet
122 868 m 0,0,1
 122 690 122 690 192 528 c 0,2,3
 262 366 262 366 380 248 c 0,4,5
 498 130 498 130 660 60 c 0,6,7
 822 -10 822 -10 1000 -10 c 0,8,9
 1178 -10 1178 -10 1340 60 c 0,10,11
 1502 130 1502 130 1620 248 c 0,12,13
 1738 366 1738 366 1808 528 c 0,14,15
 1878 690 1878 690 1878 868 c 0,16,17
 1878 1046 1878 1046 1808 1209 c 0,18,19
 1738 1372 1738 1372 1620 1489 c 0,20,21
 1502 1606 1502 1606 1340 1676 c 0,22,23
 1178 1746 1178 1746 1000 1746 c 0,24,25
 822 1746 822 1746 660 1676 c 0,26,27
 498 1606 498 1606 380 1489 c 0,28,29
 262 1372 262 1372 192 1209 c 0,30,31
 122 1046 122 1046 122 868 c 0,0,1
258 868 m 0,32,33
 258 1070 258 1070 357 1241 c 0,34,35
 456 1412 456 1412 627 1511 c 0,36,37
 798 1610 798 1610 1000 1610 c 0,38,39
 1202 1610 1202 1610 1373 1511 c 0,40,41
 1544 1412 1544 1412 1643 1241 c 0,42,43
 1742 1070 1742 1070 1742 868 c 0,44,45
 1742 666 1742 666 1643 495 c 0,46,47
 1544 324 1544 324 1373 225 c 0,48,49
 1202 126 1202 126 1000 126 c 0,50,51
 798 126 798 126 627 225 c 0,52,53
 456 324 456 324 357 495 c 0,54,55
 258 666 258 666 258 868 c 0,32,33
480 988 m 0,56,57
 480 968 480 968 486 948 c 1,58,-1
 794 948 l 1,59,60
 800 968 800 968 800 988 c 0,61,62
 800 1054 800 1054 753 1101 c 0,63,64
 706 1148 706 1148 640 1148 c 0,65,66
 574 1148 574 1148 527 1101 c 0,67,68
 480 1054 480 1054 480 988 c 0,56,57
538 676 m 1,69,70
 578 560 578 560 653 477 c 0,71,72
 728 394 728 394 816 354 c 0,73,74
 904 314 904 314 1003 314 c 0,75,76
 1102 314 1102 314 1190 352 c 0,77,78
 1278 390 1278 390 1351 473 c 0,79,80
 1424 556 1424 556 1462 676 c 1,81,-1
 870 676 l 1,82,-1
 538 676 l 1,69,70
1200 988 m 0,83,84
 1200 968 1200 968 1206 948 c 1,85,-1
 1514 948 l 1,86,87
 1520 968 1520 968 1520 988 c 0,88,89
 1520 1054 1520 1054 1473 1101 c 0,90,91
 1426 1148 1426 1148 1360 1148 c 0,92,93
 1294 1148 1294 1148 1247 1101 c 0,94,95
 1200 1054 1200 1054 1200 988 c 0,83,84
EndSplineSet
Validated: 9
EndChar

StartChar: ordfeminine
Encoding: 61 170 60
Width: 2048
LayerCount: 2
Fore
SplineSet
152 298 m 0,0,1
 152 168 152 168 242 77 c 0,2,3
 332 -14 332 -14 462 -14 c 0,4,5
 592 -14 592 -14 684 78 c 2,6,-1
 966 360 l 2,7,8
 1036 430 1036 430 1052 526 c 0,9,10
 1057 554 1057 554 1057 582 c 0,11,12
 1057 647 1057 647 1030 708 c 1,13,-1
 1128 804 l 1,14,15
 1187 778 1187 778 1252 778 c 0,16,17
 1281 778 1281 778 1310 783 c 0,18,19
 1406 800 1406 800 1476 870 c 2,20,-1
 1758 1152 l 2,21,22
 1848 1242 1848 1242 1848 1372 c 0,23,24
 1848 1502 1848 1502 1758 1593 c 0,25,26
 1668 1684 1668 1684 1538 1684 c 0,27,28
 1408 1684 1408 1684 1316 1594 c 1,29,-1
 1034 1310 l 1,30,31
 964 1242 964 1242 948 1145 c 0,32,33
 943 1116 943 1116 943 1089 c 0,34,35
 943 1023 943 1023 970 964 c 1,36,-1
 872 866 l 1,37,38
 813 892 813 892 748 892 c 0,39,40
 719 892 719 892 690 887 c 0,41,42
 594 870 594 870 524 802 c 1,43,-1
 242 518 l 2,44,45
 152 428 152 428 152 298 c 0,0,1
294 297 m 0,46,47
 294 366 294 366 344 416 c 2,48,-1
 626 700 l 2,49,50
 676 750 676 750 746 750 c 0,51,52
 748 750 748 750 756 748 c 1,53,-1
 624 618 l 2,54,55
 592 586 592 586 592 539 c 0,56,57
 592 492 592 492 624 459 c 0,58,59
 656 426 656 426 703 426 c 0,60,61
 750 426 750 426 782 460 c 1,62,-1
 914 590 l 1,63,-1
 914 580 l 2,64,65
 914 512 914 512 864 462 c 2,66,-1
 582 178 l 2,67,68
 532 128 532 128 463 128 c 0,69,70
 394 128 394 128 344 178 c 0,71,72
 294 228 294 228 294 297 c 0,46,47
1086 1080 m 1,73,-1
 1086 1090 l 2,74,75
 1086 1158 1086 1158 1136 1208 c 2,76,-1
 1418 1492 l 2,77,78
 1468 1542 1468 1542 1537 1542 c 0,79,80
 1606 1542 1606 1542 1656 1492 c 0,81,82
 1706 1442 1706 1442 1706 1373 c 0,83,84
 1706 1304 1706 1304 1656 1254 c 2,85,-1
 1374 970 l 2,86,87
 1325 921 1325 921 1259 921 c 0,88,89
 1252 921 1252 921 1244 922 c 1,90,-1
 1376 1052 l 1,91,92
 1408 1086 1408 1086 1408 1133 c 0,93,94
 1408 1180 1408 1180 1376 1212 c 0,95,96
 1344 1244 1344 1244 1297 1244 c 0,97,98
 1250 1244 1250 1244 1218 1212 c 2,99,-1
 1086 1080 l 1,73,-1
EndSplineSet
Validated: 9
EndChar

StartChar: uni00AD
Encoding: 62 173 61
Width: 2048
LayerCount: 2
Fore
SplineSet
120 868 m 0,0,1
 120 504 120 504 378 246 c 0,2,3
 636 -12 636 -12 1000 -12 c 0,4,5
 1364 -12 1364 -12 1622 246 c 0,6,7
 1880 504 1880 504 1880 868 c 0,8,9
 1880 1232 1880 1232 1622 1490 c 0,10,11
 1364 1748 1364 1748 1000 1748 c 0,12,13
 636 1748 636 1748 378 1490 c 0,14,15
 120 1232 120 1232 120 868 c 0,0,1
534 734 m 1,16,-1
 534 1002 l 1,17,-1
 1466 1002 l 1,18,-1
 1466 734 l 1,19,-1
 534 734 l 1,16,-1
EndSplineSet
Validated: 9
EndChar

StartChar: uni00B2
Encoding: 63 178 62
Width: 2048
LayerCount: 2
Fore
SplineSet
276 1044 m 0,0,1
 278 1028 278 1028 282 1014 c 0,2,3
 286 1000 286 1000 288 991 c 0,4,5
 290 982 290 982 298 969 c 0,6,7
 306 956 306 956 310 951 c 0,8,9
 314 946 314 946 324 934 c 0,10,11
 334 922 334 922 336 918 c 1,12,13
 302 848 302 848 302 826 c 1,14,15
 304 800 304 800 301 795 c 0,16,17
 298 790 298 790 303 772 c 0,18,19
 308 754 308 754 308 753 c 0,20,21
 308 752 308 752 315 734 c 0,22,23
 322 716 322 716 324 712 c 0,24,25
 332 692 332 692 369 677 c 0,26,27
 406 662 406 662 436 658 c 1,28,29
 514 644 514 644 600 666 c 1,30,31
 628 672 628 672 682 689 c 0,32,33
 736 706 736 706 760 712 c 0,34,35
 778 716 778 716 795 718 c 0,36,37
 812 720 812 720 831 719 c 0,38,39
 850 718 850 718 860 718 c 0,40,41
 870 718 870 718 892 715 c 0,42,43
 914 712 914 712 920 712 c 1,44,-1
 914 714 l 1,45,-1
 878 718 l 1,46,-1
 880 718 l 1,47,48
 920 712 920 712 953 674 c 0,49,50
 986 636 986 636 980 598 c 1,51,52
 962 558 962 558 948 392 c 1,53,54
 906 352 906 352 898 252 c 1,55,-1
 922 114 l 1,56,57
 958 -14 958 -14 1064 -12 c 0,58,59
 1108 -12 1108 -12 1114 2 c 1,60,-1
 1114 114 l 2,61,62
 1114 248 1114 248 1226 448 c 1,63,-1
 1338 560 l 1,64,65
 1362 592 1362 592 1381 635 c 0,66,67
 1400 678 1400 678 1407 700 c 0,68,69
 1414 722 1414 722 1428 782 c 0,70,71
 1442 842 1442 842 1444 854 c 1,72,73
 1458 868 1458 868 1470 886 c 1,74,75
 1472 908 1472 908 1518 914 c 0,76,77
 1564 920 1564 920 1619 917 c 0,78,79
 1674 914 1674 914 1724 918 c 1,80,-1
 1724 1560 l 1,81,82
 1482 1554 1482 1554 1440 1588 c 1,83,84
 1430 1604 1430 1604 1412 1619 c 0,85,86
 1394 1634 1394 1634 1383 1640 c 0,87,88
 1372 1646 1372 1646 1345 1659 c 0,89,90
 1318 1672 1318 1672 1312 1676 c 0,91,92
 1244 1710 1244 1710 1105 1724 c 0,93,94
 966 1738 966 1738 830 1736 c 0,95,96
 694 1734 694 1734 566 1722 c 1,97,98
 550 1722 550 1722 518 1705 c 0,99,100
 486 1688 486 1688 451 1659 c 0,101,102
 416 1630 416 1630 401 1590 c 0,103,104
 386 1550 386 1550 404 1504 c 1,105,106
 372 1486 372 1486 357 1476 c 0,107,108
 342 1466 342 1466 324 1435 c 0,109,110
 306 1404 306 1404 296 1358 c 1,111,112
 296 1302 296 1302 305 1273 c 0,113,114
 314 1244 314 1244 336 1216 c 1,115,116
 302 1184 302 1184 290 1159 c 0,117,118
 278 1134 278 1134 276 1078 c 1,119,120
 274 1060 274 1060 276 1044 c 0,0,1
EndSplineSet
Validated: 37
EndChar

StartChar: uni00B3
Encoding: 64 179 63
Width: 2048
LayerCount: 2
Fore
SplineSet
114 25 m 0,0,1
 114 16 114 16 117 6 c 0,2,3
 120 -4 120 -4 131 -7 c 0,4,5
 142 -10 142 -10 160 -10 c 2,6,-1
 890 -10 l 2,7,8
 956 -10 956 -10 914 78 c 1,9,10
 906 92 906 92 890 124 c 2,11,-1
 822 258 l 1,12,-1
 822 324 l 1,13,-1
 1182 324 l 1,14,-1
 1182 258 l 1,15,-1
 1116 124 l 2,16,17
 1114 120 1114 120 1108 110 c 0,18,19
 1098 90 1098 90 1093 79 c 0,20,21
 1088 68 1088 68 1081 51 c 0,22,23
 1074 34 1074 34 1074 25 c 0,24,25
 1074 16 1074 16 1077 6 c 0,26,27
 1080 -4 1080 -4 1091 -7 c 0,28,29
 1102 -10 1102 -10 1120 -10 c 2,30,-1
 1850 -10 l 2,31,32
 1916 -10 1916 -10 1874 78 c 1,33,34
 1866 92 1866 92 1850 124 c 2,35,-1
 1782 258 l 1,36,-1
 1782 624 l 2,37,38
 1782 638 1782 638 1773 648 c 0,39,40
 1764 658 1764 658 1750 658 c 2,41,-1
 1216 658 l 2,42,43
 1202 658 1202 658 1192 648 c 0,44,45
 1182 638 1182 638 1182 624 c 2,46,-1
 1182 444 l 1,47,-1
 1060 444 l 1,48,-1
 1060 846 l 1,49,-1
 1368 846 l 2,50,51
 1432 846 1432 846 1390 932 c 0,52,53
 1384 946 1384 946 1366 978 c 1,54,-1
 1300 1112 l 1,55,-1
 1300 1478 l 2,56,57
 1300 1492 1300 1492 1290 1502 c 0,58,59
 1280 1512 1280 1512 1266 1512 c 2,60,-1
 732 1512 l 2,61,62
 718 1512 718 1512 709 1502 c 0,63,64
 700 1492 700 1492 700 1478 c 2,65,-1
 700 1112 l 1,66,-1
 632 978 l 1,67,-1
 626 966 l 2,68,69
 616 944 616 944 611 934 c 0,70,71
 606 924 606 924 599 906 c 0,72,73
 592 888 592 888 592 879 c 0,74,75
 592 870 592 870 595 861 c 0,76,77
 598 852 598 852 609 848 c 0,78,79
 620 844 620 844 638 846 c 1,80,-1
 940 846 l 1,81,-1
 940 444 l 1,82,-1
 822 444 l 1,83,-1
 822 624 l 2,84,85
 822 638 822 638 813 648 c 0,86,87
 804 658 804 658 790 658 c 2,88,-1
 256 658 l 2,89,90
 242 658 242 658 232 648 c 0,91,92
 222 638 222 638 222 624 c 2,93,-1
 222 258 l 1,94,-1
 156 124 l 2,95,96
 154 120 154 120 148 110 c 0,97,98
 138 90 138 90 133 79 c 0,99,100
 128 68 128 68 121 51 c 0,101,102
 114 34 114 34 114 25 c 0,0,1
320 324 m 1,103,-1
 320 564 l 1,104,-1
 724 564 l 1,105,-1
 724 324 l 1,106,-1
 320 324 l 1,103,-1
796 1178 m 1,107,-1
 796 1418 l 1,108,-1
 1202 1418 l 1,109,-1
 1202 1178 l 1,110,-1
 796 1178 l 1,107,-1
1280 324 m 1,111,-1
 1280 564 l 1,112,-1
 1684 564 l 1,113,-1
 1684 324 l 1,114,-1
 1280 324 l 1,111,-1
EndSplineSet
Validated: 41
EndChar

StartChar: uni00B9
Encoding: 65 185 64
Width: 2048
LayerCount: 2
Fore
SplineSet
120 868 m 0,0,1
 120 658 120 658 214 474 c 1,2,-1
 904 844 l 1,3,-1
 352 1456 l 1,4,5
 352 1458 352 1458 350 1460 c 1,6,7
 240 1342 240 1342 180 1189 c 0,8,9
 120 1036 120 1036 120 868 c 0,0,1
274 370 m 1,10,11
 396 194 396 194 587 91 c 0,12,13
 778 -12 778 -12 1000 -12 c 0,14,15
 1364 -12 1364 -12 1622 246 c 0,16,17
 1880 504 1880 504 1880 868 c 0,18,19
 1880 1098 1880 1098 1771 1295 c 0,20,21
 1662 1492 1662 1492 1473 1612 c 0,22,23
 1284 1732 1284 1732 1058 1746 c 1,24,25
 1060 1634 1060 1634 1060 888 c 2,26,-1
 1060 798 l 1,27,28
 980 748 980 748 976 746 c 2,29,-1
 274 370 l 1,10,11
436 1544 m 1,30,31
 440 1540 440 1540 442 1536 c 1,32,-1
 940 984 l 1,33,34
 940 1528 940 1528 942 1746 c 1,35,36
 656 1728 656 1728 436 1544 c 1,30,31
EndSplineSet
Validated: 9
EndChar

StartChar: ordmasculine
Encoding: 66 186 65
Width: 2048
LayerCount: 2
Fore
SplineSet
322 -10 m 1,0,-1
 382 -10 l 1,1,-1
 1618 -10 l 1,2,-1
 1678 -10 l 1,3,-1
 1678 50 l 1,4,-1
 1678 1354 l 1,5,-1
 1678 1414 l 1,6,-1
 1618 1414 l 1,7,-1
 1302 1414 l 1,8,9
 1292 1424 1292 1424 1280 1434 c 0,10,11
 1230 1478 1230 1478 1160 1502 c 1,12,13
 1178 1542 1178 1542 1178 1586 c 0,14,15
 1178 1666 1178 1666 1125 1722 c 0,16,17
 1072 1778 1072 1778 997 1778 c 0,18,19
 922 1778 922 1778 869 1722 c 0,20,21
 816 1666 816 1666 816 1586 c 0,22,23
 816 1542 816 1542 834 1502 c 1,24,25
 764 1478 764 1478 714 1434 c 0,26,27
 704 1426 704 1426 694 1414 c 1,28,-1
 382 1414 l 1,29,-1
 322 1414 l 1,30,-1
 322 1354 l 1,31,-1
 322 50 l 1,32,-1
 322 -10 l 1,0,-1
486 1294 m 1,33,-1
 664 1294 l 1,34,35
 662 1286 662 1286 662 1276 c 0,36,37
 662 1258 662 1258 666 1242 c 1,38,-1
 672 1208 l 1,39,-1
 704 1208 l 1,40,-1
 1288 1208 l 1,41,-1
 1320 1208 l 1,42,-1
 1326 1242 l 1,43,44
 1330 1258 1330 1258 1330 1276 c 0,45,46
 1330 1286 1330 1286 1328 1294 c 1,47,-1
 1510 1294 l 1,48,-1
 1510 170 l 1,49,-1
 720 170 l 1,50,51
 480 529 480 529 480 1100 c 0,52,53
 480 1194 480 1194 486 1294 c 1,33,-1
752 1304 m 1,54,55
 760 1338 760 1338 794 1368 c 1,56,57
 874 1444 874 1444 1000 1444 c 0,58,59
 1122 1444 1122 1444 1196 1368 c 1,60,61
 1232 1338 1232 1338 1238 1304 c 1,62,-1
 1240 1304 l 1,63,-1
 1240 1302 l 1,64,-1
 754 1302 l 1,65,-1
 754 1304 l 1,66,-1
 752 1304 l 1,54,55
913 1597 m 0,67,68
 913 1626 913 1626 936 1648 c 0,69,70
 962 1674 962 1674 998 1674 c 0,71,72
 1032 1674 1032 1674 1056 1649 c 0,73,74
 1080 1624 1080 1624 1080 1588 c 1,75,76
 1074 1540 1074 1540 1036 1521 c 0,77,78
 1017 1511 1017 1511 997.5 1511.5 c 0,79,80
 978 1512 978 1512 959 1521 c 0,81,82
 913 1543 913 1543 913 1597 c 0,67,68
EndSplineSet
Validated: 9
EndChar

StartChar: OE
Encoding: 67 338 66
Width: 4096
LayerCount: 2
Fore
SplineSet
2170 58 m 2,0,1
 2170 28 2170 28 2192 7 c 0,2,3
 2214 -14 2214 -14 2244 -14 c 2,4,-1
 3852 -14 l 2,5,6
 3882 -14 3882 -14 3904 7 c 0,7,8
 3926 28 3926 28 3926 58 c 2,9,-1
 3926 1010 l 2,10,11
 3926 1042 3926 1042 3902 1064 c 1,12,13
 3880 1082 3880 1082 3824 1133 c 0,14,15
 3768 1184 3768 1184 3746 1203 c 0,16,17
 3724 1222 3724 1222 3679 1262 c 0,18,19
 3634 1302 3634 1302 3609 1323 c 0,20,21
 3584 1344 3584 1344 3549 1374 c 0,22,23
 3514 1404 3514 1404 3486 1426 c 2,24,-1
 3430 1470 l 1,25,26
 3218 1628 3218 1628 3056 1638 c 1,27,-1
 3032 1638 l 1,28,-1
 3027 1638 l 2,29,30
 2863 1638 2863 1638 2670 1502 c 1,31,32
 2500 1380 2500 1380 2190 1060 c 0,33,34
 2170 1038 2170 1038 2170 1010 c 2,35,-1
 2170 58 l 2,0,1
2210 88 m 1,36,-1
 2278 28 l 1,37,-1
 2850 670 l 1,38,-1
 3246 670 l 1,39,-1
 3818 28 l 1,40,-1
 3886 88 l 1,41,-1
 3436 596 l 1,42,-1
 3882 974 l 1,43,-1
 3824 1044 l 1,44,-1
 3374 664 l 1,45,-1
 3302 748 l 1,46,-1
 3288 762 l 1,47,-1
 3268 762 l 1,48,-1
 2828 762 l 1,49,-1
 2808 762 l 1,50,-1
 2794 748 l 1,51,-1
 2722 664 l 1,52,-1
 2272 1044 l 1,53,-1
 2214 974 l 1,54,-1
 2660 596 l 1,55,-1
 2210 88 l 1,36,-1
2316 132 m 1,56,-1
 2316 980 l 1,57,58
 2602 1272 2602 1272 2756 1382 c 1,59,60
 2902 1488 2902 1488 3014 1492 c 0,61,62
 3022 1493 3022 1493 3030 1493 c 2,63,-1
 3046 1492 l 2,64,65
 3166 1484 3166 1484 3344 1352 c 1,66,67
 3450 1272 3450 1272 3780 976 c 1,68,-1
 3780 132 l 1,69,-1
 2316 132 l 1,56,-1
120 188 m 2,70,71
 120 104 120 104 178 46 c 0,72,73
 236 -12 236 -12 320 -12 c 2,74,-1
 1680 -12 l 2,75,76
 1764 -12 1764 -12 1822 46 c 0,77,78
 1880 104 1880 104 1880 188 c 2,79,-1
 1880 1548 l 2,80,81
 1880 1632 1880 1632 1822 1690 c 0,82,83
 1764 1748 1764 1748 1680 1748 c 2,84,-1
 320 1748 l 2,85,86
 236 1748 236 1748 178 1690 c 0,87,88
 120 1632 120 1632 120 1548 c 2,89,-1
 120 188 l 2,70,71
378 778 m 1,90,-1
 508 1000 l 1,91,92
 534 978 534 978 607 913 c 0,93,94
 680 848 680 848 738 796 c 0,95,96
 796 744 796 744 844 700 c 1,97,98
 952 910 952 910 1119 1099 c 0,99,100
 1286 1288 1286 1288 1520 1506 c 1,101,-1
 1640 1306 l 1,102,103
 1412 1096 1412 1096 1258 889 c 0,104,105
 1104 682 1104 682 1006 430 c 1,106,-1
 924 222 l 1,107,-1
 780 398 l 2,108,109
 736 452 736 452 683 504 c 0,110,111
 630 556 630 556 592 590 c 0,112,113
 554 624 554 624 485 683 c 0,114,115
 416 742 416 742 378 778 c 1,90,-1
EndSplineSet
Validated: 5
EndChar

StartChar: oe
Encoding: 68 339 67
Width: 4096
LayerCount: 2
Fore
SplineSet
2180 78 m 2,0,1
 2180 40 2180 40 2207 14 c 0,2,3
 2234 -12 2234 -12 2270 -12 c 2,4,-1
 3560 -12 l 2,5,6
 3596 -12 3596 -12 3623 14 c 0,7,8
 3650 40 3650 40 3650 78 c 2,9,-1
 3650 932 l 1,10,-1
 3470 754 l 1,11,-1
 3470 168 l 1,12,-1
 2360 168 l 1,13,-1
 2360 1212 l 1,14,-1
 3004 1212 l 1,15,-1
 3184 1392 l 1,16,-1
 2270 1392 l 2,17,18
 2234 1392 2234 1392 2207 1366 c 0,19,20
 2180 1340 2180 1340 2180 1302 c 2,21,-1
 2180 78 l 2,0,1
2828 902 m 1,22,-1
 3154 576 l 1,23,-1
 3696 1118 l 1,24,-1
 3864 946 l 1,25,-1
 3916 1680 l 1,26,-1
 3208 1600 l 1,27,-1
 3370 1444 l 1,28,-1
 2828 902 l 1,22,-1
322 -10 m 1,29,-1
 382 -10 l 1,30,-1
 1618 -10 l 1,31,-1
 1678 -10 l 1,32,-1
 1678 50 l 1,33,-1
 1678 1354 l 1,34,-1
 1678 1414 l 1,35,-1
 1618 1414 l 1,36,-1
 1302 1414 l 1,37,38
 1292 1424 1292 1424 1280 1434 c 0,39,40
 1230 1478 1230 1478 1160 1502 c 1,41,42
 1178 1542 1178 1542 1178 1586 c 0,43,44
 1178 1666 1178 1666 1125 1722 c 0,45,46
 1072 1778 1072 1778 997 1778 c 0,47,48
 922 1778 922 1778 869 1722 c 0,49,50
 816 1666 816 1666 816 1586 c 0,51,52
 816 1542 816 1542 834 1502 c 1,53,54
 764 1478 764 1478 714 1434 c 0,55,56
 704 1426 704 1426 694 1414 c 1,57,-1
 382 1414 l 1,58,-1
 322 1414 l 1,59,-1
 322 1354 l 1,60,-1
 322 50 l 1,61,-1
 322 -10 l 1,29,-1
486 1294 m 1,62,-1
 664 1294 l 1,63,64
 662 1286 662 1286 662 1276 c 0,65,66
 662 1258 662 1258 666 1242 c 1,67,-1
 672 1208 l 1,68,-1
 704 1208 l 1,69,-1
 1288 1208 l 1,70,-1
 1320 1208 l 1,71,-1
 1326 1242 l 1,72,73
 1330 1258 1330 1258 1330 1276 c 0,74,75
 1330 1286 1330 1286 1328 1294 c 1,76,-1
 1510 1294 l 1,77,-1
 1510 170 l 1,78,-1
 720 170 l 1,79,80
 480 529 480 529 480 1100 c 0,81,82
 480 1194 480 1194 486 1294 c 1,62,-1
752 1304 m 1,83,84
 760 1338 760 1338 794 1368 c 1,85,86
 874 1444 874 1444 1000 1444 c 0,87,88
 1122 1444 1122 1444 1196 1368 c 1,89,90
 1232 1338 1232 1338 1238 1304 c 1,91,-1
 1240 1304 l 1,92,-1
 1240 1302 l 1,93,-1
 754 1302 l 1,94,-1
 754 1304 l 1,95,-1
 752 1304 l 1,83,84
913 1597 m 0,96,97
 913 1626 913 1626 936 1648 c 0,98,99
 962 1674 962 1674 998 1674 c 0,100,101
 1032 1674 1032 1674 1056 1649 c 0,102,103
 1080 1624 1080 1624 1080 1588 c 1,104,105
 1074 1540 1074 1540 1036 1521 c 0,106,107
 1017 1511 1017 1511 997.5 1511.5 c 0,108,109
 978 1512 978 1512 959 1521 c 0,110,111
 913 1543 913 1543 913 1597 c 0,96,97
EndSplineSet
Validated: 9
EndChar

StartChar: uni2010
Encoding: 80 8208 68
Width: 2048
LayerCount: 2
Fore
SplineSet
120 868 m 0,0,1
 120 504 120 504 378 246 c 0,2,3
 636 -12 636 -12 1000 -12 c 0,4,5
 1364 -12 1364 -12 1622 246 c 0,6,7
 1880 504 1880 504 1880 868 c 0,8,9
 1880 1232 1880 1232 1622 1490 c 0,10,11
 1364 1748 1364 1748 1000 1748 c 0,12,13
 636 1748 636 1748 378 1490 c 0,14,15
 120 1232 120 1232 120 868 c 0,0,1
534 734 m 1,16,-1
 534 1002 l 1,17,-1
 1466 1002 l 1,18,-1
 1466 734 l 1,19,-1
 534 734 l 1,16,-1
EndSplineSet
Validated: 9
EndChar

StartChar: uni2011
Encoding: 81 8209 69
Width: 2048
LayerCount: 2
Fore
SplineSet
120 868 m 0,0,1
 120 504 120 504 378 246 c 0,2,3
 636 -12 636 -12 1000 -12 c 0,4,5
 1364 -12 1364 -12 1622 246 c 0,6,7
 1880 504 1880 504 1880 868 c 0,8,9
 1880 1232 1880 1232 1622 1490 c 0,10,11
 1364 1748 1364 1748 1000 1748 c 0,12,13
 636 1748 636 1748 378 1490 c 0,14,15
 120 1232 120 1232 120 868 c 0,0,1
534 734 m 1,16,-1
 534 1002 l 1,17,-1
 1466 1002 l 1,18,-1
 1466 734 l 1,19,-1
 534 734 l 1,16,-1
EndSplineSet
Validated: 9
EndChar

StartChar: figuredash
Encoding: 82 8210 70
Width: 2048
LayerCount: 2
Fore
SplineSet
120 868 m 0,0,1
 120 504 120 504 378 246 c 0,2,3
 636 -12 636 -12 1000 -12 c 0,4,5
 1364 -12 1364 -12 1622 246 c 0,6,7
 1880 504 1880 504 1880 868 c 0,8,9
 1880 1232 1880 1232 1622 1490 c 0,10,11
 1364 1748 1364 1748 1000 1748 c 0,12,13
 636 1748 636 1748 378 1490 c 0,14,15
 120 1232 120 1232 120 868 c 0,0,1
534 734 m 1,16,-1
 534 1002 l 1,17,-1
 1466 1002 l 1,18,-1
 1466 734 l 1,19,-1
 534 734 l 1,16,-1
EndSplineSet
Validated: 9
EndChar

StartChar: endash
Encoding: 83 8211 71
Width: 1024
LayerCount: 2
Fore
SplineSet
120 -12 m 1,0,-1
 120 1748 l 1,1,-1
 856 1748 l 1,2,-1
 856 -12 l 1,3,-1
 120 -12 l 1,0,-1
EndSplineSet
Validated: 1
EndChar

StartChar: emdash
Encoding: 84 8212 72
Width: 2048
LayerCount: 2
Fore
SplineSet
120 -12 m 1,0,-1
 120 1748 l 1,1,-1
 1880 1748 l 1,2,-1
 1880 -12 l 1,3,-1
 120 -12 l 1,0,-1
EndSplineSet
Validated: 1
EndChar

StartChar: trademark
Encoding: 87 8482 73
Width: 4096
LayerCount: 2
Fore
SplineSet
2180 166 m 0,0,1
 2179 155 2179 155 2179 145 c 0,2,3
 2179 79 2179 79 2224 35 c 0,4,5
 2270 -10 2270 -10 2337 -10 c 0,6,7
 2346 -10 2346 -10 2356 -9 c 0,8,9
 2436 -2 2436 -2 2498 60 c 2,10,-1
 2860 422 l 2,11,12
 2930 492 2930 492 2930 580 c 1,13,14
 2934 604 2934 604 2930 630 c 1,15,-1
 3014 714 l 1,16,17
 3163 600 3163 600 3351 600 c 0,18,19
 3370 600 3370 600 3390 601 c 0,20,21
 3602 614 3602 614 3752 764 c 1,22,23
 3916 930 3916 930 3916 1163 c 0,24,25
 3916 1396 3916 1396 3752 1560 c 0,26,27
 3588 1724 3588 1724 3355 1724 c 0,28,29
 3122 1724 3122 1724 2956 1560 c 1,30,31
 2808 1410 2808 1410 2793 1200 c 0,32,33
 2791 1178 2791 1178 2791 1156 c 0,34,35
 2791 973 2791 973 2904 824 c 1,36,-1
 2816 738 l 1,37,38
 2806 740 2806 740 2794 740 c 1,39,40
 2781 742 2781 742 2768 742 c 0,41,42
 2681 742 2681 742 2612 670 c 1,43,-1
 2250 310 l 1,44,45
 2188 246 2188 246 2180 166 c 0,0,1
2956 1163 m 0,46,47
 2956 1328 2956 1328 3073 1444 c 0,48,49
 3190 1560 3190 1560 3355 1560 c 0,50,51
 3520 1560 3520 1560 3636 1444 c 0,52,53
 3752 1328 3752 1328 3752 1163 c 0,54,55
 3752 998 3752 998 3636 881 c 0,56,57
 3520 764 3520 764 3355 764 c 0,58,59
 3190 764 3190 764 3073 881 c 0,60,61
 2956 998 2956 998 2956 1163 c 0,46,47
280 716 m 0,62,63
 280 520 280 520 376 354 c 0,64,65
 472 188 472 188 638 92 c 0,66,67
 804 -4 804 -4 1000 -4 c 0,68,69
 1196 -4 1196 -4 1362 92 c 0,70,71
 1528 188 1528 188 1624 354 c 0,72,73
 1720 520 1720 520 1720 716 c 0,74,75
 1720 980 1720 980 1549 1181 c 0,76,77
 1378 1382 1378 1382 1120 1426 c 1,78,-1
 1120 1548 l 1,79,-1
 1130 1548 l 2,80,81
 1160 1548 1160 1548 1180 1568 c 0,82,83
 1200 1588 1200 1588 1200 1618 c 0,84,85
 1200 1648 1200 1648 1180 1668 c 0,86,87
 1160 1688 1160 1688 1130 1688 c 2,88,-1
 870 1688 l 2,89,90
 840 1688 840 1688 820 1668 c 0,91,92
 800 1648 800 1648 800 1618 c 0,93,94
 800 1588 800 1588 820 1568 c 0,95,96
 840 1548 840 1548 870 1548 c 2,97,-1
 880 1548 l 1,98,-1
 880 1426 l 1,99,100
 622 1382 622 1382 451 1181 c 0,101,102
 280 980 280 980 280 716 c 0,62,63
428 715 m 0,103,104
 428 952 428 952 595 1120 c 0,105,106
 762 1288 762 1288 1000 1288 c 0,107,108
 1238 1288 1238 1288 1405 1120 c 0,109,110
 1572 952 1572 952 1572 715 c 0,111,112
 1572 478 1572 478 1405 310 c 0,113,114
 1238 142 1238 142 1000 142 c 0,115,116
 762 142 762 142 595 310 c 0,117,118
 428 478 428 478 428 715 c 0,103,104
934 674 m 2,119,120
 934 658 934 658 946 646 c 0,121,122
 958 634 958 634 976 634 c 2,123,-1
 984 634 l 1,124,-1
 1000 634 l 1,125,-1
 1040 634 l 1,126,-1
 1302 860 l 1,127,-1
 1332 972 l 1,128,-1
 1216 958 l 1,129,-1
 1066 826 l 1,130,-1
 1066 1126 l 1,131,-1
 1000 1222 l 1,132,-1
 934 1126 l 1,133,-1
 934 698 l 1,134,-1
 934 682 l 1,135,-1
 934 674 l 2,119,120
EndSplineSet
Validated: 9
EndChar

StartChar: uniE000
Encoding: 88 57344 74
Width: 500
LayerCount: 2
Fore
SplineSet
0 0 m 1,0,-1
 0 0 l 1,1,-1
 0 0 l 1,2,-1
 0 0 l 1,3,-1
 0 0 l 1,0,-1
EndSplineSet
Validated: 5
EndChar

StartChar: uniFB01
Encoding: 89 64257 75
Width: 4096
LayerCount: 2
Fore
SplineSet
2168 188 m 2,0,1
 2168 104 2168 104 2226 46 c 0,2,3
 2284 -12 2284 -12 2368 -12 c 2,4,-1
 3728 -12 l 2,5,6
 3812 -12 3812 -12 3870 46 c 0,7,8
 3928 104 3928 104 3928 188 c 2,9,-1
 3928 1548 l 2,10,11
 3928 1632 3928 1632 3870 1690 c 0,12,13
 3812 1748 3812 1748 3728 1748 c 2,14,-1
 2368 1748 l 2,15,16
 2284 1748 2284 1748 2226 1690 c 0,17,18
 2168 1632 2168 1632 2168 1548 c 2,19,-1
 2168 188 l 2,0,1
2768 188 m 1,20,-1
 2768 308 l 1,21,-1
 2928 308 l 1,22,-1
 2928 988 l 1,23,-1
 2808 988 l 1,24,-1
 2808 1068 l 1,25,-1
 3128 1068 l 1,26,-1
 3168 1068 l 1,27,-1
 3168 308 l 1,28,-1
 3328 308 l 1,29,-1
 3328 188 l 1,30,-1
 2768 188 l 1,20,-1
2868 1344 m 0,31,32
 2868 1418 2868 1418 2921 1471 c 0,33,34
 2974 1524 2974 1524 3048 1524 c 0,35,36
 3122 1524 3122 1524 3175 1471 c 0,37,38
 3228 1418 3228 1418 3228 1344 c 0,39,40
 3228 1270 3228 1270 3175 1217 c 0,41,42
 3122 1164 3122 1164 3048 1164 c 0,43,44
 2974 1164 2974 1164 2921 1217 c 0,45,46
 2868 1270 2868 1270 2868 1344 c 0,31,32
338 1667 m 0,47,48
 338 1712 338 1712 370 1744 c 0,49,50
 402 1776 402 1776 446 1776 c 0,51,52
 490 1776 490 1776 522 1744 c 0,53,54
 554 1712 554 1712 554 1667 c 0,55,56
 554 1622 554 1622 522 1590 c 0,57,58
 490 1558 490 1558 446 1558 c 0,59,60
 402 1558 402 1558 370 1590 c 0,61,62
 338 1622 338 1622 338 1667 c 0,47,48
384 50 m 2,63,-1
 384 1420 l 2,64,65
 384 1448 384 1448 402 1466 c 0,66,67
 420 1484 420 1484 446 1484 c 0,68,69
 472 1484 472 1484 491 1466 c 0,70,71
 510 1448 510 1448 510 1420 c 2,72,-1
 510 50 l 2,73,74
 510 24 510 24 491 5 c 0,75,76
 472 -14 472 -14 446 -14 c 0,77,78
 420 -14 420 -14 402 5 c 0,79,80
 384 24 384 24 384 50 c 2,63,-1
610 714 m 1,81,-1
 610 1442 l 1,82,83
 720 1536 720 1536 856 1539 c 1,84,-1
 864 1539 l 2,85,86
 997 1539 997 1539 1156 1442 c 1,87,88
 1226 1406 1226 1406 1284 1386 c 0,89,90
 1342 1366 1342 1366 1407 1358 c 0,91,92
 1425 1356 1425 1356 1443 1356 c 0,93,94
 1490 1356 1490 1356 1536 1371 c 0,95,96
 1600 1392 1600 1392 1662 1442 c 1,97,-1
 1662 714 l 1,98,99
 1559 638 1559 638 1432.5 638 c 0,100,101
 1306 638 1306 638 1156 714 c 0,102,103
 1146 718 1146 718 1103 734 c 0,104,105
 1060 750 1060 750 1045 755 c 0,106,107
 1030 760 1030 760 990 773 c 0,108,109
 950 786 950 786 929 788 c 0,110,111
 908 790 908 790 870 795 c 0,112,113
 853 797 853 797 838 797 c 0,114,115
 820 797 820 797 805 794 c 0,116,117
 778 788 778 788 743 781 c 0,118,119
 708 774 708 774 676 756 c 0,120,121
 644 738 644 738 610 714 c 1,81,-1
EndSplineSet
Validated: 9
EndChar

StartChar: uniFB02
Encoding: 90 64258 76
Width: 4096
LayerCount: 2
Fore
SplineSet
2488 1184 m 0,0,1
 2488 970 2488 970 2632 812 c 1,2,-1
 2632 810 l 1,3,4
 2636 804 2636 804 2638 800 c 0,5,6
 2648 786 2648 786 2660 766 c 0,7,8
 2688 716 2688 716 2710 668 c 1,9,10
 2732 616 2732 616 2748 564 c 0,11,12
 2752 550 2752 550 2756 534 c 0,13,14
 2760 518 2760 518 2761 511 c 2,15,-1
 2762 504 l 1,16,-1
 2762 452 l 1,17,-1
 2762 388 l 1,18,-1
 2826 388 l 1,19,-1
 2878 388 l 1,20,-1
 3218 388 l 1,21,-1
 3270 388 l 1,22,-1
 3334 388 l 1,23,-1
 3334 452 l 1,24,-1
 3334 504 l 1,25,-1
 3334 507 l 2,26,27
 3334 510 3334 510 3335 516 c 0,28,29
 3336 522 3336 522 3338 529 c 0,30,31
 3340 536 3340 536 3342 546 c 0,32,33
 3344 556 3344 556 3348 564 c 1,34,35
 3364 616 3364 616 3386 668 c 0,36,37
 3408 720 3408 720 3432 762 c 0,38,39
 3442 780 3442 780 3452 796 c 0,40,41
 3458 804 3458 804 3460 806 c 0,42,43
 3608 966 3608 966 3608 1184 c 0,44,45
 3608 1414 3608 1414 3443 1577 c 0,46,47
 3278 1740 3278 1740 3048 1740 c 0,48,49
 2818 1740 2818 1740 2653 1577 c 0,50,51
 2488 1414 2488 1414 2488 1184 c 0,0,1
2616 1184 m 0,52,53
 2616 1362 2616 1362 2743 1487 c 0,54,55
 2870 1612 2870 1612 3048 1612 c 0,56,57
 3226 1612 3226 1612 3353 1487 c 0,58,59
 3480 1362 3480 1362 3480 1184 c 0,60,61
 3480 1016 3480 1016 3366 894 c 0,62,63
 3358 886 3358 886 3346 866 c 1,64,65
 3332 846 3332 846 3320 826 c 1,66,67
 3294 778 3294 778 3268 720 c 0,68,69
 3242 662 3242 662 3224 602 c 0,70,71
 3208 546 3208 546 3206 516 c 1,72,-1
 2890 516 l 1,73,74
 2888 546 2888 546 2872 602 c 1,75,76
 2852 662 2852 662 2826 720 c 0,77,78
 2802 774 2802 774 2770 830 c 0,79,80
 2758 852 2758 852 2748 870 c 1,81,82
 2734 888 2734 888 2726 898 c 0,83,84
 2616 1020 2616 1020 2616 1184 c 0,52,53
2800 1096 m 1,85,-1
 2902 894 l 1,86,-1
 2946 802 l 1,87,-1
 2992 894 l 1,88,-1
 3048 1006 l 1,89,-1
 3104 894 l 1,90,-1
 3150 802 l 1,91,-1
 3194 894 l 1,92,-1
 3296 1096 l 1,93,-1
 3206 1142 l 1,94,-1
 3150 1030 l 1,95,-1
 3094 1142 l 1,96,-1
 3048 1232 l 1,97,-1
 3002 1142 l 1,98,-1
 2946 1030 l 1,99,-1
 2890 1142 l 1,100,-1
 2800 1096 l 1,85,-1
2826 332 m 1,101,-1
 2846 184 l 1,102,-1
 3250 184 l 1,103,-1
 3268 332 l 1,104,-1
 2826 332 l 1,101,-1
2912 130 m 1,105,106
 2920 70 2920 70 2958 30 c 0,107,108
 2996 -10 2996 -10 3048 -10 c 0,109,110
 3100 -10 3100 -10 3138 30 c 0,111,112
 3176 70 3176 70 3184 130 c 1,113,-1
 2912 130 l 1,105,106
338 1667 m 0,114,115
 338 1712 338 1712 370 1744 c 0,116,117
 402 1776 402 1776 446 1776 c 0,118,119
 490 1776 490 1776 522 1744 c 0,120,121
 554 1712 554 1712 554 1667 c 0,122,123
 554 1622 554 1622 522 1590 c 0,124,125
 490 1558 490 1558 446 1558 c 0,126,127
 402 1558 402 1558 370 1590 c 0,128,129
 338 1622 338 1622 338 1667 c 0,114,115
384 50 m 2,130,-1
 384 1420 l 2,131,132
 384 1448 384 1448 402 1466 c 0,133,134
 420 1484 420 1484 446 1484 c 0,135,136
 472 1484 472 1484 491 1466 c 0,137,138
 510 1448 510 1448 510 1420 c 2,139,-1
 510 50 l 2,140,141
 510 24 510 24 491 5 c 0,142,143
 472 -14 472 -14 446 -14 c 0,144,145
 420 -14 420 -14 402 5 c 0,146,147
 384 24 384 24 384 50 c 2,130,-1
610 714 m 1,148,-1
 610 1442 l 1,149,150
 720 1536 720 1536 856 1539 c 1,151,-1
 864 1539 l 2,152,153
 997 1539 997 1539 1156 1442 c 1,154,155
 1226 1406 1226 1406 1284 1386 c 0,156,157
 1342 1366 1342 1366 1407 1358 c 0,158,159
 1425 1356 1425 1356 1443 1356 c 0,160,161
 1490 1356 1490 1356 1536 1371 c 0,162,163
 1600 1392 1600 1392 1662 1442 c 1,164,-1
 1662 714 l 1,165,166
 1559 638 1559 638 1432.5 638 c 0,167,168
 1306 638 1306 638 1156 714 c 0,169,170
 1146 718 1146 718 1103 734 c 0,171,172
 1060 750 1060 750 1045 755 c 0,173,174
 1030 760 1030 760 990 773 c 0,175,176
 950 786 950 786 929 788 c 0,177,178
 908 790 908 790 870 795 c 0,179,180
 853 797 853 797 838 797 c 0,181,182
 820 797 820 797 805 794 c 0,183,184
 778 788 778 788 743 781 c 0,185,186
 708 774 708 774 676 756 c 0,187,188
 644 738 644 738 610 714 c 1,148,-1
EndSplineSet
Validated: 9
EndChar

StartChar: uniFB03
Encoding: 91 64259 77
Width: 6144
LayerCount: 2
Fore
SplineSet
4216 188 m 2,0,1
 4216 104 4216 104 4274 46 c 0,2,3
 4332 -12 4332 -12 4416 -12 c 2,4,-1
 5776 -12 l 2,5,6
 5860 -12 5860 -12 5918 46 c 0,7,8
 5976 104 5976 104 5976 188 c 2,9,-1
 5976 1548 l 2,10,11
 5976 1632 5976 1632 5918 1690 c 0,12,13
 5860 1748 5860 1748 5776 1748 c 2,14,-1
 4416 1748 l 2,15,16
 4332 1748 4332 1748 4274 1690 c 0,17,18
 4216 1632 4216 1632 4216 1548 c 2,19,-1
 4216 188 l 2,0,1
4816 188 m 1,20,-1
 4816 308 l 1,21,-1
 4976 308 l 1,22,-1
 4976 988 l 1,23,-1
 4856 988 l 1,24,-1
 4856 1068 l 1,25,-1
 5176 1068 l 1,26,-1
 5216 1068 l 1,27,-1
 5216 308 l 1,28,-1
 5376 308 l 1,29,-1
 5376 188 l 1,30,-1
 4816 188 l 1,20,-1
4916 1344 m 0,31,32
 4916 1418 4916 1418 4969 1471 c 0,33,34
 5022 1524 5022 1524 5096 1524 c 0,35,36
 5170 1524 5170 1524 5223 1471 c 0,37,38
 5276 1418 5276 1418 5276 1344 c 0,39,40
 5276 1270 5276 1270 5223 1217 c 0,41,42
 5170 1164 5170 1164 5096 1164 c 0,43,44
 5022 1164 5022 1164 4969 1217 c 0,45,46
 4916 1270 4916 1270 4916 1344 c 0,31,32
2386 1667 m 0,47,48
 2386 1712 2386 1712 2418 1744 c 0,49,50
 2450 1776 2450 1776 2494 1776 c 0,51,52
 2538 1776 2538 1776 2570 1744 c 0,53,54
 2602 1712 2602 1712 2602 1667 c 0,55,56
 2602 1622 2602 1622 2570 1590 c 0,57,58
 2538 1558 2538 1558 2494 1558 c 0,59,60
 2450 1558 2450 1558 2418 1590 c 0,61,62
 2386 1622 2386 1622 2386 1667 c 0,47,48
2432 50 m 2,63,-1
 2432 1420 l 2,64,65
 2432 1448 2432 1448 2450 1466 c 0,66,67
 2468 1484 2468 1484 2494 1484 c 0,68,69
 2520 1484 2520 1484 2539 1466 c 0,70,71
 2558 1448 2558 1448 2558 1420 c 2,72,-1
 2558 50 l 2,73,74
 2558 24 2558 24 2539 5 c 0,75,76
 2520 -14 2520 -14 2494 -14 c 0,77,78
 2468 -14 2468 -14 2450 5 c 0,79,80
 2432 24 2432 24 2432 50 c 2,63,-1
2658 714 m 1,81,-1
 2658 1442 l 1,82,83
 2768 1536 2768 1536 2904 1539 c 1,84,-1
 2912 1539 l 2,85,86
 3045 1539 3045 1539 3204 1442 c 1,87,88
 3274 1406 3274 1406 3332 1386 c 0,89,90
 3390 1366 3390 1366 3455 1358 c 0,91,92
 3473 1356 3473 1356 3491 1356 c 0,93,94
 3538 1356 3538 1356 3584 1371 c 0,95,96
 3648 1392 3648 1392 3710 1442 c 1,97,-1
 3710 714 l 1,98,99
 3607 638 3607 638 3480.5 638 c 0,100,101
 3354 638 3354 638 3204 714 c 0,102,103
 3194 718 3194 718 3151 734 c 0,104,105
 3108 750 3108 750 3093 755 c 0,106,107
 3078 760 3078 760 3038 773 c 0,108,109
 2998 786 2998 786 2977 788 c 0,110,111
 2956 790 2956 790 2918 795 c 0,112,113
 2901 797 2901 797 2886 797 c 0,114,115
 2868 797 2868 797 2853 794 c 0,116,117
 2826 788 2826 788 2791 781 c 0,118,119
 2756 774 2756 774 2724 756 c 0,120,121
 2692 738 2692 738 2658 714 c 1,81,-1
338 1667 m 0,122,123
 338 1712 338 1712 370 1744 c 0,124,125
 402 1776 402 1776 446 1776 c 0,126,127
 490 1776 490 1776 522 1744 c 0,128,129
 554 1712 554 1712 554 1667 c 0,130,131
 554 1622 554 1622 522 1590 c 0,132,133
 490 1558 490 1558 446 1558 c 0,134,135
 402 1558 402 1558 370 1590 c 0,136,137
 338 1622 338 1622 338 1667 c 0,122,123
384 50 m 2,138,-1
 384 1420 l 2,139,140
 384 1448 384 1448 402 1466 c 0,141,142
 420 1484 420 1484 446 1484 c 0,143,144
 472 1484 472 1484 491 1466 c 0,145,146
 510 1448 510 1448 510 1420 c 2,147,-1
 510 50 l 2,148,149
 510 24 510 24 491 5 c 0,150,151
 472 -14 472 -14 446 -14 c 0,152,153
 420 -14 420 -14 402 5 c 0,154,155
 384 24 384 24 384 50 c 2,138,-1
610 714 m 1,156,-1
 610 1442 l 1,157,158
 720 1536 720 1536 856 1539 c 1,159,-1
 864 1539 l 2,160,161
 997 1539 997 1539 1156 1442 c 1,162,163
 1226 1406 1226 1406 1284 1386 c 0,164,165
 1342 1366 1342 1366 1407 1358 c 0,166,167
 1425 1356 1425 1356 1443 1356 c 0,168,169
 1490 1356 1490 1356 1536 1371 c 0,170,171
 1600 1392 1600 1392 1662 1442 c 1,172,-1
 1662 714 l 1,173,174
 1559 638 1559 638 1432.5 638 c 0,175,176
 1306 638 1306 638 1156 714 c 0,177,178
 1146 718 1146 718 1103 734 c 0,179,180
 1060 750 1060 750 1045 755 c 0,181,182
 1030 760 1030 760 990 773 c 0,183,184
 950 786 950 786 929 788 c 0,185,186
 908 790 908 790 870 795 c 0,187,188
 853 797 853 797 838 797 c 0,189,190
 820 797 820 797 805 794 c 0,191,192
 778 788 778 788 743 781 c 0,193,194
 708 774 708 774 676 756 c 0,195,196
 644 738 644 738 610 714 c 1,156,-1
EndSplineSet
Validated: 9
EndChar

StartChar: uniFB04
Encoding: 92 64260 78
Width: 6144
LayerCount: 2
Fore
SplineSet
4536 1184 m 0,0,1
 4536 970 4536 970 4680 812 c 1,2,-1
 4680 810 l 1,3,4
 4684 804 4684 804 4686 800 c 0,5,6
 4696 786 4696 786 4708 766 c 0,7,8
 4736 716 4736 716 4758 668 c 1,9,10
 4780 616 4780 616 4796 564 c 0,11,12
 4800 550 4800 550 4804 534 c 0,13,14
 4808 518 4808 518 4809 511 c 2,15,-1
 4810 504 l 1,16,-1
 4810 452 l 1,17,-1
 4810 388 l 1,18,-1
 4874 388 l 1,19,-1
 4926 388 l 1,20,-1
 5266 388 l 1,21,-1
 5318 388 l 1,22,-1
 5382 388 l 1,23,-1
 5382 452 l 1,24,-1
 5382 504 l 1,25,-1
 5382 507 l 2,26,27
 5382 510 5382 510 5383 516 c 0,28,29
 5384 522 5384 522 5386 529 c 0,30,31
 5388 536 5388 536 5390 546 c 0,32,33
 5392 556 5392 556 5396 564 c 1,34,35
 5412 616 5412 616 5434 668 c 0,36,37
 5456 720 5456 720 5480 762 c 0,38,39
 5490 780 5490 780 5500 796 c 0,40,41
 5506 804 5506 804 5508 806 c 0,42,43
 5656 966 5656 966 5656 1184 c 0,44,45
 5656 1414 5656 1414 5491 1577 c 0,46,47
 5326 1740 5326 1740 5096 1740 c 0,48,49
 4866 1740 4866 1740 4701 1577 c 0,50,51
 4536 1414 4536 1414 4536 1184 c 0,0,1
4664 1184 m 0,52,53
 4664 1362 4664 1362 4791 1487 c 0,54,55
 4918 1612 4918 1612 5096 1612 c 0,56,57
 5274 1612 5274 1612 5401 1487 c 0,58,59
 5528 1362 5528 1362 5528 1184 c 0,60,61
 5528 1016 5528 1016 5414 894 c 0,62,63
 5406 886 5406 886 5394 866 c 1,64,65
 5380 846 5380 846 5368 826 c 1,66,67
 5342 778 5342 778 5316 720 c 0,68,69
 5290 662 5290 662 5272 602 c 0,70,71
 5256 546 5256 546 5254 516 c 1,72,-1
 4938 516 l 1,73,74
 4936 546 4936 546 4920 602 c 1,75,76
 4900 662 4900 662 4874 720 c 0,77,78
 4850 774 4850 774 4818 830 c 0,79,80
 4806 852 4806 852 4796 870 c 1,81,82
 4782 888 4782 888 4774 898 c 0,83,84
 4664 1020 4664 1020 4664 1184 c 0,52,53
4848 1096 m 1,85,-1
 4950 894 l 1,86,-1
 4994 802 l 1,87,-1
 5040 894 l 1,88,-1
 5096 1006 l 1,89,-1
 5152 894 l 1,90,-1
 5198 802 l 1,91,-1
 5242 894 l 1,92,-1
 5344 1096 l 1,93,-1
 5254 1142 l 1,94,-1
 5198 1030 l 1,95,-1
 5142 1142 l 1,96,-1
 5096 1232 l 1,97,-1
 5050 1142 l 1,98,-1
 4994 1030 l 1,99,-1
 4938 1142 l 1,100,-1
 4848 1096 l 1,85,-1
4874 332 m 1,101,-1
 4894 184 l 1,102,-1
 5298 184 l 1,103,-1
 5316 332 l 1,104,-1
 4874 332 l 1,101,-1
4960 130 m 1,105,106
 4968 70 4968 70 5006 30 c 0,107,108
 5044 -10 5044 -10 5096 -10 c 0,109,110
 5148 -10 5148 -10 5186 30 c 0,111,112
 5224 70 5224 70 5232 130 c 1,113,-1
 4960 130 l 1,105,106
2386 1667 m 0,114,115
 2386 1712 2386 1712 2418 1744 c 0,116,117
 2450 1776 2450 1776 2494 1776 c 0,118,119
 2538 1776 2538 1776 2570 1744 c 0,120,121
 2602 1712 2602 1712 2602 1667 c 0,122,123
 2602 1622 2602 1622 2570 1590 c 0,124,125
 2538 1558 2538 1558 2494 1558 c 0,126,127
 2450 1558 2450 1558 2418 1590 c 0,128,129
 2386 1622 2386 1622 2386 1667 c 0,114,115
2432 50 m 2,130,-1
 2432 1420 l 2,131,132
 2432 1448 2432 1448 2450 1466 c 0,133,134
 2468 1484 2468 1484 2494 1484 c 0,135,136
 2520 1484 2520 1484 2539 1466 c 0,137,138
 2558 1448 2558 1448 2558 1420 c 2,139,-1
 2558 50 l 2,140,141
 2558 24 2558 24 2539 5 c 0,142,143
 2520 -14 2520 -14 2494 -14 c 0,144,145
 2468 -14 2468 -14 2450 5 c 0,146,147
 2432 24 2432 24 2432 50 c 2,130,-1
2658 714 m 1,148,-1
 2658 1442 l 1,149,150
 2768 1536 2768 1536 2904 1539 c 1,151,-1
 2912 1539 l 2,152,153
 3045 1539 3045 1539 3204 1442 c 1,154,155
 3274 1406 3274 1406 3332 1386 c 0,156,157
 3390 1366 3390 1366 3455 1358 c 0,158,159
 3473 1356 3473 1356 3491 1356 c 0,160,161
 3538 1356 3538 1356 3584 1371 c 0,162,163
 3648 1392 3648 1392 3710 1442 c 1,164,-1
 3710 714 l 1,165,166
 3607 638 3607 638 3480.5 638 c 0,167,168
 3354 638 3354 638 3204 714 c 0,169,170
 3194 718 3194 718 3151 734 c 0,171,172
 3108 750 3108 750 3093 755 c 0,173,174
 3078 760 3078 760 3038 773 c 0,175,176
 2998 786 2998 786 2977 788 c 0,177,178
 2956 790 2956 790 2918 795 c 0,179,180
 2901 797 2901 797 2886 797 c 0,181,182
 2868 797 2868 797 2853 794 c 0,183,184
 2826 788 2826 788 2791 781 c 0,185,186
 2756 774 2756 774 2724 756 c 0,187,188
 2692 738 2692 738 2658 714 c 1,148,-1
338 1667 m 0,189,190
 338 1712 338 1712 370 1744 c 0,191,192
 402 1776 402 1776 446 1776 c 0,193,194
 490 1776 490 1776 522 1744 c 0,195,196
 554 1712 554 1712 554 1667 c 0,197,198
 554 1622 554 1622 522 1590 c 0,199,200
 490 1558 490 1558 446 1558 c 0,201,202
 402 1558 402 1558 370 1590 c 0,203,204
 338 1622 338 1622 338 1667 c 0,189,190
384 50 m 2,205,-1
 384 1420 l 2,206,207
 384 1448 384 1448 402 1466 c 0,208,209
 420 1484 420 1484 446 1484 c 0,210,211
 472 1484 472 1484 491 1466 c 0,212,213
 510 1448 510 1448 510 1420 c 2,214,-1
 510 50 l 2,215,216
 510 24 510 24 491 5 c 0,217,218
 472 -14 472 -14 446 -14 c 0,219,220
 420 -14 420 -14 402 5 c 0,221,222
 384 24 384 24 384 50 c 2,205,-1
610 714 m 1,223,-1
 610 1442 l 1,224,225
 720 1536 720 1536 856 1539 c 1,226,-1
 864 1539 l 2,227,228
 997 1539 997 1539 1156 1442 c 1,229,230
 1226 1406 1226 1406 1284 1386 c 0,231,232
 1342 1366 1342 1366 1407 1358 c 0,233,234
 1425 1356 1425 1356 1443 1356 c 0,235,236
 1490 1356 1490 1356 1536 1371 c 0,237,238
 1600 1392 1600 1392 1662 1442 c 1,239,-1
 1662 714 l 1,240,241
 1559 638 1559 638 1432.5 638 c 0,242,243
 1306 638 1306 638 1156 714 c 0,244,245
 1146 718 1146 718 1103 734 c 0,246,247
 1060 750 1060 750 1045 755 c 0,248,249
 1030 760 1030 760 990 773 c 0,250,251
 950 786 950 786 929 788 c 0,252,253
 908 790 908 790 870 795 c 0,254,255
 853 797 853 797 838 797 c 0,256,257
 820 797 820 797 805 794 c 0,258,259
 778 788 778 788 743 781 c 0,260,261
 708 774 708 774 676 756 c 0,262,263
 644 738 644 738 610 714 c 1,223,-1
EndSplineSet
Validated: 9
EndChar

StartChar: zero
Encoding: 93 48 79
Width: 2048
Flags: MW
LayerCount: 2
Fore
SplineSet
392.2 285.75 m 1,0,-1
 1565.2 285.75 l 1,1,-1
 1565.34 428.25 l 1,2,-1
 556.4 428.25 l 1,3,-1
 556.4 1286.75 l 1,4,-1
 392.2 1286.75 l 1,5,-1
 392.2 285.75 l 1,0,-1
90.2002 4.75 m 1,6,-1
 1263.2 4.75 l 1,7,-1
 1263.34 147.25 l 1,8,-1
 254.4 147.25 l 1,9,-1
 254.4 1005.75 l 1,10,-1
 90.2002 1005.75 l 1,11,-1
 90.2002 4.75 l 1,6,-1
691.2 544.75 m 5,12,-1
 1864.2 544.75 l 5,13,-1
 1865.2 1545.75 l 5,14,-1
 691.2 1545.75 l 5,15,-1
 691.2 544.75 l 5,12,-1
EndSplineSet
Validated: 9
EndChar

StartChar: six
Encoding: 94 54 80
Width: 2048
VWidth: 0
LayerCount: 2
Fore
SplineSet
1387.94 1444.26 m 17,0,1
 1592.92 1395.68 1592.92 1395.68 1677.2 1155.47 c 24,2,3
 1759.7 920.351 1759.7 920.351 1635.95 643.975 c 1,4,5
 1627.7 891.476 1627.7 891.476 1615.33 969.85 c 0,6,7
 1600.28 1067.41 1600.28 1067.41 1545.2 1192.6 c 0,8,9
 1486.42 1321.75 1486.42 1321.75 1387.94 1444.26 c 17,0,1
1891.7 1178.47 m 0,10,11
 1821.15 1411.27 1821.15 1411.27 1576.7 1643.47 c 17,12,13
 1894.77 1582.3 1894.77 1582.3 2003.23 1235.39 c 152,-1,14
 2111.7 888.476 2111.7 888.476 1891.7 518.475 c 1,15,16
 1956.7 953.476 1956.7 953.476 1891.7 1178.47 c 0,10,11
1125.2 1617.6 m 281,17,-1
 1490.2 437.6 l 281,18,19
 1319.88 619.026 1319.88 619.026 930.2 537.6 c 2,20,-1
 595.2 467.6 l 1,21,-1
 895.2 0 l 1,22,-1
 645.2 0 l 1,23,-1
 370.2 427.6 l 1,24,-1
 145.2 367.6 l 265,25,-1
 0 772.6 l 281,26,-1
 820.2 1227.6 l 2,27,28
 1069.89 1366.11 1069.89 1366.11 1125.2 1617.6 c 281,17,-1
EndSplineSet
Validated: 524321
EndChar

StartChar: seven
Encoding: 85 55 81
Width: 2048
VWidth: 1000
Flags: HWO
LayerCount: 2
Fore
SplineSet
1638.66 1635 m 5,0,1
 1723.68 1635 1723.68 1635 1783.63 1575.05 c 132,-1,2
 1843.58 1515.1 1843.58 1515.1 1843.58 1430.08 c 6,3,-1
 1843.58 204.92 l 6,4,5
 1843.58 161.32 1843.58 161.32 1827.23 124.26 c 132,-1,6
 1810.88 87.2002 1810.88 87.2002 1783.63 59.9502 c 132,-1,7
 1756.38 32.7002 1756.38 32.7002 1718.23 16.3496 c 132,-1,8
 1680.08 0 1680.08 0 1638.66 0 c 6,9,-1
 1122 0 l 5,10,-1
 1122 684.52 l 5,11,-1
 1305.12 684.52 l 6,12,13
 1318.2 684.52 1318.2 684.52 1328.01 693.24 c 132,-1,14
 1337.82 701.96 1337.82 701.96 1337.82 715.04 c 6,15,-1
 1350.9 893.8 l 6,16,17
 1350.9 909.06 1350.9 909.06 1342.18 919.96 c 4,18,19
 1331.28 930.86 1331.28 930.86 1318.2 930.86 c 6,20,-1
 1122 930.86 l 5,21,-1
 1122 1009.34 l 6,22,23
 1122 1052.94 1122 1052.94 1132.9 1067.11 c 132,-1,24
 1143.8 1081.28 1143.8 1081.28 1189.58 1081.28 c 4,25,26
 1215.74 1081.28 1215.74 1081.28 1248.44 1076.92 c 132,-1,27
 1281.14 1072.56 1281.14 1072.56 1311.66 1066.02 c 4,28,29
 1318.2 1066.02 1318.2 1066.02 1325.83 1067.11 c 132,-1,30
 1333.46 1068.2 1333.46 1068.2 1337.82 1072.56 c 4,31,32
 1348.72 1079.1 1348.72 1079.1 1353.08 1096.54 c 6,33,-1
 1377.06 1268.76 l 6,34,35
 1381.42 1299.28 1381.42 1299.28 1350.9 1305.82 c 4,36,37
 1254.98 1331.98 1254.98 1331.98 1150.34 1331.98 c 4,38,39
 829.88 1331.98 829.88 1331.98 829.88 1020.24 c 6,40,-1
 829.88 930.86 l 5,41,-1
 720.88 930.86 l 6,42,43
 686 930.86 686 930.86 686 895.98 c 6,44,-1
 686 717.22 l 6,45,46
 686 704.14 686 704.14 695.811 694.33 c 132,-1,47
 705.62 684.52 705.62 684.52 720.88 684.52 c 6,48,-1
 829.88 684.52 l 5,49,-1
 829.88 0 l 5,50,-1
 411.32 0 l 6,51,52
 369.9 0 369.9 0 332.84 16.3496 c 132,-1,53
 295.78 32.7002 295.78 32.7002 268.53 59.9502 c 132,-1,54
 241.28 87.2002 241.28 87.2002 224.93 124.26 c 132,-1,55
 208.58 161.32 208.58 161.32 208.58 204.92 c 6,56,-1
 208.58 1430.08 l 6,57,58
 208.58 1471.5 208.58 1471.5 224.93 1509.65 c 132,-1,59
 241.28 1547.8 241.28 1547.8 268.53 1575.05 c 132,-1,60
 295.78 1602.3 295.78 1602.3 332.84 1618.65 c 132,-1,61
 369.9 1635 369.9 1635 411.32 1635 c 6,62,-1
 1638.66 1635 l 5,63,-1
 1638.66 1635 l 5,0,1
EndSplineSet
Validated: 524293
EndChar

StartChar: nine
Encoding: 69 57 82
Width: 2048
VWidth: 1000
Flags: HWO
LayerCount: 2
Fore
SplineSet
1624.3 798.52 m 0,0,1
 1639.56 813.779 1639.56 813.779 1628.66 833.4 c 0,2,3
 1619.94 853.02 1619.94 853.02 1595.96 848.66 c 1,4,-1
 1591.6 848.66 l 1,5,6
 1615.58 872.641 1615.58 872.641 1624.3 896.619 c 0,7,8
 1633.02 918.42 1633.02 918.42 1615.58 931.5 c 1,9,10
 1600.32 946.76 1600.32 946.76 1580.7 933.68 c 0,11,12
 1571.98 929.32 1571.98 929.32 1549.09 922.779 c 128,-1,13
 1526.2 916.24 1526.2 916.24 1500.04 916.24 c 0,14,15
 1495.68 916.24 1495.68 916.24 1492.41 917.33 c 128,-1,16
 1489.14 918.42 1489.14 918.42 1484.78 918.42 c 1,17,18
 1484.78 920.6 1484.78 920.6 1483.69 922.779 c 128,-1,19
 1482.6 924.961 1482.6 924.961 1482.6 927.141 c 0,20,21
 1465.16 992.539 1465.16 992.539 1421.56 1044.86 c 128,-1,22
 1377.96 1097.18 1377.96 1097.18 1321.28 1121.16 c 1,23,24
 1325.64 1125.52 1325.64 1125.52 1327.82 1129.88 c 128,-1,25
 1330 1134.24 1330 1134.24 1334.36 1138.6 c 1,26,27
 1340.9 1156.04 1340.9 1156.04 1334.36 1173.48 c 0,28,29
 1332.18 1180.02 1332.18 1180.02 1321.28 1190.92 c 128,-1,30
 1310.38 1201.82 1310.38 1201.82 1284.22 1199.64 c 1,31,32
 1282.04 1204 1282.04 1204 1277.68 1208.36 c 0,33,34
 1264.6 1221.44 1264.6 1221.44 1251.52 1217.08 c 0,35,36
 1225.36 1212.72 1225.36 1212.72 1199.2 1204 c 1,37,-1
 1197.02 1206.18 l 1,38,39
 1181.76 1214.9 1181.76 1214.9 1164.32 1204 c 0,40,41
 1101.1 1164.76 1101.1 1164.76 1059.68 1097.18 c 128,-1,42
 1018.26 1029.6 1018.26 1029.6 987.739 953.301 c 1,43,44
 950.681 986 950.681 986 926.7 996.9 c 1,45,46
 861.3 1033.96 861.3 1033.96 789.36 1064.48 c 128,-1,47
 717.421 1095 717.421 1095 625.86 1129.88 c 0,48,49
 610.601 1134.24 610.601 1134.24 599.7 1125.52 c 0,50,51
 588.8 1118.98 588.8 1118.98 584.44 1103.72 c 1,52,53
 582.261 1075.38 582.261 1075.38 593.161 1041.59 c 128,-1,54
 604.06 1007.8 604.06 1007.8 634.579 975.1 c 1,55,56
 608.421 968.561 608.421 968.561 612.78 940.221 c 0,57,58
 625.86 868.279 625.86 868.279 684.72 833.4 c 1,59,-1
 671.64 820.32 l 2,60,61
 656.38 805.061 656.38 805.061 667.28 785.439 c 1,62,63
 671.64 772.359 671.64 772.359 695.62 745.109 c 128,-1,64
 719.601 717.859 719.601 717.859 765.38 704.779 c 1,65,66
 758.841 691.699 758.841 691.699 758.841 680.801 c 128,-1,67
 758.841 669.9 758.841 669.9 761.021 665.539 c 0,68,69
 767.56 630.66 767.56 630.66 802.44 613.221 c 1,70,71
 763.2 587.061 763.2 587.061 718.511 577.25 c 128,-1,72
 673.819 567.439 673.819 567.439 628.04 570.711 c 128,-1,73
 582.261 573.98 582.261 573.98 539.751 592.51 c 128,-1,74
 497.239 611.039 497.239 611.039 464.54 641.561 c 0,75,76
 455.819 650.279 455.819 650.279 443.829 650.279 c 128,-1,77
 431.841 650.279 431.841 650.279 423.12 641.561 c 0,78,79
 399.14 621.939 399.14 621.939 418.761 600.141 c 1,80,81
 503.78 482.42 503.78 482.42 630.22 420.289 c 128,-1,82
 756.661 358.16 756.661 358.16 907.079 358.16 c 0,83,84
 1009.54 358.16 1009.54 358.16 1103.28 386.5 c 128,-1,85
 1197.02 414.84 1197.02 414.84 1273.32 464.98 c 128,-1,86
 1349.62 515.119 1349.62 515.119 1405.21 584.881 c 128,-1,87
 1460.8 654.641 1460.8 654.641 1486.96 737.48 c 1,88,89
 1574.16 744.02 1574.16 744.02 1624.3 798.52 c 0,0,1
1635.2 1640 m 1,90,91
 1720.22 1640 1720.22 1640 1780.17 1580.05 c 128,-1,92
 1840.12 1520.1 1840.12 1520.1 1840.12 1435.08 c 2,93,-1
 1840.12 209.92 l 2,94,95
 1840.12 166.32 1840.12 166.32 1823.77 129.26 c 128,-1,96
 1807.42 92.1992 1807.42 92.1992 1780.17 64.9492 c 128,-1,97
 1752.92 37.6992 1752.92 37.6992 1714.77 21.3496 c 128,-1,98
 1676.62 5 1676.62 5 1635.2 5 c 2,99,-1
 407.86 5 l 2,100,101
 366.44 5 366.44 5 329.38 21.3496 c 128,-1,102
 292.319 37.6992 292.319 37.6992 265.069 64.9492 c 128,-1,103
 237.819 92.1992 237.819 92.1992 221.47 129.26 c 128,-1,104
 205.12 166.32 205.12 166.32 205.12 209.92 c 2,105,-1
 205.12 1435.08 l 2,106,107
 205.12 1476.5 205.12 1476.5 221.47 1514.65 c 128,-1,108
 237.819 1552.8 237.819 1552.8 265.069 1580.05 c 128,-1,109
 292.319 1607.3 292.319 1607.3 329.38 1623.65 c 128,-1,110
 366.44 1640 366.44 1640 407.86 1640 c 2,111,-1
 1635.2 1640 l 1,112,-1
 1635.2 1640 l 1,90,91
EndSplineSet
EndChar
